<?xml version="1.0" encoding="utf-8"?>
<!-- Generator: Adobe Illustrator 23.0.6, SVG Export Plug-In . SVG Version: 6.00 Build 0)  -->
<svg version="1.1" id="Capa_1" xmlns="http://www.w3.org/2000/svg" xmlns:xlink="http://www.w3.org/1999/xlink" x="0px" y="0px"
	 viewBox="0 0 45.8 45.8" style="enable-background:new 0 0 45.8 45.8;" xml:space="preserve">
<path d="M40.4,2.8v2.3c0,2.3-1.9,4.2-4.2,4.2H36c-2.3,0-4.2-1.9-4.2-4.2V2.5h-4.6v2.6c0,2.3-1.9,4.2-4.2,4.2h-0.2
	c-2.3,0-4.2-1.9-4.2-4.2V2.5h-4.7v2.6c0,2.3-1.9,4.2-4.2,4.2H9.5c-2.3,0-4.2-1.9-4.2-4.2V2.9C2.6,3.8,0.7,6.3,0.7,9.3v29.9
	c0,3.7,3,6.7,6.7,6.7h31c3.7,0,6.7-3,6.7-6.7V9.3C45.1,6.2,43.1,3.7,40.4,2.8z M41.8,38.5c0,2.1-1.7,3.9-3.9,3.9h-30
	c-2.1,0-3.9-1.8-3.9-3.9V17.3c0-1.5,1.2-2.6,2.6-2.6h32.5c1.5,0,2.6,1.2,2.6,2.6L41.8,38.5L41.8,38.5z"/>
<path d="M9.5,7.3h0.2c0.7,0,1.3-0.3,1.7-0.7c0.3-0.4,0.5-0.9,0.5-1.4l0,0v-3l0,0c0-0.6-0.2-1.1-0.6-1.5c0,0,0,0,0,0c0,0,0,0,0,0
	C10.9,0.2,10.3,0,9.7,0H9.5C8.9,0,8.4,0.2,8,0.6c0,0,0,0,0,0c0,0,0,0,0,0C7.5,1,7.3,1.6,7.3,2.2l0,0v3l0,0c0,0.5,0.2,1,0.5,1.4
	C8.2,7,8.8,7.3,9.5,7.3z"/>
<path d="M21.5,6.9C21.5,6.9,21.5,7,21.5,6.9C21.5,7,21.6,6.9,21.5,6.9c0.4,0.2,0.8,0.3,1.3,0.3h0H23l0,0c0.4,0,0.7-0.1,1-0.2
	c0,0,0,0,0,0c0,0,0,0,0,0c0.7-0.4,1.1-1.1,1.1-1.9v-3c0-0.7-0.3-1.3-0.9-1.7c0,0,0,0,0,0l0,0C23.9,0.1,23.5,0,23,0h-0.2
	c-0.6,0-1.1,0.2-1.5,0.6c0,0,0,0,0,0c0,0,0,0,0,0c-0.4,0.4-0.7,1-0.7,1.6v3C20.5,5.9,20.9,6.6,21.5,6.9z"/>
<path d="M36,7.3h0.2c0.7,0,1.3-0.3,1.7-0.7c0.3-0.4,0.5-0.9,0.5-1.4l0,0v-3l0,0c0-0.8-0.5-1.5-1.2-1.9c0,0,0,0,0,0
	c-0.1,0-0.1-0.1-0.2-0.1c0,0,0,0,0,0c0,0,0,0,0,0c0,0,0,0-0.1,0c0,0,0,0,0,0c0,0,0,0-0.1,0C36.7,0,36.5,0,36.2,0H36
	c-0.1,0-0.2,0-0.3,0c-1.1,0.2-1.8,1.1-1.8,2.2v3C33.9,6.3,34.8,7.3,36,7.3z"/>
<rect x="19.3" y="19.4" width="7.1" height="7.1"/>
<rect x="19.3" y="30.6" width="7.1" height="7.1"/>
<rect x="7.7" y="19.4" width="7.1" height="7.1"/>
<rect x="7.7" y="30.6" width="7.1" height="7.1"/>
<rect x="30.9" y="19.4" width="7.1" height="7.1"/>
<rect x="30.9" y="30.6" width="7.1" height="7.1"/>
</svg>
