<svg xmlns="http://www.w3.org/2000/svg" viewBox="0 0 1024 352"><defs/><defs><clipPath id="clip-path"><path fill="none" d="M0 0h1024v352H0z"/></clipPath><style>.cls-2{fill:#cf2e78}.cls-3{clip-path:url(#clip-path)}.cls-4{fill:#fff}.cls-5{fill:#1a171c}</style></defs><g id="Layer_2" data-name="Layer 2"><g id="Layer_1_copy" data-name="Layer 1 copy"><path class="cls-2" d="M665.5 9.3H902v35.6H665.5zM746.4 48.1h143.7v20.1H746.4z"/><g class="cls-3"><path class="cls-4" d="M858.7 56.5h1.7l.3-1.3c0-.2 0-.2.2-.2h1.6v7.9a.4.4 0 010 .2.3.3 0 01-.2.1l-1.6.1v1.2h6.2v-1.2l-1.7-.1h-.2a.5.5 0 010-.3V55h1.6c.2 0 .2 0 .3.2l.2 1.3h1.7v-3.2h-10v3.2zm-4 1.5a2.8 2.8 0 01-1.5.3h-.7V55h.8a2.8 2.8 0 011.5.3 1.4 1.4 0 01.5 1.3 1.6 1.6 0 01-.6 1.4m2.8 4.9l-.9-2.3a2.1 2.1 0 00-.9-1.2 3.3 3.3 0 001.3-5.2 3.7 3.7 0 00-2.8-1H849v1.3l1 .1a.3.3 0 01.2.1.4.4 0 010 .2v8a.4.4 0 010 .2.3.3 0 01-.2 0l-1 .2v1.2h5v-1.2l-1-.1a.4.4 0 01-.3 0 .6.6 0 010-.3v-3h.8a1 1 0 01.6.2 1.2 1.2 0 01.3.5l1.4 4h3.4v-1.3l-1-.1a.6.6 0 01-.5-.4m-11.7 0h-3.1v-3h3.6V58h-3.6v-3h2.4a.3.3 0 01.3.2l.2 1.2h1.7v-3.1h-8.2v1.2l1 .1a.3.3 0 01.2.1.5.5 0 010 .2v8a.5.5 0 010 .3.3.3 0 01-.2 0l-1 .2v1.2h8.6v-3.3H846zm-8.4.3a.6.6 0 010-.2v-6.4h-3.2l-.3 1.2.8.3a.3.3 0 01.2.3V63a.4.4 0 010 .2.3.3 0 01-.2.1l-.7.1v1.2h4.4v-1.2h-.8a.4.4 0 01-.2-.2m-.4-8.3a1.4 1.4 0 00.4-1 1.4 1.4 0 00-.4-1 1.5 1.5 0 00-1-.3 1.4 1.4 0 00-1 .3 1.4 1.4 0 00-.4 1 1.3 1.3 0 001.4 1.4 1.4 1.4 0 001-.3m-13.7 1.6h1.6l.3-1.3c0-.1 0-.2.2-.2h1.6V63a.4.4 0 010 .2.3.3 0 01-.3.1l-1.5.1v1.2h6.2v-1.2l-1.8-.1h-.2a.5.5 0 010-.3V55h1.6c.2 0 .3 0 .3.2l.2 1.3h1.7v-3.2h-10v3.2zm-5.1-2l1 .2a.3.3 0 01.2 0 .4.4 0 010 .3v6.4l-4.9-8.1h-3.8v1.2l1 .1a.3.3 0 01.2 0 .4.4 0 010 .3v8a.4.4 0 010 .3.3.3 0 01-.2 0l-1 .2v1.2h4.2v-1.3h-1c-.1 0-.2 0-.2-.2a.5.5 0 010-.2v-6.5l5 8.1h2.5V55a.5.5 0 010-.2.4.4 0 01.2-.1l1-.1v-1.3h-4.3zm-10.6 8.2c0 .1 0 .2-.2.2h-2.9v-3.1h3.6V58h-3.6v-3h2.4a.2.2 0 01.3.2l.2 1.2h1.7v-3.1H801v1.2l1 .1a.3.3 0 01.2.1.4.4 0 010 .2v8a.5.5 0 010 .3.3.3 0 01-.2 0l-1 .2v1.2h8.6v-3.3h-1.7zm-8.8-3.9a5.3 5.3 0 00-1-.6 10.1 10.1 0 00-1.2-.3l-.7-.3-.5-.2a1.4 1.4 0 01-.6-.3 1.5 1.5 0 01-.3-.4 1 1 0 01-.1-.5 1.2 1.2 0 01.4-1 2 2 0 011.3-.4 3.6 3.6 0 011.2.2.3.3 0 01.2.3l.1 1.3 1.8.1v-3a8 8 0 00-3.2-.6 4.8 4.8 0 00-3 .9 3.1 3.1 0 00-1.1 2.6 2.8 2.8 0 001.3 2.6 10.7 10.7 0 002 .8l.9.2a2.9 2.9 0 01.5.3 1.1 1.1 0 01.5.4 1.4 1.4 0 01.1.7c0 1-.6 1.4-2 1.4a5.1 5.1 0 01-1.3-.2.3.3 0 01-.2-.3l-.3-1.4h-1.8v3a7 7 0 001.6.4 10 10 0 002 .2 5.3 5.3 0 003-.9 3 3 0 001.3-2.6 3.6 3.6 0 00-.2-1.5 2.2 2.2 0 00-.8-1M786 50.5a1 1 0 00-.3.8 1 1 0 001.1 1 1.1 1.1 0 00.8-.2 1 1 0 00.3-.8 1 1 0 00-.3-.8 1.2 1.2 0 00-1.6 0m-2.5 9.4l1.4-4.2h.1l1.4 4.2zm6.5 3l-3.4-9.6h-2.8l-3.4 9.6a.5.5 0 01-.3.3l-.7.1v1.3h4.3v-1.3l-1.2-.1.5-1.6h3.9l.6 1.6-1.3.1v1.3h4.9v-1.3l-.7-.1a.5.5 0 01-.4-.3m-7.2-12.3a1 1 0 00-.3.7 1 1 0 00.3.8 1.3 1.3 0 001.6 0 1 1 0 00.3-.8 1 1 0 00-.3-.7 1.2 1.2 0 00-1.6 0m-7.7 7.4a2.8 2.8 0 01-1.5.4h-.7V55h.8a2.7 2.7 0 011.5.3 1.4 1.4 0 01.5 1.3 1.6 1.6 0 01-.5 1.4m2.7 4.9l-.8-2.3a2.1 2.1 0 00-1-1.2 3.3 3.3 0 001.3-5.2 3.7 3.7 0 00-2.8-1h-5.3v1.3l1 .1a.3.3 0 01.2.1.4.4 0 010 .2v8a.4.4 0 010 .2.3.3 0 01-.2 0l-1 .2v1.2h5v-1.2l-1.1-.1h-.2a.5.5 0 010-.3v-3h.7a1 1 0 01.6.2 1.1 1.1 0 01.3.5l1.4 4h3.4v-1.3l-1-.1a.6.6 0 01-.5-.4m-12.3-5a1.3 1.3 0 01-.5.6 2 2 0 01-.6.3 3.6 3.6 0 01-.8 0h-.8V55h1a2.6 2.6 0 011.4.4 1.6 1.6 0 01.5 1.4 2.6 2.6 0 01-.2 1m-1-4.5h-5.3v1.2l1 .1a.3.3 0 01.2 0 .4.4 0 010 .3v8a.4.4 0 010 .2.3.3 0 01-.2.1l-1 .1v1.2h6v-1.2l-2.1-.1h-.3a.5.5 0 010-.3v-2.5h1.2q4.2 0 4.2-3.8a3.4 3.4 0 00-.8-2.4 3.9 3.9 0 00-3-.9M858 19.8v4.8h2.6l.3-2 .4-.2h2.4v11.8a.6.6 0 010 .4h-.4l-2.4.2v1.9h9.3v-1.9l-2.5-.2a.5.5 0 01-.3 0 .7.7 0 01-.1-.4V22.3h2.4c.2 0 .3.1.4.3l.3 2h2.6v-4.8zm-13.2 2.8c0-.2.1-.3.4-.3h2.4v11.9a.6.6 0 01-.1.4h-.3l-2.4.2v1.9h9.3v-1.9l-2.6-.2h-.3a.7.7 0 010-.4V22.3h2.4c.2 0 .3.1.3.3l.4 2h2.5v-4.8h-15v4.8h2.6zm-12 11.5c-3 0-4.5-2-4.5-5.9a6.5 6.5 0 011.2-4.3 4.1 4.1 0 013.4-1.5q4.2 0 4.2 5.8t-4.4 5.9m6.1-12.2a7.3 7.3 0 00-5.9-2.4 7.8 7.8 0 00-6.1 2.4 9.2 9.2 0 00-2.2 6.4 9.5 9.5 0 002 6.3q2 2.3 6 2.3t6.1-2.3a9.7 9.7 0 002-6.6 9.2 9.2 0 00-2-6.1m-24 .5h1.2a4.1 4.1 0 012.3.5 2 2 0 01.7 1.8 2.4 2.4 0 01-.8 2.1 4.2 4.2 0 01-2.3.6h-1zm2 12.4l-1.6-.2h-.3a.7.7 0 010-.5v-4.3h1a1.5 1.5 0 01.9.2 1.8 1.8 0 01.5.8l2 5.9h5.2v-1.9l-1.5-.2a.9.9 0 01-.7-.5l-1.3-3.3a3.1 3.1 0 00-1.3-1.9 4.6 4.6 0 003-4.4 4.7 4.7 0 00-1.2-3.4c-.8-.9-2.2-1.3-4.2-1.3h-7.9v1.8l1.5.2a.4.4 0 01.3.1.6.6 0 010 .4v11.9a.6.6 0 010 .3.4.4 0 01-.3.1l-1.5.2v1.9h7.4v-1.9zm-9.2-3.1a5.3 5.3 0 00-.3-2.2 3.3 3.3 0 00-1.2-1.4 7.7 7.7 0 00-1.4-.9 15.7 15.7 0 00-1.7-.6l-1-.3-1-.3a2.6 2.6 0 01-.7-.5 2.5 2.5 0 01-.5-.5 1.6 1.6 0 01-.2-.8 1.8 1.8 0 01.7-1.5 3 3 0 012-.5 5.7 5.7 0 011.6.2.5.5 0 01.3.5l.3 1.9 2.6.2v-4.6a12 12 0 00-4.8-1 7.2 7.2 0 00-4.5 1.4 4.6 4.6 0 00-1.7 4 4.2 4.2 0 002 3.8 15 15 0 003.1 1.2l1.2.3a5.2 5.2 0 01.8.5 1.9 1.9 0 01.7.6 2 2 0 01.2 1c0 1.4-1 2.1-3 2.1a8.2 8.2 0 01-2-.2.4.4 0 01-.3-.4l-.5-2.2h-2.6V36a10.5 10.5 0 002.3.7 16 16 0 003 .3 7.9 7.9 0 004.7-1.4 4.6 4.6 0 001.9-4M780 35l-2-.2-.3-.1a.7.7 0 010-.4v-8.9l3.4 8h3.9l3.3-7.9h.1v8.9a.6.6 0 010 .3.5.5 0 01-.3.1l-2 .2v1.8h7.7v-1.9l-1.6-.1a.4.4 0 01-.3-.5v-12a.6.6 0 010-.3l.3-.1 1.6-.2v-1.8h-6l-4.3 10.6-4.2-10.6h-6.2v1.8l1.4.2a.5.5 0 01.3.1.7.7 0 01.1.4v12a.7.7 0 010 .3.5.5 0 01-.4.1l-1.4.2v1.8h7zm-8.7-3h-2.6l-.3 2a.3.3 0 01-.4.3h-4.2v-4.7h5.5v-2.6h-5.5v-4.6h3.7a.4.4 0 01.4.3l.3 1.8 2.6.1v-4.7h-12.3v1.8l1.5.2a.5.5 0 01.3.1.7.7 0 010 .4v12a.7.7 0 010 .3.5.5 0 01-.3.1l-1.5.2v1.8h12.9zM755 28a7.6 7.6 0 00-1.4-.8 16 16 0 00-1.7-.6l-1-.3-.8-.3a2.7 2.7 0 01-.9-.5 2.5 2.5 0 01-.4-.6 1.6 1.6 0 01-.2-.8 1.8 1.8 0 01.7-1.4 3 3 0 012-.5 5.7 5.7 0 011.6.2.5.5 0 01.3.5l.3 1.8 2.6.3v-4.6a12 12 0 00-4.8-1 7.2 7.2 0 00-4.5 1.4 4.6 4.6 0 00-1.7 4 4.2 4.2 0 002 3.8 15 15 0 003.1 1.2l1.2.3a5 5 0 01.8.5 1.9 1.9 0 01.7.6 2 2 0 01.2 1c0 1.4-1 2.1-3 2.1a8 8 0 01-1.9-.2.5.5 0 01-.4-.4l-.4-2.2h-2.6V36a10.7 10.7 0 002.3.7 16 16 0 003 .3 8 8 0 004.7-1.4 4.6 4.6 0 001.8-4 5.5 5.5 0 00-.4-2 3.4 3.4 0 00-1.2-1.5m-24.8 6c-3 0-4.4-2-4.4-6A6.5 6.5 0 01727 24a4.1 4.1 0 013.3-1.5q4.3 0 4.3 5.8c0 3.9-1.5 5.9-4.4 5.9m.2-14.6a7.8 7.8 0 00-6.2 2.4 9.2 9.2 0 00-2.1 6.4 9.5 9.5 0 002 6.3c1.3 1.5 3.3 2.3 6 2.3a7.7 7.7 0 006-2.4 9.7 9.7 0 002.2-6.5 9.2 9.2 0 00-2-6.1 7.2 7.2 0 00-5.9-2.4m-12.7 14a.7.7 0 01-.1.4.5.5 0 01-.3.1 8 8 0 01-2.3.3 4.2 4.2 0 01-3.5-1.6 7.3 7.3 0 01-1.2-4.5 6.7 6.7 0 011.3-4.5 4.4 4.4 0 013.5-1.5 6.8 6.8 0 012.1.3.5.5 0 01.4.4l.3 2.3 2.6.2v-4.6a9.5 9.5 0 00-5.3-1.3 8.4 8.4 0 00-6.4 2.4 8.9 8.9 0 00-2.2 6.3q0 8.8 8.1 8.8a11.2 11.2 0 005.8-1.3v-4.4h-2.4zm-20.4-11.8l1.7.1a.5.5 0 01.3.1.7.7 0 010 .4v12a.7.7 0 010 .3.5.5 0 01-.3 0l-1.7.2v1.9h7.8v-1.9l-1.8-.1-.3-.1a.7.7 0 010-.4v-12a.7.7 0 010-.3.5.5 0 01.3 0l1.8-.2v-1.9h-7.8zm-8 0l1.5.1a.5.5 0 01.3.1.6.6 0 01.1.4V32L684 19.8h-5.8v1.8l1.5.2a.5.5 0 01.3 0 .7.7 0 010 .4v12a.7.7 0 010 .4.5.5 0 01-.3.1l-1.5.2v1.8h6.5v-1.9l-1.6-.1-.3-.1a.7.7 0 010-.4v-9.7l7.4 12.2h3.8V22.3a.8.8 0 010-.4.5.5 0 01.3 0l1.6-.2v-1.9h-6.5zM974.4 46.5A46.5 46.5 0 11928 0a46.5 46.5 0 0146.4 46.5"/><path class="cls-5" d="M928 76.6a30.1 30.1 0 1130.1-30.1 30.1 30.1 0 01-30.1 30M928 0a46.5 46.5 0 1046.4 46.5A46.4 46.4 0 00928 0"/><path class="cls-4" d="M926.3 71.1s-7.2 5-7.7 6-1.8 5.5-1.8 5.5l4.9 4.4 5.4 2s10.8-6.4 11-7-1-9-1-9l-3.8-2.8z"/><path class="cls-5" d="M923 34.6zM931.5 73h.1M927.5 82h.3-.2M927.4 81.6h-.1M926 81.4h-.3v.2h.2a.2.2 0 000-.1h.2a.8.8 0 010-.2h-.1zM926.5 81.4a.9.9 0 000-.2h-.2a.1.1 0 000 .2h.2M925.6 81v-.1M926.6 81.5h.1a.1.1 0 000-.1M927.3 82.6h.1M927.7 82.3v.1-.2M927.8 81.7h-.2.2zM928.2 82h-.2v.2h.2a.1.1 0 000-.1M927.9 82.7h.1v-.1h-.1zM925.4 81.3h.1a.3.3 0 010-.2 1 1 0 010 .2M928.1 81.6v.1h-.1H928.3v-.2h-.1a.1.1 0 010 .1M920.8 36.5v.1a.8.8 0 010-.1M922.1 35a.1.1 0 010 .1M922.3 39.3h-.1M928.5 82.4h.1v-.1h-.1zM920.7 36.6v0"/><path class="cls-5" d="M926.5 81.5h-.2a.2.2 0 000 .1.3.3 0 000 .1V82a.5.5 0 00.2 0v-.2.1h.1v0a.2.2 0 000-.1v-.4a.3.3 0 000 .1M944.4 36.9h-.1.1M947.8 43v.1h.1a.2.2 0 010-.1h.1-.2M921.5 45.9h.2a.2.2 0 010-.1h-.1v-.2h.1v.1h.1v-.2h-.1a.2.2 0 010-.1H921.4v.5"/><path class="cls-5" d="M915.4000000000001 44v.2a.3.3 0 010-.1m0-.5a2 2 0 000 .2 2 2 0 010-.2m0-.5h.1a1.7 1.7 0 010 .2zm0-.2h.2v.1h-.1m-.2 3.1V46h.1v.2m7.8-.6h-.1m0 0h.1v.1zm-2.6.4a.8.8 0 000-.1v-.2a.6.6 0 01.2 0h-.1v.3h-.1m-4.8.7a.2.2 0 010 .1h.4a.2.2 0 000 .2h.3v.1h.1l.6.1a.3.3 0 000 .1h.2a.5.5 0 00.2 0h.5v.1h.2v-.1H918.6v.2h.2v-.1h.3V47h.1V47h.1v-.1a.3.3 0 000-.1h.2v.2h-.2V46.7h.2a.5.5 0 00.1 0 .7.7 0 000-.2h.2a.2.2 0 010-.1h.5a.1.1 0 010-.1h.3a.1.1 0 010-.1H920.8V46h.5v-.2-.1h-.1v-.2h.1-.6v-.2a.2.2 0 000 .1h-.2a.4.4 0 01-.2 0h-.1a1.2 1.2 0 01-.2 0h-.2a.1.1 0 010 .2v-.2h-.2.1a.3.3 0 010-.1h.2a.1.1 0 010-.1h.1a.8.8 0 000-.1H920.7a.1.1 0 010-.2h.5v-.2H921.4a.2.2 0 000-.1h.1a.1.1 0 010-.2h.2a.2.2 0 000-.1h.3V44h.1l.1-.4v-.1-.3h.4a.2.2 0 000 .1h.1a.1.1 0 000 .2h.1a1 1 0 010 .1h.2a.2.2 0 000 .1v.5h-.1v.1h-.2a.2.2 0 010 .1h.2v.3a.2.2 0 000-.1h.2v.1a.3.3 0 000 .1h.2v-.2h.1v.4h.2v.2h-.1V45H923.2a.3.3 0 000 .2h.2-.2a.3.3 0 000 .1h-.2a.2.2 0 000 .1h.2a.8.8 0 010 .2v.2h.1v-.2.2h.4v.2h-.2v.1h.3v.2a.2.2 0 010 .1h.2a3 3 0 010 .3.3.3 0 010 .1v.2h-.1a2 2 0 010 .2h-.1v.4h-.2v.2a.8.8 0 010 .2.3.3 0 000 .1h-.2.2a.2.2 0 000 .2h-1.1a.2.2 0 010 .2h-.2a1.7 1.7 0 01-.4-.1h-.7l-1.1-.1a.2.2 0 000-.1l-1-.2V48h-.6a.1.1 0 010-.1l-.6-.1a1.5 1.5 0 01-.3-.2h-.4v-.1h-.5v-.2h-.3l-.4-.2-.4-.1a.3.3 0 000-.1h-.2a.2.2 0 000-.2v-.2h.1v.2h.2m2.8-7.9h.1v.2a.8.8 0 000-.2m0-.6a.3.3 0 01.2 0h-.2m3.2 1.8h.2a.2.2 0 000 .2h-.2a.2.2 0 010-.1h-.1a.8.8 0 000-.2v.1h.2m-.5 0a.1.1 0 010 .1h-.1m-.2 0v-.1h.1m0 .9h-.2v-.1h.1m0-.8h-.2.2zm-.5 1.1v.1h-.2zm-.2-1.5h-.2v-.1h.2m-1.7 0h.1v-.1h.2-.2m.1 7.8a.1.1 0 010 .1h.1m.3-2.1h-.1m.4 0h-.1v.1h-.1.2m2.3-2.6H921.1a.1.1 0 010 .1H920.3a1.4 1.4 0 00-.4 0h-.1a.3.3 0 010-.1H919.1a1 1 0 000-.1h-.3V41.8h.3a1.2 1.2 0 01.3 0h.8l1.7.2h.2l.8.2v.3h.1v.2H922m-.1.7a1 1 0 010 .2.3.3 0 01-.2 0 .2.2 0 000-.1h.2v-.1h-.3v-.2h.2v.1h.1v.1h.2-.1zm1.6-1.1h-.1m.6 3a.1.1 0 010-.1m-.1-.1a.1.1 0 000-.1m0 .7a.2.2 0 000 .1h-.2v-.1h.2m0-.2a.3.3 0 010 .1h-.2.1a.1.1 0 000-.1h.2-.2m.1.6h.2v.1h-.2m13-3.3h.2-.2m0 0a.2.2 0 000-.1m-.2 0v-.2.1m-.5.2h.3-.3m-17.3-5.2h.2a.8.8 0 000-.2h.2a.2.2 0 000-.1h.1a.3.3 0 010-.1h.1V37h.1v-.1h.2v-.2a.3.3 0 000 .1h.2a.2.2 0 010 .1h.2-.1V36.6a.2.2 0 010-.1h.2v-.2h.4v-.1h.2v-.1h-.2a.8.8 0 010-.2h.1v-.1h.2a.5.5 0 010-.1h.1v-.3h.2v-.1h.3a.2.2 0 010-.1h-.1V35h.2v-.1-.2h.4a.9.9 0 000-.1v-.1H922.4v-.3h.2v.4h.1a.8.8 0 000-.1.7.7 0 010-.2h.2V34h.4v-.2h-.1v-.3h.2v.1H923.6v-.2h.1v-.1a2 2 0 000 .2h.2v-.1h.2v-.1.2h.2v-.2h.1V33h.2a1.2 1.2 0 010-.1h.1v-.2h.3v.2h.4v-.3-.1h.8a.1.1 0 000-.1h-.2v-.2h.1a.8.8 0 000 .1h.2a.8.8 0 010 .1h.2a.3.3 0 000-.1h1.1v.7h.4-.1a.8.8 0 000 .1h1.2v.2h-.1v.1a.3.3 0 010-.1h.4-.1a.3.3 0 010 .2v-.1h.1v-.2h.2a.3.3 0 000 .1v.2H930.1a.9.9 0 010 .1h.1a.1.1 0 000 .1h.1a.7.7 0 01.2 0h.4v.2h.3v.2h.6v.1h.4v.2h.2v.1h.1v.2H933v-.1h.2-.1a.2.2 0 010 .2h.2a.2.2 0 010 .1h.4v.1h-.1a.1.1 0 010 .1v.1h.3v.1h.4v.2h.3a.2.2 0 000 .1h.1v.1a.3.3 0 000 .1h.2v.1h.1v.1h.1v.1h.1a1.3 1.3 0 01.3 0 1 1 0 010 .2.2.2 0 000 .1h.4v.2a.2.2 0 000-.1h.4V36.9H936a.2.2 0 010 .1h.3a.1.1 0 000 .1h.1v.2h.1v.2H936.8v.2h.2a.1.1 0 000 .1h.2a.2.2 0 010 .2h.1a.8.8 0 010 .1h.2v.1h.2v.1h.1v.1h.2v.2a.1.1 0 000 .1h.1a.2.2 0 010 .2h.1v.1h.2v.2h.1v.1h.2v.2h.1v.1h.2a.2.2 0 010 .1v.2a.2.2 0 010 .1h.2v.2h-.1a.2.2 0 010-.1h-.1a.8.8 0 010 .1h.2v.2H939.4a1.4 1.4 0 000 .3h-.4a.2.2 0 000 .2h.2a.8.8 0 010 .2.2.2 0 010 .2h-.4a.2.2 0 010 .1h-.2l.4.1h.2a.2.2 0 000-.1H939.5h-.2a.2.2 0 000 .1h-.2v.1h.1a2 2 0 000 .2h.1v.2h-.2H939.4a.2.2 0 010 .2h-.2.3a.1.1 0 010 .1h.1v.2h.1v-.1.1h.3v.2a.2.2 0 010 .1 1 1 0 01.3 0 .2.2 0 000 .2h.5l.6.1.5.1a.1.1 0 000 .1h.8a.3.3 0 010 .2v.2h-.2v-.1h-.6v-.2h-.5l-.5-.2h-.5v-.2h-.5v-.1h-.5a.2.2 0 010-.1l-.6-.1-.4-.2V44h-.7a.2.2 0 010-.1l-.6-.1a.2.2 0 010-.1l-.8-.1h-.3l-1.1-.2h.7-.1a.3.3 0 000-.2H936V43h.8V43h.1a2 2 0 000-.2h.2v.2h.1v-.1a.5.5 0 00.2 0h-.3a.2.2 0 010-.2h-.4v.1h-.2a.9.9 0 010-.2h-.2a.2.2 0 000 .1h-.4v.1h-.2a.2.2 0 000-.2h.2v-.1h.1v.1h.4v-.1h.5-.3v-.1h-.1a.3.3 0 000-.1H936.3a.2.2 0 000 .2h-.1v-.1h.2v-.1h-.9v-.2h-.7.2a.8.8 0 000-.2h-.4a.2.2 0 010 .1v-.1h-.2a.8.8 0 010 .1h-.1v-.2h-.2.1v.2h-.1a.2.2 0 010-.1.6.6 0 00-.2 0h-.2v.1h-.5v.1h-.2a.2.2 0 000 .1h-.2a.3.3 0 000 .1h.1v.2h-.1v.2h-.2v.2h-.2a.3.3 0 010 .1h-.4v.2h-.3V43h-.7v.1h-.4v.1h-.6a.2.2 0 000 .1 1 1 0 00-.2 0v.1h-.7a.5.5 0 01-.2 0l-.8-.1V43h-.5v-.1l-.3-.1h-.3v-.1h-.3v-.2a1 1 0 000-.2h.2a.2.2 0 000-.1.8.8 0 010-.2h-.2v-.1h-.7a.2.2 0 010-.1v-.2h-.3a.1.1 0 010-.1h-.3a.3.3 0 000-.1h-.2a.2.2 0 010-.2H924.6a.1.1 0 010-.2h-.2a.2.2 0 000-.1v-.1h-.2v-.1a1.6 1.6 0 000-.2h-.2v.2h-.2v-.2H923.4a.2.2 0 010-.1h-.1v-.3H923a.1.1 0 000-.1.8.8 0 010 .1h-.2.1v-.2a.3.3 0 01-.2 0 .3.3 0 000-.1h-.3v-.2H922.1v.1h-.2.1a.2.2 0 010 .1h-.4.1a.3.3 0 000-.2h-.4a.2.2 0 010-.2h-.2a.2.2 0 000 .1h-.2a1.5 1.5 0 01-.3 0h-.7v.2h-.1a.2.2 0 000-.1h-.2a.3.3 0 010-.1h.1V39h-.5v-.3h-.4v.1h.3a.8.8 0 000 .2H918.9v-.3h-.1v-.2-.2h-.1.1a1.9 1.9 0 010-.3h.2a.5.5 0 000-.1h-.1a.2.2 0 010 .1h-.2a.3.3 0 000-.2m1.6-1.5h.2-.2M923 34h.1m.6-.5a.3.3 0 000 .1m.5-.2v.1m1-.6h.1a.3.3 0 010 .1h-.1m4 .2v.1m9.8-7.3h.1m.3 16a.3.3 0 010 .2V42m.1.4zm.2 1a.2.2 0 010 .1m.4.3v.1h-.4a.2.2 0 000-.1h.3m.8-16h.1a.3.3 0 000-.1h.2v.4h-.2V28v-.1m.3.3h.2-.2m-4 19.6a.9.9 0 010 .2h-.1v-.2m-1.2-2.3v.2h-.1v-.2h.1M934 43.8l1.4.1a2.8 2.8 0 01.5 0h.2v.1h.5l.8.2h.5a.1.1 0 000 .1h.7a.3.3 0 000 .2h.5a.1.1 0 000 .1h.6v.2h.4a1 1 0 000 .2h-.2v.1h-.2v.2h-.1v.1h-.2v.1h.1a.7.7 0 000 .1h-.2a2 2 0 000 .1H938a.2.2 0 010-.2h-.5v-.2h-.5V45h-.3a2.1 2.1 0 01-.4-.1h-.3v-.2h-.8v-.2h-.4a.2.2 0 010-.1h-.6a.2.2 0 000-.1h-.2a.2.2 0 010-.1h-.1v-.1h.1V44m0-1.7v-.1h.1v.2h-.1m0 0a.2.2 0 010 .1m-.5 0a.3.3 0 000-.1h.1m0 1.4a.8.8 0 000 .1.9.9 0 010-.1m-1 2.3v.1h-.2V46h-.1V46h.2M932 46a.2.2 0 000-.1h.1-.1M931 45v.4h.4a.1.1 0 010 .1h.2a.2.2 0 010 .1h.1v.4h.8v.2h1.1-.1V46h-.2v-.3-.3h.4v.4h.2a.9.9 0 000 .2.3.3 0 010 .1.8.8 0 000 .2h.2a.8.8 0 010 .2h.2v.1H935.8a.2.2 0 000-.1.2.2 0 010-.1h.2a.3.3 0 000-.2h.2v-.1h.1V46h.2a.2.2 0 000 .2v.1a1 1 0 010 .4v.2h.2l.4.1v.2a.4.4 0 00-.1 0V47.6h-.1a.2.2 0 010-.1h-.4.1a.2.2 0 000 .1v.3a.3.3 0 01.2 0 .8.8 0 000 .1h.2v.2h.4a.3.3 0 00.2 0 .2.2 0 010 .2h.3v-.2h1.3-.2a.8.8 0 010 .1.2.2 0 000 .1h.3a.5.5 0 000 .2v.1h.6v.2h-.1v.2a.8.8 0 000 .2h-.2v.2h-.1v.1H939.2v.1h-.3a.1.1 0 000 .1h.2-.2v.2H936v.6l-2.1-.3-1-.2-.8-.1v-.1h-.6v-.2h-.4a.2.2 0 000-.1h-.1a.2.2 0 000-.2h-.2a.3.3 0 010-.1h-.1a.1.1 0 000-.2V49h-.1v-.2h-.1v-.3-.2h-.2V48h-.1V48a.8.8 0 010-.2h-.2a1 1 0 010-.2v-.2h-.1v-.5a.1.1 0 01-.2 0V46.5h.3v-.9h-.1v-.4-.6a.2.2 0 010-.1h.1v-.2h.2v-.1h.2a.3.3 0 010-.2h.7v.3h-.1l-.1.8m-5.4-2.5h.4a.3.3 0 010 .2h.2-1.1v-.2h-.3.8m-1-.1a.2.2 0 010-.1h.1m-.5 8.7h.1a.3.3 0 010-.2h.2a.3.3 0 000-.1h-.1a.2.2 0 010-.1h.4a.3.3 0 000 .2h-.1a.8.8 0 010 .1h-.1v.2h-.1v.1h-.1v.1h-.1v.2h-.2v-.1-.5h-.2l.1-.2h.1v-.2h.2m-1 6.5v.1m-.8-1.3h-.1.1m.5.2h-.1m0-.1h.1-.1m.3.1v.1h-.1V56v.1m.2 0V56m0 .5h.1m0-6a.2.2 0 010-.1m0 5.3a.2.2 0 010 .1h-.1M917.3 50.2h.1m0 .5h-.1.2m.1.9h-.1m0-.2h-.1v-.1h-.2a.2.2 0 000-.1H917.5v.2m8.6 10.3h.1m-1.5 1h.1m-.5.1v.2a1 1 0 000-.1m-.7-2.5v.1h-.1.1M923.2 60.4v-.2h.2v.1h-.2M922.2 57.5a.8.8 0 000-.1.8.8 0 000 .1m0 5.7a.9.9 0 000 .2.8.8 0 010-.2m-.3 0h.1m18.6-12.5v.2h-.2.2v.4a2.6 2.6 0 000 .4V53.2a.3.3 0 000 .1.9.9 0 010 .2.8.8 0 010 .2v.5a1 1 0 000 .2h-.1a.2.2 0 000 .2v.6l-.2.8v.3h-.1v.7h-.1v.5h-.1v.6l-.1.2h-.1v.4h-.1.1a1 1 0 010 .1.2.2 0 010 .1v.1h-.8v.7h-.2a1.1 1.1 0 000 .1h.1v.5h-.1v.5h-.1a1 1 0 010 .1v.2h-.2V61.4h-.5v1h-.2V62.7h-.1v.3a1.6 1.6 0 010 .2h-.2v.4h-.2v.2h-.3a.9.9 0 010 .2h-.2v.4h-.1a.8.8 0 000 .2 1 1 0 010 .1h-.2v.3h-.1v.3h-.4V65.7h-.2a.2.2 0 010 .2h-.1a1.9 1.9 0 000 .2h-.1a.2.2 0 000 .2h-.1v.1h-.1v.2h-.4v.1h-.1v.2h-.1v.1a1.1 1.1 0 000 .2h-.2a.1.1 0 000 .1h-.2a.2.2 0 010 .1h-.1v.2h-.4v.1h-.1v.2h-.2v.1h-.3a.2.2 0 000 .2h-.3v.1h-.1a.1.1 0 000 .1v.1h-.2a.1.1 0 000 .1h-.2v.1a.9.9 0 000 .2H932.1v.1h-.2v.2h-.3a.1.1 0 010 .1v.2h-.3a2 2 0 00-.2 0 .2.2 0 000 .1h-.2a.2.2 0 000 .1h-.5a.3.3 0 000 .1h-.1v.1h-.3a.1.1 0 010 .1h-.6v.2h-.3V70h-.2v.1h-.2V70h-.2a.2.2 0 010 .1.5.5 0 00-.3 0h-1.1a.2.2 0 000-.1H926.6a.3.3 0 000-.1h-.5a.2.2 0 010 .1h-.2a.3.3 0 000-.1v-.1h-.2a.3.3 0 000-.1h-.4v.2h-.1v-.1h-.2v-.1h-.1a.2.2 0 010-.2h-.2a.9.9 0 000-.1h-.1a1.1 1.1 0 000 .2v.2a.4.4 0 010-.1v-1.2h-.5v-.2l-.3-.1a.2.2 0 010-.1H923.5a.2.2 0 000-.1h-.1a.2.2 0 010-.1h-.3a.2.2 0 000-.2h-.1v-.1l-.2-.1a.8.8 0 000-.2h-.1a.2.2 0 010-.1h-.2a1.7 1.7 0 000 .2V67h-.3v-.1-.1h-.2a.2.2 0 000-.1v-.2h-.2v-.2H921.5v-.1h-.2v-.1h-.1a.2.2 0 000-.1h-.2a.8.8 0 010-.2v-.5h-.2V65v-.2a.2.2 0 000-.1v-.1h-.2v-.4h.1a.3.3 0 010-.1v-.1h.3V64v.2h.2V64a.2.2 0 000-.1h-.2v-.2h-.1a1 1 0 010-.2H921.1v.1h.4v.1h.2v-.3h.5v-.2h.1v.1h.5v-.1h-.1a.2.2 0 000-.1h.1a.3.3 0 010-.1H923.2v.2h.1a.1.1 0 010-.1h.3V63h.4v-.1h.5a.1.1 0 000-.2h-.1a.3.3 0 000-.1.2.2 0 010-.1h.5v.5h.2v-.2.2H925.4v0a.3.3 0 00.3 0 .6.6 0 000-.2h.3v.2h.2v-.2h.2v.2h.4v.2a.3.3 0 000-.1h.2a.8.8 0 010-.2h.5v-.1h.4v-.1h-.2v-.1h.5-.1a.1.1 0 010-.1V62.2h-.1.2V62h.2v-.3l-1.3-.2v.1h-1a.1.1 0 000-.1H925.9a.1.1 0 000 .1h-.4v-.1a1.4 1.4 0 01-.2 0v-.1h-.2a.2.2 0 000-.1h-.4V61H924.2v-.4h-.2a.3.3 0 000 .1h.1v.2h-.3v-.2h.1a.4.4 0 000-.1v-.2a.5.5 0 010-.1h.2v-.1-.1h.1V59.8h.2a.2.2 0 010-.1h.1v.4h.1v-.2H925a.8.8 0 010-.1h.2a.3.3 0 000-.1h.2a1 1 0 010 .2h.2a.2.2 0 010-.1v-.1h.2v.1-.1h.5a2 2 0 010 .2h.2a.3.3 0 000-.1h.1a.3.3 0 010-.1 1 1 0 010 .2h.2v.1h.4a.2.2 0 000-.2h.2v.1-.1h.5v.2h.7a.1.1 0 010 .1h.4a.2.2 0 000 .1H929.3v.1H930l1 .2.4.1a.2.2 0 000 .1H931.6v-.2-.1h-.2v-.1h-1V60h-.5V60h-.4v-.1h-.2v-.1h-.1a2.2 2.2 0 01-.5-.1.1.1 0 010-.1h-.4v-.1h-.3v-.2h-.3a.2.2 0 010-.1h-.4V59h-.3l-.5-.1a.2.2 0 000-.1h-.5v-.2h-.4v-.1h-.6v-.1h-.4a.3.3 0 010 .1h-.6v.1h-.1a2.3 2.3 0 010-.2h-.1V58H923.5v-.2h-.1v-.2H923v.2H922.7a.8.8 0 000-.2h.2-.3a.2.2 0 000-.2h-.1V57h-.2v.4h.1V57.7h.3-.2a.3.3 0 010 .1h-.2a.1.1 0 000-.1 1 1 0 010-.3h-.2a.2.2 0 000 .1h-.1a.3.3 0 010 .1v.3h-.1v-.3a.9.9 0 000 .2.7.7 0 01-.3 0h-.1v.1h-.2v.2h-.2a.3.3 0 010-.2h-.2v.2h-.2a.2.2 0 000-.1.1.1 0 010 .1h-.1a.8.8 0 000 .1h-.3a.2.2 0 000-.1 1 1 0 010-.2h-.4v-.2h-.1v-.4h-.2V57h-.1V57h-.1a.3.3 0 010 .1h-.2a2 2 0 010 .3v.2h-.1v.7h-.2a1.1 1.1 0 010 .1v.1h-.2a.8.8 0 000 .2v-.1h.1v.2a1 1 0 000 .2v-.2h-.2a.3.3 0 000-.1h-.3v-.2h.3a.3.3 0 000-.1V58h-.2a.7.7 0 010-.2.6.6 0 000-.1h-.2v-.2a1 1 0 000-.1h-.1a.2.2 0 010-.1V57a1 1 0 000-.2H917.8a.3.3 0 000-.2H918.2a.3.3 0 000-.1v-.3h-.2.1v-.1-.2h-.2v.1H917.6V56a.1.1 0 010-.1h.4v-.2h-.1.1-.2a.3.3 0 000-.2h-.2a.1.1 0 010-.1h.2a.2.2 0 010-.1h-.1v-.1-.2.2h.2V55h.1v-.4h-.2a.7.7 0 010-.2.2.2 0 010-.1V54h-.1v-.2h-.1V53.5h-.2v.1h-.2a.8.8 0 000-.2H917.6a.8.8 0 010-.2v-.1h.2a.1.1 0 000-.1h-.2v-.1h-.1v-.1h.1a.3.3 0 000-.1h.1v-.2h-.1v-.1a.7.7 0 00.2 0 .2.2 0 000-.1.3.3 0 000-.1h.3V52h-.2a.6.6 0 000-.2V51h-.2v-.2a.3.3 0 000-.1h-.1a.2.2 0 000-.1h-.2.2a.2.2 0 000-.2v-.1a.9.9 0 01-.2 0V50v-.2h-.1v-.1a.2.2 0 000-.1h-.2v-.2V49.3h-.2a.3.3 0 010-.1h-.1V49h-.2a.3.3 0 000 .1.7.7 0 01-.1 0V49v-.1a.8.8 0 010-.2v-.3H916a1.1 1.1 0 000-.1V48h.2v-.3h.3a.2.2 0 010 .1h.7v.2h.5l.5.1a.2.2 0 010 .1h.7a.2.2 0 000 .1h.2l3.2.4h.2a.2.2 0 010 .1h-.2a1 1 0 010 .2h-.1v.1h-.1v.2h-.3a.8.8 0 010 .1h.2v.2H921.5v.1h1v.2h.5v.1a.3.3 0 000 .1h.2v.7h-.1v.1a3 3 0 000 .4h-.2a.3.3 0 010 .1.1.1 0 01.1 0 .3.3 0 010 .2h-.2.1a.3.3 0 010 .1v.4H922.5v.7h-.2v.3h-.4a1 1 0 000 .2 2 2 0 000 .3v.1h-.1a.3.3 0 010 .1V54.8h-.3v.3h-.1a.2.2 0 010 .2h.3a.1.1 0 000 .1h.2v.2h-.1a.2.2 0 010 .1h.2v-.2.2h.2a.9.9 0 010 .2h.1a.3.3 0 000 .1h.3v.1h.1v.2-.4h.2v.2h.5a.3.3 0 010 .1.3.3 0 010 .2.7.7 0 010 .1h.1a.3.3 0 000 .2H923.2v.1h-.3a.3.3 0 000 .1v.1h.6v-.2h-.2V56.5v-.3h-.2.2V56h-.1V56a1.6 1.6 0 010-.3h.2v.1a.3.3 0 000 .1V56.5h.2a.8.8 0 010-.2h.2v-.1h.2V55.9h.2a1 1 0 000 .1V56h.2a2 2 0 010-.3h.2a.7.7 0 010-.2h.2a.2.2 0 010-.2.5.5 0 00.2 0v-.1a.3.3 0 010-.1h.3v-.2h.1v-.1h.1a.3.3 0 010-.1h.4v-.2h.1a.3.3 0 000-.1H926.4a.3.3 0 000-.2H926.7a.3.3 0 010 .1h.4a.2.2 0 000 .1h.2a.8.8 0 010-.1V54v.6a1 1 0 000-.2.7.7 0 010-.1h.6a.1.1 0 000-.2h.3a.8.8 0 010-.2h-.1a1.3 1.3 0 01-.4-.1v-.1h-.2v-.2h.1a.3.3 0 000-.1h.4v-.1h.1V53h.1V53h-.2v-.1a.8.8 0 01-.3-.1H927.4v-.2H926.8a.2.2 0 000-.1h-.3v-.1h-.3a.3.3 0 010-.1h-.1a.2.2 0 000-.1h-.2V52h.1a.7.7 0 000-.2h-.2v-.2h-.1v-.2h-.2v-.1h-.1a.3.3 0 000-.1 3.1 3.1 0 010-.6h.1v-.1h.1v-.2h.2V50h.2v-.8a1.9 1.9 0 000-.3V49v-.4h.2a.8.8 0 000-.1h-.1.1v-.2V47.6a2.5 2.5 0 00.1-.5l.2-.8.1-.6h.4v-.3-.2h.2V45h.2a.3.3 0 010-.1h.3v-.1h.7a.5.5 0 01.2 0 .1.1 0 010 .2h.2a.2.2 0 010 .1h.2v.4h.2v.5h.2v.4h.1V47h.2v.7h.2v.4h.1v.2a.8.8 0 000 .2h.2a.9.9 0 010 .1h-.2a.8.8 0 000 .2h.1v.2h.1a.8.8 0 010 .2h.2a.1.1 0 000 .1v.1h.1a.8.8 0 010 .2h.1a.8.8 0 010 .2h.2a.8.8 0 000 .2h.1a.3.3 0 000 .1h.1V50a.4.4 0 000-.2 2 2 0 010-.2h-.1a.2.2 0 000-.1h.5v.1h.2v.1h.4v.1h.3v.1h.4a.2.2 0 010 .1h.6v.2l1.3.1a3 3 0 01.6.2H936.6l1 .1h.5v-.1H939.3a.2.2 0 000-.1h.4v-.1h.3V50h.2V50h.1v-.2.2h.2m-1.2 8a.2.2 0 010-.1M931.9 71.2V71m-.1 0a.2.2 0 010 .1h-.2.2m-1.8.9v-.1h.2v.1h-.2m-.1-.2v.1h-.2zm-.1 0h-.2a.8.8 0 010-.1.1.1 0 010-.1h.2v.2m-.5.5h.2-.2m-.7-.5h-.2a.7.7 0 01.2 0m.6.3a.3.3 0 000 .2.2.2 0 010-.1h-.2a.2.2 0 010 .1h-.6a.2.2 0 000-.1h.5V72h.3m-1 .6v-.1h.1a.8.8 0 000 .1m-.5 0v-.1h.2v.2l-.5-.1h.1a.2.2 0 000-.2v.1h.2m-1.1 1h.1-.1m-.2.5v-.1M931.9 73.3v.4a.8.8 0 010 .2H931.5a.3.3 0 010 .1v.3h-.4a.3.3 0 000 .1h-.1a.2.2 0 010 .1h-.1a.2.2 0 000 .1H930.7a.2.2 0 000 .1h.2a.2.2 0 000 .1.8.8 0 000 .2.1.1 0 010-.1h.2a.2.2 0 010-.1h.3v-.2.2a.1.1 0 000 .1h-.1V75.1h-.1v.1h-.2v.2h-.4v.1h-.2a.2.2 0 000 .1h-.1v.2a.4.4 0 01.2 0h.3a.2.2 0 000-.1h.4a.3.3 0 010-.1h.2V75.9h-.2v.2h-.2a.2.2 0 000 .1.3.3 0 010 .1h-.2v.2-.1h.2V76.7h-.3a1.8 1.8 0 000 .2h.1v.1h-.1v.1a.1.1 0 00-.1 0v.3h-.2a.8.8 0 000 .1h.1v.1a.2.2 0 000 .2h-.6v.2a.8.8 0 010 .1h-.1a.2.2 0 010 .1h-.8a.9.9 0 000 .2h-.2a.2.2 0 000 .1v.2h-.1v.1h-.4v.3H927.7v.2H927.4a.2.2 0 000 .1h-.3a.3.3 0 000 .1h-.1a.2.2 0 010 .1h-.5.2v.2h-.2a.3.3 0 000-.1h-.2a.2.2 0 010 .1h-.2a.2.2 0 000-.1h.1a1.1 1.1 0 000-.2h.2-.1a.2.2 0 000-.2V79H926V79.3h-1.3V79H925.3a.2.2 0 010-.1.2.2 0 000-.1H925v-.3h.2v-.1h-.4.1a.1.1 0 010-.2h-.3a.2.2 0 000-.1.3.3 0 01-.2 0V78a.1.1 0 010-.2h.2a.2.2 0 010 .1h.4a.3.3 0 010-.1h-.4v-.3a.1.1 0 010-.1.3.3 0 010-.1H924.2v-.2-.1h.2a.2.2 0 000-.2h.3a.5.5 0 000-.2h.2v.2h.2v-.7h.5a.2.2 0 000 .1H926a.1.1 0 010-.1h-.2V76h.7v-.2h-1a.1.1 0 010-.1h.5v-.1h-.4v-.2h.6-.4a1 1 0 010-.2h-.4V75v-.2l.6.1h.3v-.1h-.2a.9.9 0 000-.2h.2v-.1a4 4 0 00-.4-.1.3.3 0 000-.2h.7-.4V74h.3a.3.3 0 010-.1h.2v-.2-.1h.1a.2.2 0 000-.2h-.2a.2.2 0 000-.1H926.3 927v-.2h.3V73a.4.4 0 00.2 0h.3V73h.5a.2.2 0 000-.1h.3v-.1H928.9a.2.2 0 010-.2h.1a.8.8 0 000-.1h.4a.1.1 0 010-.2h.2a.2.2 0 010-.1h.2V72h.2V72h.1a.2.2 0 010-.1H930.4a.3.3 0 010-.1.2.2 0 010-.1h.8v-.2h.2a.1.1 0 010-.1h.2v.2h-.2v.2h-.2.3a.2.2 0 000-.1h.1a1.3 1.3 0 010 .3h-.2v.2h-.1a.1.1 0 000 .1v.2H931.7v-.1h.1a.8.8 0 010 .2.2.2 0 010-.1h.2v-.1h.1a.1.1 0 010 .1h-.1v.1h-.1v.4h.1v-.2h.2v.3m-5.3 7.4h.3-.1v.3h-.5v-.2-.2h.1a.7.7 0 01.2 0v.1m-2 .2v.1h-.1v-.1h.1m.4-1h-.2m1-.8a.2.2 0 010-.1.3.3 0 010-.1h.2a.8.8 0 000 .1h-.2m.1 1h-.1m0 .6a.3.3 0 010-.1h.2-.1M926 79.5h-.4v-.1h.4m-.5.4h.2v.1h-.2v.1h-.4v-.2h.4m-1-1v-.1m.1-.3h-.1V78h.1zm.1.6h-.2v-.1a.9.9 0 01.2 0m-.3 1a.8.8 0 000-.2h.4-.1v.2h-.2a.3.3 0 010-.1M924.3 79.9v.1h-.1V80H923.9h.1a.2.2 0 010-.1H924.3m-.8-11.8a.8.8 0 000-.1v.1m-1.3-1.1v-.1m-.1.2a.4.4 0 010-.1v.1h-.1m-.3-.4a.2.2 0 010-.1m7.4 17v.2h-.1a.3.3 0 000 .1.4.4 0 010 .2h-.2v.3h-.1v.2h-.1a.2.2 0 000 .2h-.4v.1h-.4a.1.1 0 000 .1h-.4v.1h-.8a.2.2 0 010 .1h-.3a.2.2 0 000 .1.8.8 0 00-.2 0h-.2v.2h-.1v-.1h-.4a1.4 1.4 0 01-.4 0 .1.1 0 010 .1h-1.1a.2.2 0 000-.1h-.2a.1.1 0 000-.2h-.2a.2.2 0 010-.1h-.2a.3.3 0 000-.1h-.2a.2.2 0 000-.1h-.1v-.1h-.2v-.2H922.5a.2.2 0 010-.1h-.2a.8.8 0 010-.2h-.2V84h-.1V83.7h-.2a.2.2 0 000-.2h-.2a.2.2 0 000-.1H921.2a.3.3 0 000-.2h-.2v-.1a.3.3 0 000-.1H920.8a.1.1 0 000-.2h-.2v-.2h-.2v-.2h-.1a.4.4 0 010-.2h.1v-.1h-.1V81H921a.1.1 0 010-.1.3.3 0 010-.1h.1a.1.1 0 000-.1h.8v-.2h.2a.9.9 0 010-.2h.7v-.1H923.3v.3a2 2 0 00.3 0v-.2h-.2a.3.3 0 000-.1h-.1V80l.8.2H924.5v.1h.2V80h-.2a.8.8 0 000-.2h.4v.2h.2v-.2h.4v.2h.4v.1h-.5V80.4h-.1v.1h-.2a.8.8 0 000 .1h-.4a.2.2 0 000 .1h-.1a.3.3 0 010 .1h-.1a.2.2 0 000 .2h-.3v-.1h-.3.1v.1h.2-.1.5a.2.2 0 010 .1h.8a.8.8 0 000-.1 1.1 1.1 0 000-.2 1 1 0 000-.2.3.3 0 000-.1h-.1v.4h-.2v-.3h.1a.3.3 0 000-.1h.1v-.2h.2a1.1 1.1 0 010 .2H926.3v.2h.2v.2h.3l.4.1v-.1h-.1a.3.3 0 000-.1h-.1v.2h-.2v-.1h.5a.9.9 0 000 .2h.4a2 2 0 010 .2h.2a1.7 1.7 0 000-.3h.2v.1h.2a.7.7 0 01.1 0H929h-.1v.2h-.2a.1.1 0 000 .1h.3v.2a1 1 0 000 .1v.2h-.2a1.8 1.8 0 000 .2s.2.1.2 0h.1V82.7h.1a1 1 0 000 .2h-.2a1 1 0 000 .2h.2a.7.7 0 000 .1m-2.8 3.8v-.1h.1v.1m1 .5H926.8v.8h.5a.2.2 0 000 .2h-.1v.1h-.2a.2.2 0 010-.1h-.3a3 3 0 000 .3h-.1v-.3h-.1v-.4h-.2V88h-.1v-.6h.4a.1.1 0 010-.1h.6v-.1h.2zm-1.7-.2h-.3a.8.8 0 010-.2h.3a.2.2 0 010 .2m-5.1-24h-.2.1m1-1a.1.1 0 000 .1h-.2.1m-.3-2v-.2h.2v.2a.7.7 0 01-.2 0m-1.2-2.5h.2v.2h-.1V58M920.1 62v-.1h-.1v-.2h-.2v-.2h-.2v-.3-.2h-.1a.3.3 0 010-.1V60.6v-.2h-.2a2 2 0 010-.2h.1a.3.3 0 010-.2V60a.7.7 0 010-.2v-.2h.2a.1.1 0 010-.1h.3-.2v-.2h-.1V59h.1a.5.5 0 000-.2h-.1a1.3 1.3 0 010-.2h.2v-.2h.3a.2.2 0 000-.1V58h.1a.1.1 0 010 .1v.2h.3v.3H920.3v.2h-.1v.1h.4a.2.2 0 010 .2v.2h.1v.2h.4a.8.8 0 000 .2h.1v.2h-.2v.1h.2v.3h.1a1 1 0 010 .2v.2h.2v.3h.1a.3.3 0 000 .1h-.2.2a.2.2 0 000 .2v.2h-.3a.8.8 0 010 .1h.1a.2.2 0 010 .1h.1v.1H921.2v.2H920.6v-.3H920.3m-1.4-3.4h-.1m-.1.5v-.1zm-.7-3.2h-.2.2m25.3-24.2a.1.1 0 01.1 0 .2.2 0 010 .2v-.2m.4 1.4h.1v.1zm.1 1h.1m.2.7v-.2a.7.7 0 01.2 0 1.7 1.7 0 000 .3h-.2a.2.2 0 010-.1m0-.4h.2-.2m.3.7h-.2.2m0 .4h-.2v-.1h.1zm0 .1h-.2.2M947 41a.2.2 0 010 .1m.1.2h-.1m.1 0v.1m.7 2a.8.8 0 000 .2zm.2 2h.1-.1zm0-.6h.1-.1m0 8.4a.2.2 0 010-.1zm.1-1.2v.1zm0-1.7v.1zm0-1v.1a.6.6 0 000-.1m.1-1.8h.1v-.1h.1v.1h-.2m-38.7 34.9c6.8 3 17.6 6.7 17.6 6.7l26.4-11a1 1 0 00-.3-.1H952.6v-.1h-.5l-.4-.1a.1.1 0 010-.1h-.7-.2c-.2 0 0 0 0 0a.8.8 0 00-.2 0V77h-.4a.1.1 0 00-.1 0H949.8l-.3-.1h-.5v-.7h-.4l-.2-.1h-.2-.1c-.1 0 0 0 0-.1h-.1v-.1h-.2a.2.2 0 000-.1h-.2a.1.1 0 010-.1h-.1-.2c-.2 0 0 0 0 0h-.1a.1.1 0 000-.1H946.9v-.1h-.2-.1a.1.1 0 000-.1h-.3v-.1H946a.1.1 0 010-.1V75H945.3l-.2-.1h-.1-.2c-.2 0 0 0 0 0a.8.8 0 00-.2-.1v-.1h-.2a1.7 1.7 0 01-.2-.1 1.4 1.4 0 00-.4-.1H943.6h-.1a.1.1 0 000-.1h-.1a1.8 1.8 0 00-.3 0v-.1h-.1v-.1h-.1a.1.1 0 000-.1h-.2a.3.3 0 000-.2h-.1v-.2h-.2v-.1-.2a1.5 1.5 0 010-.2V73v-.7-.5l.2-1.9a.9.9 0 010-.2v-.5h.4v-.1-.2h.1v-.2h.1a.3.3 0 010-.2h.1v-.2a.1.1 0 00.1 0v-.2a2.1 2.1 0 000-.3v-.1a.3.3 0 000-.2 1.1 1.1 0 010-.2v-.1h.1l.1-.3v-.1-.1-.4-.3h.1a2.2 2.2 0 010-.3v-.2h1.3a1.8 1.8 0 010-.2 1.1 1.1 0 010-.2V65h.1v-.1l.1-.3a1.1 1.1 0 010-.2v-.3a1 1 0 010-.2v-.3h.1a1 1 0 00.1-.4.5.5 0 010-.1v-.3-.3-.4h.1a.8.8 0 000-.1.1.1 0 00.1 0 .3.3 0 000-.1v-.7h.1V58.9a.8.8 0 000-.3h.1a.3.3 0 000-.1.2.2 0 000-.1.8.8 0 010-.2h1.2a1.5 1.5 0 010-.2 3.1 3.1 0 010-.3.6.6 0 000-.1v-.3-.1h.1a1.1 1.1 0 010-.2 1 1 0 000-.1v-.2h-.1.1a1.3 1.3 0 010-.4V56a.5.5 0 010-.1v-1-.2-.1-.2h.1V54v-.2l.1-.4v-.1-.4c0-.2 0 0 0 0v-.3c0-.1.1 0 0 0v-.2h.1l.2-1.3h-.3V51H947.6a.6.6 0 010-.2v-.1h-.2.1v-.2a1.1 1.1 0 000-.2v-.5h-.1a.2.2 0 010-.1h.1v-.4h-.1.1a.2.2 0 010-.1h-.1a1.1 1.1 0 000-.2h.1a.3.3 0 010-.2 2.6 2.6 0 000-.3v-.2-.8h-.1a1.6 1.6 0 000-.2v-.1h-.1a.5.5 0 000-.3h-.2v-.1h.1a.2.2 0 000-.1.8.8 0 000-.2h-.1v-.1-.2-.4h-.2a.6.6 0 000-.2h.1V45h-.1a.8.8 0 000-.2v-.2-.3a.3.3 0 010-.2h-.2V44v-.2h-.2v-.2a.3.3 0 00.2 0v-.2h1.3v-.1h-.4v-.1h.1v-.4a.9.9 0 000-.2h-.2a.8.8 0 010 .2h.1a.2.2 0 000 .2h-.2V42.8h-.2a.7.7 0 010-.1v-.1h-.2v-.3h-.1.1v-.3a.3.3 0 010-.2V42h.2v-.2-.2h.1a.1.1 0 000-.1h-.3a.2.2 0 010-.1h.2-.1v-.2h-.2a.2.2 0 000-.1v-.3h.1a1 1 0 010 .2h-.2l.1-.5h-.2v.2h-.1a.9.9 0 010-.2h-.2a.1.1 0 000-.2v-.1h-.1a.1.1 0 000-.2.3.3 0 000-.1v-.1h-.2v-.1h-.1v-.5a.2.2 0 010-.1h-.2a.8.8 0 010-.2h-.1a.3.3 0 010-.2h-.1v-.1H945.2v-.1h-.2v-.2h-.2v-.2h-.1.2a.3.3 0 010-.2h-.1v.2H944.6v-.4H944.3V37h-.1v-.2h-.2a.8.8 0 010-.1v-.3a.9.9 0 000-.2V36h.2a.2.2 0 010 .1h.1v.1h.2a.1.1 0 000 .1.2.2 0 000 .1h.2v.1h.1v.2h.2a.2.2 0 000 .1h.2a.2.2 0 010 .2h.1a.2.2 0 010 .1v.1h.3a.2.2 0 000 .1.3.3 0 010 .1h.1v.2h.2v.1h.1v-.2a.1.1 0 000-.2h-.1v-.1-.1h-.1v-.2h-.1a.2.2 0 000-.1.2.2 0 000-.1.8.8 0 010-.2V36h-.7a.6.6 0 000-.3v-.4-.5h-.1v-.3-.3a.3.3 0 000-.1.8.8 0 000-.3v-.1h-.1v-.1-.1a.8.8 0 000-.2h-.1a.2.2 0 000-.1h-.1V33a.8.8 0 010-.2h-.1v-.2a.8.8 0 010-.2h-.1a.5.5 0 000-.2.8.8 0 000-.2v-.1-.1a.2.2 0 000-.2h-.1a.2.2 0 000-.1v-.1a.2.2 0 000-.2h-.1V31 31v-.2h-.2v-.5h-.1V30l-.9-.1a.1.1 0 000-.2v-.1-.1h-.1v-.1-.1a.1.1 0 000-.1h-.1V29h-.1V28.8h-.1-.1c-.1 0 0-.1 0-.2h-.5v-.1c-.2 0 0 0-.2-.2V28 28h-.1v-.2h-.1a.1.1 0 000-.1h-.1v-.1a.1.1 0 000-.1.2.2 0 010-.2h-.1a.8.8 0 010-.2.1.1 0 000-.1.1.1 0 000-.1.2.2 0 000-.1.4.4 0 000-.1.7.7 0 010-.2h-.1v-.1h-.1V26a.1.1 0 000-.1v-.1h-.1a.2.2 0 000-.1v-.1h-.2a.2.2 0 010-.1h-.1a.1.1 0 010-.1H940.5a.1.1 0 010-.1l-.2-.1h-.5V25h-.1V25H939.4a2.1 2.1 0 00-.2-.1h-.2v-.1a.1.1 0 00-.1 0V24H938.6v-.1h-.1l-.3-.1v-.2h-.2-.1v-.1h-.2a.3.3 0 00-.1 0 .9.9 0 00-.2-.1h-.1-.1a2.1 2.1 0 01-.2-.1.8.8 0 00-.3-.1h-.2l-.3-.1H935.9V23h-1l-.4-.1c-.1 0 0 0 0 0h-.5v-.1h-.4l-.8-.2h-.8V22h-.4l-2.1-.3h-.8a.1.1 0 000 .1H927v.2h-.2a1 1 0 00-.3 0 1 1 0 01-.2 0v.1H926 924.7v.1h-.3a1.3 1.3 0 00-.4 0 1 1 0 01-.2 0v.1h-1v.1h-.1c-.1 0 0 0 0 0a.1.1 0 00-.2 0H922.2v.6a.8.8 0 01-.3 0v.1h-.2v.1h-.1a.3.3 0 000 .1h-.2v.1l-.1.2c-.1.1 0 0-.1 0v.2h-.4v.2h-.1l-.1.2h-.1-.1-.1v.2h-.1v.6h-.1a.2.2 0 00-.2 0v.1h-.1v.2c0 .1 0 0-.1 0h-.1v.2c-.2 0 0 0-.2.2a1.4 1.4 0 000 .1V26.1h-.2v.2a1 1 0 010 .2.1.1 0 00-.1 0v.2c0 .1-.1 0-.2 0v.1c0 .1 0 0 0 0h-.1V27.2h-.1V27.4h-.2a1 1 0 010 .2v.1H917a1.7 1.7 0 010 .2v.2h-.1a1.4 1.4 0 000 .2v.1a.3.3 0 010 .1v.1c0 .1 0 0-.1 0v.1h-.1v.3h-.1v.1a.1.1 0 00-.1 0v.1h-.5V29.5l-.1.2v.2a.2.2 0 000 .1v.2a.3.3 0 010 .1v.2h-.1V30.8a1.2 1.2 0 000 .1.3.3 0 000 .1v.1l-.1.3h-.1c-.1 0 0 0 0 .1h-.1v.1a.1.1 0 010 .1h-.2a.7.7 0 010 .1v.2h-.2a.2.2 0 000 .1h-.1v.1h-1a.8.8 0 01-.2 0v.1l-.1.2h-.1v.2h-.2v.4h-.4a.3.3 0 010 .2l-.1.1c-.1.1 0 0-.1 0v.2a.3.3 0 010 .1h-.2v.4h-.1a.3.3 0 000 .1h-.5V34.5h-.1v.4h-.1a.3.3 0 000 .2h-.1v.2h-.1v.2h-.1c-.1 0 0 0 0 0v.2h-.2v.4a.1.1 0 00-.2 0V36.4h-.1v.2h-1a.6.6 0 000 .2V37.1h-.1v.4h-.1v.2h-.1v.5h-.1v.2l-.1.2v.2l-.1.1a.3.3 0 010 .1v.2h-.1a.9.9 0 000 .2l-.1.5a1 1 0 010 .2l-.1.5v.2l-.1.4v.3a.4.4 0 000 .2l-.1.4v.2a3.4 3.4 0 00-.1.6l-.1 1.3-.4 2.7v.6l-.2 1.7h-.1v.6a.3.3 0 000 .1v.3a.3.3 0 000 .1v1.1a2.1 2.1 0 000 .3v.9h.1v.4a1.8 1.8 0 000 .4V53.7h.1v.2a1.1 1.1 0 000 .1v2.1l-.1.8V58.9a1.1 1.1 0 010 .2v1.1H907v.8a1 1 0 010 .3v.4h.1v.3a.3.3 0 000 .1.8.8 0 000 .3v.5c0 .1 0 0 .1 0v.2h.1a.3.3 0 000 .1v.2h.1a.8.8 0 010 .2.6.6 0 010 .2V64.1h.1a.2.2 0 000 .1v.1h.1a.2.2 0 000 .1.8.8 0 010 .2.3.3 0 000 .2.6.6 0 000 .2v.1h.1v.8a1.8 1.8 0 000 .3.9.9 0 010 .2h.1a.3.3 0 000 .1v.3a.7.7 0 000 .2h.1a.3.3 0 000 .2.3.3 0 000 .2h1.1v.6a.5.5 0 010 .3h.1v.4h.1V69.3a.2.2 0 00-.1 0v.1h-.1c-.1 0 0 0 0 0h-.5v.1h-.2a.1.1 0 010 .1h-.5v.4h-1.2a.6.6 0 00-.2 0h-.2v.1h-.1a.1.1 0 00-.1 0h-.1a.2.2 0 00-.2 0 .1.1 0 000 .1.2.2 0 00-.1 0h-.2a.1.1 0 010 .1.7.7 0 01-.2 0h-.2a.3.3 0 00-.3 0v.1h-.3a.3.3 0 00-.2 0v.6h-.7v.1h-.5-.2c-.1 0 0 0 0 0h-.5v.1h-.7-.1a.1.1 0 000 .2h-.5H899.8a.1.1 0 000 .1.4.4 0 00-.2 0h-.2a1 1 0 01-.2 0v.1a.3.3 0 00-.1 0h-.2a.1.1 0 010 .1 35 35 0 0010.8 9.8"/><path class="cls-5" d="M947.9 43a.2.2 0 000-.1h-.1M947.4 41.7a.2.2 0 010-.1h-.1v.1h.1M946 38h-.1M947.5 42.3v-.1.1M947.4 41v-.1h-.1M947.5 42.5h.2-.2M947.4 41.8v.2h.2a.1.1 0 010 .1h.1v-.2h-.3M922 45.4v.1M946.2 39.2a.1.1 0 000-.1M946.6 40h.2v-.1h-.2v-.3l-.1.5a.3.3 0 010-.1M925 80.4h-.2a1 1 0 010 .1h.2a.8.8 0 000-.1M923.5 80.8v-.1a.3.3 0 01-.1 0v.1M920.5 59.4v-.1-.1h-.1a.2.2 0 000 .2h.1M920.2 59.3h.1M924.3 80.4h-.1.1M924.1 80.4h-.2.2M925.8 80.8h-.1M921.8 48.3h.1-.1M923 45.8h-.2.2M923 45.7a.2.2 0 000 .1M922.7 45.7h-.1M922.2 45.5h-.1a1 1 0 010-.1v.3h.1zM923 45.2v.1h-.2v-.1H922.5a2 2 0 000 .3v.1H922.7v-.2.2h.2a.2.2 0 010-.1.2.2 0 000-.1.2.2 0 010-.1M922.2 45.3h.1a.3.3 0 000 .2.8.8 0 010-.2zM922.8 48.3h.3-.3M922.4 50.2h-.1.1M921.4 49.6h-.2v.1h.2M921.2 50.4v-.1M920.4 57.5h-.1.1v-.1M920.7 57.6h-.2.1v.1h.1v-.1M921.6 56.9h.1M921.7 56a.9.9 0 010 .1v-.2M920 57.2h.1M921.2 56.4a.3.3 0 010 .1M918 53.3a.7.7 0 000-.1M918.6 55.5h.1v-.1h-.1M918.4 53.4a.8.8 0 010 .2v-.2M917.8 51v-.1M917.8 50h-.1v.2zM918 54.4h.1a.2.2 0 010-.1M918.4 55.9h.3a.2.2 0 000-.1h-.3M918.5 56.3v.1zM918.6 56.5v.3a.8.8 0 000-.2v-.1M918.6 54.7v.1l.1-.5a1 1 0 000-.1.2.2 0 010-.1V54h-.4v.1h.1v.2h-.2v.2h.1v.1a1 1 0 000 .2h.3v-.1M918.6 55.3h-.1M935.8 37.4v.2a.9.9 0 010-.2M921.7 56.2h.1a.1.1 0 000-.1M935.3 42h-.2.2M935 37.2h.3-.2M935.5 48.5h.2-.4v-.2a.1.1 0 000 .1h-.2.3M933.2 47a1 1 0 010 .2.2.2 0 000 .1h.2v.1h.1a.3.3 0 01.1 0v.1h.2a.3.3 0 000 .1.8.8 0 01.2 0 .1.1 0 000 .1h.2v.1H934.5v.1h.2v.1h.3a.2.2 0 010 .1h.2-.1a.1.1 0 000-.1h-.2v-.2h-.2v0h-.3a.2.2 0 000-.1h-.2a.2.2 0 000-.2h-.5a.2.2 0 000-.1H933.3a.3.3 0 010-.2h-.2M936.8 47.7v-.2.1h-.1v.1zM936.3 47.8h-.1M922.5 35h.1v-.2h-.1v.2M922.9 57.3h.1M923.7 57.9v-.2zM923.7 57h.1M939.4 44.3h.1v-.1h-.1M923.8 56.8h.1M930.3 53.3h-.1a.3.3 0 000-.1V53h-.2a.2.2 0 000-.1h-.4v-.1h-.5a.2.2 0 000 .1.5.5 0 00-.1 0h-.4v.1h-.1v.1h-.2.2v.1l.3.1h.2a.3.3 0 010 .2h.2v.1h.2v.5h.1v.2h-.2a.3.3 0 000 .2h-.1v.1h.2a.2.2 0 000 .2h.4a.2.2 0 010-.1h.2v-.2a1.1 1.1 0 010-.1v-.2h.2a.2.2 0 010-.1v-.7-.3M939.3 43.9a.2.2 0 000-.1.8.8 0 000 .1M924.1 60.4h.1M922.1 66.7a.2.2 0 010-.1M918 53.9v-.1h-.1.1M921.6 50h-.1M925 33.6v.1M930.8 74.8h-.1M924.2 40.1zM932.7 42.1v0M925.3 33.4h-.1a.2.2 0 000 .1M926.8 33.1v.1M924.9 77.1h-.2.2M930 75.8h.1-.1M926.5 79v-.2zM926.5 74.8h-.2.2M926.1 75.7h.2-.2M929.8 76v-.1M933.1 42H933.4v-.1h.1a.1.1 0 010-.1h.1-.4a.3.3 0 010 .2h-.1v.1M927 73.7a1 1 0 000 .2v-.2M930.3 74.8a.1.1 0 010-.1M930.1 74.8h-.2a.2.2 0 000 .2h-.1.2a.2.2 0 010-.1h.2v-.1h-.1M927.9 78.8v-.1M927 73.9v.1h.1a.1.1 0 000-.1M930.4 72.4h-.2a.3.3 0 000 .1H930.5v-.2h-.1M922 57.2h.2-.1M933.8 41.7zM918.6 55.6h-.1.1M926 75.2h-.1.2zM922.1 50h.1-.2a.2.2 0 000 .1h.1M921.9 50h-.2.2M922.7 50.1a.7.7 0 010 .2.8.8 0 000-.2M924.7 63.5h.1a.2.2 0 010-.1h-.2a.8.8 0 010 .1h.1M921.6 54.7h-.2a.1.1 0 00.2 0M937.6 42.7v-.2.2M937.9 42.9v.1-.1M937.6 42.9h.1a.3.3 0 000-.1M938.3 43v-.1M938.3 43.2h.1M938.1 42.8h-.2a.3.3 0 010 .1h.2zM922.5 57.6h.1v-.1M938.2 43"/><path class="cls-4" d="M955.5 68.8l3.3 2.8-4-2-1 1.2 4.8 4 .8-.8-3.4-3 4 2 1-1.1-4.7-4.1zm2.1-3l1 .7.7-1.2 1.4.8-.7 1.1 1 .6.6-1 1.1.6-.7 1.1 1 .6 1.4-2.2-5.4-3.3zm4.3-7a1 1 0 00-.5 0 1.2 1.2 0 00-.4.5 3.8 3.8 0 00-.4.6 3.5 3.5 0 00-.2.7 1.2 1.2 0 000 .6 1 1 0 00.3.4 2 2 0 00.6.4l4.6 1.9.5-1.2-4.4-1.8a.7.7 0 01-.4-.3.4.4 0 010-.3.4.4 0 01.2-.2.9.9 0 01.5.1l4.4 1.8.4-1.2-4.5-1.8a2 2 0 00-.7-.2m2.8-4l2.8 1-3-.4zm-2-.8l1 .4-.3.9-1.1-.2-.3 1.3 6.3.4.4-1.6-5.8-2.5zm4.5-5l1.3.1v.3a.3.3 0 01-.2.3 1 1 0 01-.5 0 1 1 0 01-.5-.1.3.3 0 01-.1-.3zm-3.8-.3l2.7.2v.3c0 .3-.2.4-.4.4l-2.1-.1a.4.4 0 00-.3 0v1.3a.3.3 0 01.1 0h1.9a1.8 1.8 0 00.9 0 .8.8 0 00.4-.6 1 1 0 000 .4.8.8 0 00.3.2 1 1 0 00.5.2h.8a1.8 1.8 0 00.6 0 .9.9 0 00.4-.2 1.2 1.2 0 00.3-.5 3.4 3.4 0 000-.7l.2-1.7-6.2-.4zm5-6l-5.1.3v1.3l5.2-.4v1l1.2-.1-.3-3.2-1.1.1zm-1-5.7l.1.3v.3a1.1 1.1 0 01-.5.2 1 1 0 01-.5 0 .3.3 0 01-.2-.2v-.3zm-5 1.1l2.7-.6v.4c.1.2 0 .4-.2.4l-2 .5a.7.7 0 00-.3.1l.3 1.3a.4.4 0 01.2-.1l.5-.1 1.3-.3a1.6 1.6 0 00.8-.4.8.8 0 00.2-.7.9.9 0 00.2.4.7.7 0 00.3.1 1 1 0 00.3 0 1.4 1.4 0 00.3 0l.7-.1a1.9 1.9 0 00.6-.3.9.9 0 00.3-.4 1.1 1.1 0 00.1-.5 3.6 3.6 0 00-.1-.7l-.4-1.6-6 1.4zm-1-3.5l1.1-.4-.5-1.2 1.4-.6.5 1.2 1-.4-.4-1.2 1.2-.5.5 1.3 1-.4-1-2.5-5.7 2.3zm-2.4-5.3l6-2.2-.7-1.1-4.5 2 4-3-.7-1.2-5 4.1zM957.9 19l.8-.8-2.2-2.2-.8.8.7.7-3.7 3.6 1 .9 3.6-3.6zm-6.2-3.8l.8-1 1 .8.8-.9-2.1-1.6-3.8 5 1 .8 1.6-2.1 1 .7.7-.9zm-4-4.1l1.2.6.6-1-2.3-1.3-3 5.5 1 .6 1.4-2.3 1.1.6.6-1-1.2-.6zm-5.5-2.7l-.8 2.9-.5-.2 1.3-2.7zm-3.6 4.2l1.3.5.5-1 .8.3-.2 1.1 1.2.5 1.2-6.3-1.6-.6zM936 8.1l-.7-.2.4-2.4-1.2-.2-1.2 6.1 1.2.3.6-2.7.7.1-.5 2.7 1.2.2 1.2-6.1-1.2-.2zm-6.4-3.4a1.8 1.8 0 00-1.3.3 1.5 1.5 0 00-.4 1.2l-.1 3.5a1.6 1.6 0 00.3 1.1 2.4 2.4 0 002.5.1 1.5 1.5 0 00.4-1V8.6h-1.3V10a.3.3 0 010 .2.5.5 0 01-.3 0 .3.3 0 01-.3 0 .5.5 0 010-.4V6.3a.5.5 0 01.2-.3.3.3 0 01.2 0 .4.4 0 01.2 0 .2.2 0 01.1.2v1h1.3v-1a1.5 1.5 0 00-.3-1 1.8 1.8 0 00-1.2-.5m-4.5 4a2 2 0 00-.4-.5 2.7 2.7 0 00-.6-.4l-.5-.3a2 2 0 01-.4-.4.7.7 0 01-.2-.4.7.7 0 010-.4.3.3 0 01.3-.2c.2 0 .3.2.4.5V7l1.3-.2v-.5a1.5 1.5 0 00-.6-1.1 1.9 1.9 0 00-1.2-.2 2.7 2.7 0 00-.8.2 1.2 1.2 0 00-.5.3 1.1 1.1 0 00-.2.5 3 3 0 000 .8 2.4 2.4 0 00.3.8 2 2 0 00.4.6 2.5 2.5 0 00.5.4l.6.3a1.8 1.8 0 01.4.3 1 1 0 01.2.6.7.7 0 010 .4.3.3 0 01-.3.1c-.2 0-.3-.1-.4-.5v-.4l-1.3.2.1.6a2.4 2.4 0 00.2.7 1 1 0 00.3.4 1.2 1.2 0 00.6.2 3.2 3.2 0 00.7 0 3 3 0 00.8-.2 1.1 1.1 0 00.5-.3 1.2 1.2 0 00.2-.6 3.2 3.2 0 000-.8 2.3 2.3 0 00-.3-.9m-10 3.6l-1.8-4.8-1.2.5 2.2 5.8 2.5-.9-.4-1zm-4.7 2.2l-.7-1.4 1.1-.6-.6-1-1 .6-.7-1.1 1.2-.7-.6-1-2.3 1.3 3 5.5 2.3-1.3-.5-1zm-6.2.9l.6.9.3-.3.9 1.1a.4.4 0 010 .3.6.6 0 01-.4.3l-.2-.1-2.2-2.9a.4.4 0 010-.2.4.4 0 01.1-.3.4.4 0 01.3 0 .4.4 0 01.2 0l.2.4 1-.8-.2-.3a2.3 2.3 0 00-.5-.5 1 1 0 00-.5-.2 1.2 1.2 0 00-.6.2 2.8 2.8 0 00-.6.4 1.8 1.8 0 00-.8 1 1.5 1.5 0 00.4 1l2.3 3a1.2 1.2 0 00.8.6 1.3 1.3 0 001-.3 1.6 1.6 0 00.2-.2.8.8 0 00.1-.3.6.6 0 00.1-.3 1.7 1.7 0 000-.3l.4.3.7-.5-2.3-3zm-2.5 5.7l-1-1.1.8-1-.8-.7-.9 1-1-1 1-1-.8-.8-1.8 2 4.5 4.3 1.8-2-.8-.7zm-7.4 1l5 3.8.7-1-5-3.8zm3 5.4a3.3 3.3 0 00-.7-.5 2.3 2.3 0 00-.8-.3 2.1 2.1 0 00-.7 0 2.6 2.6 0 00-.7.2 5.4 5.4 0 01-.5.2 2 2 0 01-.5.2.8.8 0 01-.5-.1.7.7 0 01-.3-.3.3.3 0 010-.3c0-.2.3-.2.6 0l.3.1.6-1-.4-.3a1.5 1.5 0 00-1.2-.2 1.9 1.9 0 00-1 .9 2.5 2.5 0 00-.2.7 1.2 1.2 0 000 .6 1 1 0 00.3.4 3 3 0 00.6.5 2.4 2.4 0 00.8.3 2.8 2.8 0 00.7 0 3 3 0 00.6-.2l.6-.3a2.1 2.1 0 01.5-.1 1 1 0 01.6.1.7.7 0 01.3.3.3.3 0 010 .3c-.1.2-.3.2-.7 0l-.3-.1-.7 1 .6.4a2.5 2.5 0 00.6.2 1 1 0 00.6 0 1 1 0 00.4-.3 3.9 3.9 0 00.5-.6 3.3 3.3 0 00.3-.7 1.1 1.1 0 000-.6 1.1 1.1 0 00-.3-.5m-9.2 10.1a2.8 2.8 0 00.7.3 2.3 2.3 0 00.9 0 2.4 2.4 0 00.6-.1 2.6 2.6 0 00.6-.4l.5-.4a2.1 2.1 0 01.5-.2 1 1 0 01.5 0 .8.8 0 01.4.1.4.4 0 010 .4c0 .2-.3.3-.6.2l-.4-.1-.3 1.2.5.2a2.6 2.6 0 00.8 0 1 1 0 00.5-.1 1.2 1.2 0 00.3-.4 3 3 0 00.3-.8 3 3 0 00.1-.7 1 1 0 00-.1-.6 1 1 0 00-.5-.4 3 3 0 00-.7-.3 2.3 2.3 0 00-.9 0 2.4 2.4 0 00-.7.1 2.6 2.6 0 00-.5.4l-.5.4a2.4 2.4 0 01-.5.2.8.8 0 01-.5 0 .8.8 0 01-.3-.1.3.3 0 010-.3c0-.3.2-.4.5-.3l.4.1.3-1.2-.5-.1a1.4 1.4 0 00-1.2 0 1.9 1.9 0 00-.6 1.2 2.6 2.6 0 00-.2.7 1.3 1.3 0 00.2.6 1.1 1.1 0 00.4.4m5 3.6L892 41l-.1 1.4-1.6-.2.1-1.3-1-.1-.2 1.2-1.3-.1.2-1.4-1.2-.1-.3 2.6 6.3.7zm-5.1 8.3a2.2 2.2 0 00.8-.2 2.5 2.5 0 00.6-.4 3.3 3.3 0 00.4-.5l.4-.5a1.8 1.8 0 01.4-.3 1 1 0 01.5-.2.8.8 0 01.4 0 .4.4 0 01.2.3q0 .4-.5.4h-.5v1.3h.6a2.7 2.7 0 00.7-.1 1 1 0 00.5-.3 1 1 0 00.2-.5 3.4 3.4 0 000-.8 3.3 3.3 0 000-.8 1.1 1.1 0 00-.4-.5 1.2 1.2 0 00-.5-.2 4 4 0 00-.8 0 2.1 2.1 0 00-.9.1 2 2 0 00-.6.4 3 3 0 00-.4.5l-.4.5a1.9 1.9 0 01-.3.4.7.7 0 01-.5.2.7.7 0 01-.4-.1.3.3 0 01-.1-.3c0-.2.1-.3.5-.4h.3v-1.2h-.5a1.5 1.5 0 00-1.1.4 1.8 1.8 0 00-.3 1.3 2.8 2.8 0 000 .7 1.3 1.3 0 00.4.5 1 1 0 00.5.3 2.7 2.7 0 00.7 0m5 2l-1.1.2.2 1.3-1.5.3-.1-1.3-1.2.2.3 1.3-1.3.2-.2-1.3-1.1.2.4 2.6 6.2-1.2zm1.1 5l-6 2 .4 1.2 6-2zm-2.5 7.5l-.2-.2a.3.3 0 010-.3.8.8 0 01.4-.3l2.6-1.2a.8.8 0 01.4-.1.4.4 0 01.3.2v.2zm4.1-3a1 1 0 00-.4-.4 1 1 0 00-.6-.1 2.3 2.3 0 00-.7.2l-3 1.4a2 2 0 00-.6.4 1 1 0 00-.3.5 1.2 1.2 0 000 .6 4 4 0 00.3.7l.7 1.4 5.6-2.7-.6-1.4a3.3 3.3 0 00-.4-.7"/></g><path class="cls-2" d="M0 224h1024v128H0z"/><g class="cls-3"><path class="cls-2" d="M397.9 216.4L323 156.1l-4.5 2.7 77.2 62.1zm-.4-15.9l-47.3-38-4.5 2.6 49.6 39.9zm-81.3-35.8l-1.5 1.9a1.2 1.2 0 00.1 1.7l2 1.5a1.2 1.2 0 001.6-.2l1.6-1.9a1.2 1.2 0 00-.2-1.7l-2-1.5a1.2 1.2 0 00-1.6.2m-4-4.8l-1.9-1.5a1.2 1.2 0 00-1.7.2l-1.5 1.9a1.2 1.2 0 00.2 1.7l1.9 1.5a1.2 1.2 0 001.7-.2l1.5-1.9a1.2 1.2 0 00-.2-1.7m10.2 14.4l1.8 1.6a1.2 1.2 0 001.7-.2l1.6-2a1.2 1.2 0 00-.2-1.6l-2-1.6a1.2 1.2 0 00-1.6.2l-1.5 2a1.2 1.2 0 00.2 1.6m7.5 6.1l1.9 1.5a1.2 1.2 0 001.7-.1l1.5-2a1.2 1.2 0 00-.2-1.7l-1.8-1.5a1.2 1.2 0 00-1.7.2l-1.5 2a1.2 1.2 0 00.2 1.6m7.5 6.1l1.9 1.5a1.2 1.2 0 001.7-.2l1.5-1.9a1.2 1.2 0 00-.2-1.7l-1.9-1.5a1.2 1.2 0 00-1.7.2l-1.5 1.9a1.2 1.2 0 00.2 1.7m7.6 6l1.9 1.6a1.2 1.2 0 001.7-.2l1.5-1.9a1.2 1.2 0 00-.2-1.7l-2-1.5a1.2 1.2 0 00-1.6.2l-1.5 1.9a1.2 1.2 0 00.2 1.7m7.5 6l1.9 1.6a1.2 1.2 0 001.7-.2l1.5-2a1.2 1.2 0 00-.2-1.6l-1.9-1.5a1.2 1.2 0 00-1.7.2l-1.5 1.9a1.2 1.2 0 00.2 1.7m7.5 6l2 1.6a1.2 1.2 0 001.6-.2l1.5-1.9a1.2 1.2 0 00-.2-1.7l-1.8-1.5a1.2 1.2 0 00-1.7.2L360 203a1.2 1.2 0 00.2 1.7m7.5 6l2 1.6a1.2 1.2 0 001.6-.2l1.5-1.9a1.2 1.2 0 00-.2-1.7l-1.9-1.5a1.2 1.2 0 00-1.7.2l-1.5 1.9a1.2 1.2 0 00.2 1.7m7.5 6l2 1.6a1.2 1.2 0 001.6-.2l1.5-1.9a1.2 1.2 0 00-.2-1.7l-1.8-1.5a1.2 1.2 0 00-1.7.2l-1.6 1.9a1.2 1.2 0 00.2 1.7m7.6 6l1.9 1.6a1.2 1.2 0 001.7-.2l1.5-2a1.2 1.2 0 00-.2-1.6l-1.9-1.5a1.2 1.2 0 00-1.7.1l-1.5 2a1.2 1.2 0 00.2 1.6m20.5 7.3c-6.8 8.5-15.5 16.9-28.5 14a2.4 2.4 0 01-1-.4L289 175.4a2.4 2.4 0 01-.9-2l1.6-33a2.4 2.4 0 013.9-1.7l23.3 18.8 4.6-2.7a1.2 1.2 0 01.4-1.7l3.6-2.2a2.4 2.4 0 012.8.1l15.8 12.8 4.6-2.7a1.2 1.2 0 01.4-1.7l3.8-2.1a2.4 2.4 0 012.7.2l7.9 6.3 3.7-4.8a1.2 1.2 0 011.7-.2l1.9 1.5a1.2 1.2 0 01.2 1.7l-3.8 4.8 9.4 7.6 3.8-4.8a1.2 1.2 0 011.7-.2l1.9 1.6a1.2 1.2 0 01.2 1.7l-3.8 4.8 9.4 7.5 3.8-4.7a1.2 1.2 0 011.7-.2l1.9 1.5a1.2 1.2 0 01.2 1.8l-3.8 4.7 7.4 5.9a2.4 2.4 0 01.8 2.6l-1.3 4.2a1.2 1.2 0 01-1.4.8l-2.3 4.6 4.8 3.8a2.4 2.4 0 01.7 2.7l-1.4 4a1.2 1.2 0 01-1.4.9l-2.2 4.5 5.7 4.7a2.4 2.4 0 01.4 3.4M719.2 155.4a19.7 19.7 0 00-3.5-9.9s-4.4 10.9-12.8 16.2c0 0 1-4-1.6-12.6-2.6-9.2-.4-22-.4-22s-4.6 7.5-9.5 16c-1.2-2.6-2.2-4-2.1-3.4a10 10 0 01-1.8 7.6c-1.5 2.4-3.5 4.7-4.2 8.5a8.6 8.6 0 000 2.7c11.7 3.4 22.4 7 31 11l.1-.2.3-.7c.2-.6 5.1-6.2 4.5-13.2M618.5 163s-4.9 7.6 16.1 20.6 53.2 20.5 70.2 23 22.8-1.7 26.6-6.4c0 0-11.1 5.9-28.2 2.3-18-3.8-72.9-16-84.7-39.5m44.4 44.8l2.6.7a1.6 1.6 0 002-1l.5-1.8a1.6 1.6 0 00-1-2l-2.7-.8a1.6 1.6 0 00-2 1.2l-.5 1.7a1.6 1.6 0 001.1 2m13 3.7l2.6.8a1.6 1.6 0 002-1.1l.5-1.8a1.6 1.6 0 00-1-2l-2.7-.7a1.6 1.6 0 00-2 1l-.5 1.8a1.6 1.6 0 001.1 2m53.5-53.3c-1.1 5.9-9.3 10.5-13 12.3 14.1 7 22 15.4 18.8 26.8-4 14.3-20.4 15.3-42 11l-7.3 9.7a4.3 4.3 0 01-4.6 1.6l-24.5-7.1a4.3 4.3 0 01-3-3.8l-1-12-1.8-.7c-7-2.4-18.8-9.1-25.1-14.1l-4.7 5a1.9 1.9 0 01-1.9.6l-11-3.2a1.9 1.9 0 01-1.2-1.3 1.8 1.8 0 01.4-1.7l9-9.4c-1.8-3.2-2.5-6.4-1.7-9.2s3-5.1 6.4-6.9l-2.7-12.7a1.9 1.9 0 012.4-2.1l11 3.1a1.9 1.9 0 011.3 1.5l1.2 6.8c12-1.3 28.4.3 45.7 5.2-2.5-3.8-5.2-9-4.5-12.8 1.2-7 7-8.8 5.8-16 0-.7 1.5 1.6 3 5.6 10-24.1 30.3-30.1 30.3-30.1s-7 5.5-5.2 19.6a39.3 39.3 0 01-2.2 21.7c9-8.6 10.3-23.2 10.3-23.2 5.8 7.7 6.2 13.4 7.2 20.6 2.7-2.8 4.8-4.1 4.4-3.5-4 6.5 1.6 11.1.2 18.7M561.5 124.8s-12 11.9-24.3 3c-.2 0-21.4 15.8-36.8-2.6-.1 0-6 11.5-17.7 7 .3 0-16.3 13.8-27.6-6.7a17.6 17.6 0 00-.3 3 18.8 18.8 0 00.8 6.3c1.4 4.7 5.8 9.6 16 10-4.2.8 3.8 20.7 24 12.8 1 2.8 1.4 7.8 1.4 12.7 1.5-4 2.7-7.9 3.9-11.8l3.2 6.5 4-5.7 3.8 8c1.6-2.7 3-5.4 4.4-8q2.7 5.3 5.1 10.6c.6-4.2 1-8.4 1.3-12.6 0 0 17.3 8 24.8-11.3a19.4 19.4 0 009-2.9 12.5 12.5 0 005-6.3 15.6 15.6 0 001-5.2 26.7 26.7 0 00-1-6.8M478 185.6c0 1.2 7.5 4.4 18.2 6l-1-11c-10.2.9-17.2 2.8-17.2 5m61 0c0-2.2-6.6-4-16.3-5l-1 10.9c10.3-1.5 17.4-4.5 17.4-6m12.3-35s-8.3 18.2-26.9 12l-1 9.5c12.7 1.9 21.5 6.1 21.5 11 0 5.2-9.8 9.6-23.6 11.3l-2 23a10.6 10.6 0 0114 7 7.3 7.3 0 0111.7 2 9.3 9.3 0 11-3.7 9.9 7.4 7.4 0 01-9.4-3.3 10.6 10.6 0 01-19.4-5.8v-.7h-4.9a9 9 0 01-16.4 4.4 5.6 5.6 0 01-5.7 2.4 7.1 7.1 0 11-4-7.9 5.6 5.6 0 015-3.2 5.5 5.5 0 013.3 1.1 9 9 0 018.4-6.6l-2-22.2c-14.2-1.7-24.3-6.2-24.3-11.4 0-5 9.3-9.4 22.4-11.2l-.6-9s-22 6.2-27.1-12c0 0-27.4-5.8-12.3-32.6 0 0-5-29.7 29.5-28.2 0 0 25.7-24.3 52.7 2.6 0 0 25.2-3.3 25.5 23 0 0 18.2 28-11 34.8"/><path class="cls-4" d="M139.7 283.4a9.1 9.1 0 01-5.1 1.3h-2.4v-11h2.6c2.3 0 4 .3 5.1 1.1s1.6 2 1.6 4c0 2.3-.6 3.8-1.8 4.7m13.7 17.6l-3.1-.5a2 2 0 01-1.6-1l-2.8-7.3q-1.2-3.3-3-4.1 6.8-3 6.8-9.9a10.3 10.3 0 00-2.8-7.4q-2.8-2.9-9.2-2.8h-17.4v4l3.2.4a1 1 0 01.7.2 1.3 1.3 0 01.1.8v26.2a1.3 1.3 0 01-.1.8 1.1 1.1 0 01-.7.2l-3.2.4v4h16.3v-4l-3.6-.4c-.3 0-.6-.1-.7-.3a1.5 1.5 0 010-.7V290h2.3a3.2 3.2 0 012 .5 3.9 3.9 0 011 1.8l4.7 12.9h11.1zm-42.4-6.5l-.8 4.5c0 .4-.4.6-.8.6h-9.2v-10.3h12v-5.7h-12v-10h8a.8.8 0 011 .6l.6 3.9 5.7.2v-10.3H88v4l3.3.4a1 1 0 01.6.2 1.3 1.3 0 01.2.8v26.3a1.5 1.5 0 01-.2.8 1 1 0 01-.6.2l-3.3.4v4h28.4v-10.6zm-46.4 5h-3v-26h3.2q6.2 0 9 3t2.8 10q0 13.1-12 13.1M80.2 273q-4.5-4.7-14-4.7H49.7v4l3.2.4a.9.9 0 01.7.2 1.4 1.4 0 01.2.8v26.2a1.4 1.4 0 01-.2.8 1 1 0 01-.7.2l-3.2.4v4h15.7q9.7 0 14.5-5t4.8-14q0-8.7-4.5-13.4m364.3 10.7a9.2 9.2 0 01-5.1 1.2h-2.4v-11h2.6c2.3 0 4 .4 5.1 1.2s1.6 2 1.6 4c0 2.3-.6 3.8-1.8 4.6m13.7 17.7l-3.2-.5a2 2 0 01-1.5-1l-2.8-7.4q-1.2-3.3-3-4 6.7-3 6.7-10a10.2 10.2 0 00-2.7-7.3q-2.8-2.9-9.2-2.9H425v4l3.2.4a1 1 0 01.7.3 1.4 1.4 0 01.2.8v26.2a1.4 1.4 0 01-.2.8 1.1 1.1 0 01-.7.2l-3.2.4v4h16.3v-4l-3.6-.5c-.3 0-.6 0-.6-.2a1.5 1.5 0 01-.2-.8V290h2.4a3.2 3.2 0 012 .5 4 4 0 011 1.8l4.7 12.9h11.2zm-42.5-6.5l-.8 4.5c0 .4-.3.6-.8.6h-9.2v-10.4h12v-5.7h-12v-10h8a.8.8 0 011 .6l.7 3.9 5.6.2v-10.3h-27.3v4l3.2.4a1 1 0 01.7.2 1.4 1.4 0 01.2.8v26.3a1.4 1.4 0 01-.2.8 1 1 0 01-.6.2l-3.3.4v4h28.4v-10.6zm-46.4 5h-2.9v-26h3.2q6.2 0 9 3t2.8 10q0 13-12 13m15.6-26.8q-4.5-4.7-14-4.7h-16.5v4l3.2.4a1 1 0 01.7.2 1.4 1.4 0 01.1.8v26.2a1.3 1.3 0 01-.1.8 1 1 0 01-.7.2l-3.2.4v4H370q9.6 0 14.4-5t4.9-14q0-8.7-4.6-13.4m-37.2-.1l3.4-.4v-4.1h-14.2v4l3.2.4a1.1 1.1 0 01.7.3 1.4 1.4 0 01.1.8V295l-16-26.8h-12.8v4l3.2.3a1 1 0 01.7.3 1.4 1.4 0 01.2.8v26.3a1.4 1.4 0 01-.2.8 1 1 0 01-.7.2l-3.2.4v4h14.3v-4l-3.5-.4-.7-.2a1.6 1.6 0 010-.8v-21.4l16.3 26.7h8.4v-31.6a1.5 1.5 0 010-.8l.8-.2m-45 22l-.7 4.6c0 .3-.4.5-.8.5h-9.2v-10.3h12v-5.7h-12v-10h8a.8.8 0 01.9.6l.7 4 5.6.2V268h-27.2v4l3.2.4a1 1 0 01.7.2 1.4 1.4 0 01.1.8v26.3a1.4 1.4 0 01-.1.8 1 1 0 01-.7.3l-3.2.3v4h28.4v-10.5zm-32-.5l-.7 5c-.1.5-.4.6-.8.6h-9.2v-26.2a1.4 1.4 0 01.2-.7c0-.1.3-.2.7-.2l4.2-.4v-4h-17v4l3.1.3a1 1 0 01.7.2 1.4 1.4 0 01.2.8v26.3a1.3 1.3 0 01-.2.8 1 1 0 01-.7.2l-3.2.4v4h28.4v-11.1zm-49.7-4.2l4.7-13.9h.3l4.5 14zm22.6 10.8q-1-.3-1.2-.9L231 268.1h-9l-11.3 31.6a1.6 1.6 0 01-1.3 1l-2.2.6v4h14.3v-4l-4-.5 1.7-5.3H232l1.9 5.3-4.2.5v4h16.2v-4zm-40 0a1.8 1.8 0 01-1.5-.8L191.6 284l9.4-10.6a2.3 2.3 0 011.6-.9l2.1-.4v-4h-13.4v4l3.2.5-12.1 13.7v-12.8a1.5 1.5 0 01.1-.8s.3-.2.7-.2l3.4-.4v-4h-16.2v4l3.2.3a1 1 0 01.7.3 1.4 1.4 0 01.1.7v26.3a1.4 1.4 0 01-.1.8 1 1 0 01-.7.2l-3.2.4v4H187v-4l-4-.5a1 1 0 01-.7-.2 1.5 1.5 0 010-.8v-5.5l3.1-3.9 9.6 14.9h11.4v-4zM558.6 306.9a17.3 17.3 0 0010.4-2.7q4-2.8 4.1-8.7a11.7 11.7 0 00-.7-4.7 7.4 7.4 0 00-2.5-3.2 17.5 17.5 0 00-3.1-1.9 36.5 36.5 0 00-3.7-1.3 62 62 0 01-4.2-1.6 6.3 6.3 0 01-1.7-1 5.7 5.7 0 01-1-1.2 3.4 3.4 0 01-.4-1.8 3.9 3.9 0 011.5-3.1 6.7 6.7 0 014.3-1.1 12 12 0 013.7.6 1 1 0 01.6 1l.6 4.1 5.7.6.2-10a26.8 26.8 0 00-10.5-2.1q-6-.1-9.9 2.7t-3.9 8.5c0 4 1.4 6.8 4.3 8.6a33.7 33.7 0 006.8 2.6l2.5.9a10.4 10.4 0 011.9 1 4 4 0 011.4 1.5 4.3 4.3 0 01.4 2c0 3.1-2.2 4.7-6.5 4.6a17.5 17.5 0 01-4.2-.6 1 1 0 01-.9-1l-1-4.8-5.7-.1-.1 10a23 23 0 005 1.4 33.5 33.5 0 006.6.8M543 295.6l-5.5-.1-1 4.4c0 .4-.3.6-.7.6l-9.2-.2.2-10.2 12 .2v-5.7l-11.8-.2.2-10 8 .1a.8.8 0 01.8.7l.7 3.9 5.6.3.1-10.3-27-.4-.1 4 3.2.4a1 1 0 01.6.3 1.3 1.3 0 01.2.8l-.4 26a1.3 1.3 0 01-.2.9.9.9 0 01-.7.2l-3.2.3v4l28.2.5zm-51.8 4.1h-2.8l.4-25.9h3.2q6.1.2 8.8 3.2t2.6 10q-.2 13-12.1 12.8m15.1.6q4.9-5 5-13.8.2-8.6-4.3-13.3t-13.7-4.9l-16.5-.3v4l3.2.4a1 1 0 01.6.3 1.4 1.4 0 01.2.8l-.4 26a1.3 1.3 0 01-.2.8 1 1 0 01-.7.2l-3.2.3v4l15.6.3q9.5.2 14.4-4.9m414.8-8.7a7.4 7.4 0 00-2.6-3.2 16.9 16.9 0 00-3-1.8 36.4 36.4 0 00-3.8-1.3 62.7 62.7 0 01-4.2-1.5 6 6 0 01-1.8-1 5.7 5.7 0 01-1-1.3 3.5 3.5 0 01-.4-1.7 3.8 3.8 0 011.5-3.2 6.7 6.7 0 014.3-1.2 12.6 12.6 0 013.8.6 1.1 1.1 0 01.6 1l.6 4.2 5.8.5v-10a26.9 26.9 0 00-10.5-2q-6.2 0-10 2.8t-3.8 8.6q0 5.9 4.5 8.6a34.3 34.3 0 006.8 2.5l2.5.8a9.9 9.9 0 012 1 3.9 3.9 0 011.4 1.5 4.2 4.2 0 01.5 2c0 3.2-2.2 4.8-6.5 4.8a17.5 17.5 0 01-4.3-.6 1 1 0 01-.9-.9l-1-4.9H896v10a22.9 22.9 0 005 1.5 34.4 34.4 0 006.7.7q6.3 0 10.4-2.9t4-8.8a11.7 11.7 0 00-.8-4.7m-42.5-17.3l3.3.3a1 1 0 01.6.3 1.4 1.4 0 01.2.8V297l-16-26.9H854v4l3.2.4a1 1 0 01.7.2 1.4 1.4 0 01.2.9l-.1 26.3a1.4 1.4 0 01-.2.8 1 1 0 01-.6.2l-3.3.4v4h14.3v-4l-3.4-.5c-.4 0-.7 0-.7-.2a1.5 1.5 0 01-.2-.8l.1-21.3 16.3 26.8h8.4v-31.6a1.4 1.4 0 01.2-.8 1.1 1.1 0 01.7-.2l3.4-.4v-4.1H879zm-40.5 11.1a9.2 9.2 0 01-5.2 1.2h-2.3v-11h2.6a9.2 9.2 0 015.1 1.2c1 .7 1.6 2 1.6 4q0 3.4-1.9 4.6m9 16.2l-2.8-7.3c-.8-2.2-1.8-3.6-3-4.1q6.8-3 6.8-9.9a10.2 10.2 0 00-2.7-7.3q-2.8-3-9.2-3L819 270v4l3.3.4a1 1 0 01.6.2 1.4 1.4 0 01.2.8l-.1 26.2a1.4 1.4 0 01-.1.8 1 1 0 01-.7.2l-3.2.4v4l16.3.1V303l-3.6-.4c-.4 0-.6-.1-.7-.3a1.5 1.5 0 01-.1-.7v-9.7h2.4a3.1 3.1 0 012 .5 3.8 3.8 0 011 1.8l4.6 13H852V303l-3.2-.5a2 2 0 01-1.5-1m-38.6-.5c0 .4-.3.6-.8.6h-9.2v-10.3h12v-5.7h-12v-10.1h8a.8.8 0 01.9.7l.7 3.9 5.6.2V270l-27.2-.1v4l3.2.4a1 1 0 01.7.2 1.4 1.4 0 01.1.8v26.3a1.4 1.4 0 01-.2.8 1 1 0 01-.7.3l-3.2.3v4H815v-10.5h-5.6zm-58.1-20.6h5.6l.9-4.5c0-.3.3-.5.8-.5h5.3l-.1 26a1.3 1.3 0 01-.2.9 1 1 0 01-.6.2l-5.3.3v4l20.5.1v-4l-5.7-.4q-.5-.1-.7-.3a1.3 1.3 0 010-.7v-26.1h5.3c.4 0 .7.2.8.6l.8 4.4h5.6v-10.6h-33zm-20.1-6.6l3.7.4a1 1 0 01.7.2 1.4 1.4 0 01.1.8v26.2a1.3 1.3 0 01-.2.8 1 1 0 01-.6.3l-3.8.3v4h17.2v-4l-3.9-.4c-.4 0-.6 0-.7-.2a1.5 1.5 0 01-.1-.8v-26.2a1.4 1.4 0 01.2-.7 1 1 0 01.7-.2l4-.5v-4l-17.2-.1zm-10.1 27c-.1.3-.4.5-.9.5h-9.1V291h12v-5.7h-12v-10.1h8a.8.8 0 01.8.7l.7 3.9 5.7.2v-10.3l-27.3-.1v4l3.3.4a1 1 0 01.6.2 1.4 1.4 0 01.2.8l-.1 26.3a1.3 1.3 0 01-.2.8 1 1 0 01-.6.2l-3.3.4v4h28.4v-10.5H721zm-41.9-27.1l3.3.3a1 1 0 01.6.3 1.3 1.3 0 01.2.8v9.6h-14V275a1.3 1.3 0 01.1-.7 1 1 0 01.7-.3l3.4-.4v-4h-16.2v4l3.2.4a1 1 0 01.7.2 1.4 1.4 0 01.1.8v26.3a1.4 1.4 0 01-.2.8 1 1 0 01-.7.2l-3.2.4v4h16.3v-4l-3.5-.4q-.5 0-.7-.2a1.5 1.5 0 010-.8v-10.8h14v10.9a1.3 1.3 0 01-.2.7 1 1 0 01-.7.3l-3.2.3v4h16.2v-4l-3.5-.3c-.4 0-.6-.2-.7-.3a1.7 1.7 0 01-.1-.8v-26.2a1.5 1.5 0 01.2-.7c.1-.1.3-.2.7-.2l3.4-.4v-4.1h-16.1zm-52 .3q-5 5.2-5 13.8-.1 19.3 17.9 19.4 8.2 0 12.8-2.8v-9.5h-5.5l-.8 4.7a1.8 1.8 0 01-.3.8 1.2 1.2 0 01-.6.3 17.7 17.7 0 01-5.1.6 9.2 9.2 0 01-7.6-3.4q-2.7-3.4-2.7-10 0-6.5 2.9-9.8a9.7 9.7 0 017.8-3.4 14.9 14.9 0 014.6.7 1.1 1.1 0 01.8.9l.8 5 5.6.5v-10q-4.5-3-11.6-3-9.2 0-14.2 5.2m-11.8 13.5a17.4 17.4 0 00-3-1.8 37.3 37.3 0 00-3.8-1.3l-2.4-.8-1.8-.7a6.3 6.3 0 01-1.8-1 5.2 5.2 0 01-1-1.3 3.4 3.4 0 01-.4-1.8 3.9 3.9 0 011.4-3.1 6.8 6.8 0 014.3-1.2 12.6 12.6 0 013.7.6 1.1 1.1 0 01.7 1l.6 4.1 5.7.6v-10a26.8 26.8 0 00-10.4-2.1q-6.2 0-10 2.9t-3.9 8.6q0 5.9 4.5 8.5a33.4 33.4 0 006.8 2.6c1 .3 1.9.5 2.5.8a9.9 9.9 0 012 1 4 4 0 011.4 1.4 4.5 4.5 0 01.5 2q0 4.8-6.5 4.8a17.6 17.6 0 01-4.3-.6 1 1 0 01-.9-.9l-1-4.9h-5.7v10a22.8 22.8 0 005 1.5 34.5 34.5 0 006.7.7 17.4 17.4 0 0010.4-2.9q4-2.8 4-8.8a11.7 11.7 0 00-.8-4.6 7.3 7.3 0 00-2.6-3.3"/><path d="M911 311.3l1.7-11.7 19.3-14c14.6-10.5 20.8-14.7 21.9-21.9.7-4.7-1-8.4-7.8-9.4-7-1-10.2.8-11.5 9.8l-17-4.1c3.2-20 19-21 32.2-19 19.6 2.9 25.2 12.2 23.5 24s-11.2 18.5-21.7 26l-16.3 11.5 18.6 2.7c1.2.2 1.8 0 2.2-1.2l3.3-9.7 13.3 2-3.5 23.7z" fill="#8c1f52"/></g></g></g></svg>