
Open SVG
        Paste markup
        Demo
        Contribute
        About
        Powered by the incredible SVGO


        35.38k → 21.79k 61.59%
<svg xmlns="http://www.w3.org/2000/svg" viewBox="0 0 1002.7 1097.2"><defs/><defs><style>.cls-1,.cls-2{fill:#ce2e77}.cls-2{fill-rule:evenodd}.cls-3{fill:#fff}.cls-4{fill:#1a171b}</style></defs><g id="Layer_2" data-name="Layer 2"><g id="Layer_1_copy" data-name="Layer 1 copy"><path class="cls-1" d="M0 718.2h1002.2v379H0z"/><g id="g975"><path id="path901" class="cls-2" d="M359 739.1c-10 12.4-22.6 24.6-41.4 20.5a3.4 3.4 0 01-1.4-.7l-123.3-99.3a3.5 3.5 0 01-1.3-2.9l2.3-47.9a3.5 3.5 0 015.7-2.6l33.8 27.3 6.7-3.8a1.8 1.8 0 01.5-2.5l5.3-3.2a3.5 3.5 0 014 .2l23 18.5 6.6-3.9a1.8 1.8 0 01.6-2.4l5.5-3.2a3.5 3.5 0 014 .3l11.4 9.2 5.5-6.9a1.8 1.8 0 012.5-.3l2.7 2.2a1.8 1.8 0 01.3 2.5l-5.5 6.9 13.7 11 5.5-6.9a1.8 1.8 0 012.4-.2l2.8 2.2a1.8 1.8 0 01.3 2.4l-5.5 7 13.6 11 5.5-7a1.8 1.8 0 012.5-.2l2.8 2.2a1.8 1.8 0 01.2 2.4l-5.5 7 10.7 8.6a3.5 3.5 0 011.2 3.8l-2 6.1a1.8 1.8 0 01-2 1.2l-3.2 6.7 6.8 5.5a3.5 3.5 0 011.2 4l-2 5.8a1.8 1.8 0 01-2 1.1l-3.3 6.7 8.3 6.7a3.5 3.5 0 01.5 5m-29.9-10.5l2.8 2.2a1.8 1.8 0 002.5-.3l2.2-2.8a1.8 1.8 0 00-.3-2.4l-2.7-2.2a1.8 1.8 0 00-2.5.2l-2.2 2.8a1.8 1.8 0 00.3 2.5m-11-8.9l2.7 2.3a1.8 1.8 0 002.5-.3l2.2-2.8a1.8 1.8 0 00-.3-2.5l-2.7-2.2a1.8 1.8 0 00-2.5.3l-2.2 2.8a1.8 1.8 0 00.3 2.4m-11-8.8l2.7 2.2a1.8 1.8 0 002.5-.2l2.2-2.8a1.8 1.8 0 00-.3-2.5l-2.7-2.2a1.8 1.8 0 00-2.5.3l-2.2 2.7a1.8 1.8 0 00.3 2.5m-11-8.8l2.7 2.2a1.8 1.8 0 002.5-.3l2.2-2.7a1.8 1.8 0 00-.3-2.5l-2.7-2.2a1.8 1.8 0 00-2.5.3l-2.1 2.7a1.8 1.8 0 00.3 2.5m-11-8.9l2.7 2.3a1.8 1.8 0 002.5-.3l2.2-2.8a1.8 1.8 0 00-.2-2.5l-2.8-2.2a1.8 1.8 0 00-2.5.3L285 691a1.8 1.8 0 00.3 2.4m-11-8.8l2.7 2.2a1.8 1.8 0 002.5-.3l2.2-2.7a1.8 1.8 0 00-.2-2.5l-2.8-2.2a1.8 1.8 0 00-2.5.3L274 682a1.8 1.8 0 00.3 2.5m-11-8.8l2.8 2.2a1.8 1.8 0 002.4-.3l2.2-2.8a1.8 1.8 0 00-.2-2.4l-2.8-2.2a1.8 1.8 0 00-2.4.2l-2.3 2.8a1.8 1.8 0 00.3 2.5m-11-8.9l2.8 2.2a1.8 1.8 0 002.4-.2l2.2-2.8a1.8 1.8 0 00-.2-2.5l-2.8-2.2a1.8 1.8 0 00-2.4.3l-2.2 2.8a1.8 1.8 0 00.2 2.4m-11-8.8l2.8 2.2a1.8 1.8 0 002.5-.3l2.2-2.7a1.8 1.8 0 00-.3-2.5l-2.7-2.2a1.8 1.8 0 00-2.5.3l-2.2 2.7a1.8 1.8 0 00.3 2.5m-14.8-21l-2.7-2.1a1.8 1.8 0 00-2.5.2l-2.2 2.8a1.8 1.8 0 00.3 2.5l2.7 2.2a1.8 1.8 0 002.5-.3l2.2-2.8a1.8 1.8 0 00-.3-2.4m5.7 6.9l-2.2 2.7a1.8 1.8 0 00.3 2.5l2.8 2.2a1.8 1.8 0 002.4-.3l2.2-2.7a1.8 1.8 0 00-.2-2.5l-2.8-2.2a1.8 1.8 0 00-2.5.3m118 52l-68.5-55.2-6.6 3.8 72 58zm.7 23.1l-108.7-87.5-6.5 3.8 112 90.2z"/><path id="path905" class="cls-2" d="M794.9 620.9c-1.6 8.5-13.5 15.2-18.7 17.8 20.4 10 32 22.3 27.2 39-6 20.6-29.6 22.1-61.1 15.9l-10.5 14.1a6.2 6.2 0 01-6.7 2.3l-35.6-10.3a6.2 6.2 0 01-4.4-5.4l-1.4-17.6-2.6-1a158 158 0 01-36.4-20.5l-6.8 7.4a2.7 2.7 0 01-2.7.8l-16-4.6a2.7 2.7 0 01-1.2-4.5l13.1-13.6c-2.8-4.7-3.8-9.2-2.6-13.3s4.5-7.5 9.4-10l-3.9-18.5a2.7 2.7 0 013.4-3.1l16 4.6a2.7 2.7 0 012 2.1l1.7 9.9c17.5-2 41.2.5 66.3 7.5-3.6-5.5-7.5-13-6.6-18.6 1.7-10.2 10.2-12.7 8.5-23.2-.2-1 2.1 2.4 4.5 8.2 14.2-35 43.8-43.7 43.8-43.7s-10.1 8-7.6 28.5c2.6 20.7-3.2 31.5-3.2 31.5 13.2-12.5 15-33.7 15-33.7 8.5 11.2 9 19.5 10.4 29.9 4-4 7-6 6.5-5.1-5.8 9.4 2.3 16.2.2 27.2m-77.6 77.4l3.8 1.1a2.4 2.4 0 003-1.6l.7-2.6a2.4 2.4 0 00-1.6-3l-3.8-1a2.4 2.4 0 00-3 1.6l-.8 2.6a2.4 2.4 0 001.7 3m-18.9-5.5l3.8 1a2.4 2.4 0 003-1.5l.7-2.6a2.4 2.4 0 00-1.6-3l-3.8-1a2.4 2.4 0 00-3 1.6l-.7 2.5a2.4 2.4 0 001.6 3m-64.5-65s-7.1 11 23.4 29.8 77.2 29.8 102 33.3 33-2.4 38.5-9c0 0-16.1 8.3-41 3.2-26.1-5.5-105.6-23.2-122.8-57.4m146.2-11a28.5 28.5 0 00-5.1-14.3s-6.5 15.8-18.7 23.5c0 0 1.4-5.7-2.2-18.4-3.8-13.3-.6-31.8-.6-31.8s-6.7 10.7-13.8 23.1c-1.8-3.7-3.2-5.7-3-5 .7 5-.7 8.2-2.6 11.2-2.3 3.5-5.2 6.7-6.1 12.3a12.4 12.4 0 000 3.9c17 5 32.5 10 45 16l.2-.2.4-1c.3-1 7.4-9 6.5-19.3"/><path id="path903" class="cls-2" d="M543.2 609.6s-12 26.5-39 17.3l-1.4 14c18.3 2.7 31 8.8 31 16 0 7.5-14.2 13.9-34.2 16.4l-2.7 33.2a15.4 15.4 0 0120.1 10.3 10.7 10.7 0 0117.1 3 13.4 13.4 0 11-5.4 14.3 10.5 10.5 0 01-4.2.8 10.7 10.7 0 01-9.4-5.6 15.4 15.4 0 01-28.2-8.4v-1h-7a13.2 13.2 0 01-23.8 6.3 8.1 8.1 0 01-6.8 3.7 7.8 7.8 0 01-1.5-.1 10.3 10.3 0 11-5.9-11.5 8.1 8.1 0 0112.2-3 13.2 13.2 0 0112.1-9.7l-2.8-32.2c-20.6-2.4-35.3-8.9-35.3-16.6 0-7.3 13.5-13.5 32.6-16.2l-1-13s-32 9-39.3-17.3c0 0-39.8-8.6-17.8-47.5 0 0-7.2-43 42.9-40.9 0 0 37.2-35.3 76.4 3.9 0 0 36.6-4.8 37 33.2 0 0 26.4 40.7-15.9 50.6m-17.7 51c0-3.2-9.7-5.9-23.9-7.2l-1.5 15.8c15-2.2 25.4-6.5 25.4-8.6m-88.7 0c0 1.7 10.8 6.3 26.4 8.6l-1.4-16c-14.8 1.3-25 4.1-25 7.3M558 572.3s-17.4 17.3-35.3 4.3c-.2 0-31 23-53.4-3.8-.2 0-8.8 16.8-25.6 10.2.3 0-23.7 20-40.1-9.6a26.1 26.1 0 00-.5 4.2 27.4 27.4 0 001.2 9.2c2 6.9 8.4 14 23.1 14.6-6 1 5.6 30 34.8 18.4a63.4 63.4 0 012.1 18.6c2.2-5.7 4-11.4 5.6-17.2l4.7 9.4q3-4.1 5.8-8.3c2 3.9 3.8 7.8 5.6 11.6 2.2-3.8 4.2-7.7 6.3-11.6q4 7.7 7.4 15.4c.8-6 1.4-12.1 1.8-18.2.1 0 25.1 11.4 36-16.5a28 28 0 0013-4.1 18.2 18.2 0 007.5-9.2 22.7 22.7 0 001.2-7.5 38.4 38.4 0 00-1.3-9.9"/></g><g id="g1752"><path id="rect1388" class="cls-1" d="M281.2 21.7h552.5v83.2H281.2z"/><path id="rect1390" class="cls-1" d="M470.2 112.4h335.7v46.9H470.2z"/><path id="path1392" class="cls-3" d="M337.1 50.6l3.5.4a1 1 0 01.7.2 1.4 1.4 0 01.1.9v22.6l-17-28.5h-13.5v4.3l3.4.4a1.1 1.1 0 01.7.2 1.5 1.5 0 01.2.9v28a1.5 1.5 0 01-.2.8 1 1 0 01-.7.3l-3.4.3v4.3H326v-4.3l-3.6-.4c-.4 0-.7-.1-.8-.3a1.6 1.6 0 01-.1-.8V57.2l17.3 28.5h9V52a1.6 1.6 0 010-.8l.8-.3 3.6-.4v-4.4h-15zm18.6 0l4 .4a1 1 0 01.7.2 1.4 1.4 0 01.2.9v27.8a1.4 1.4 0 01-.2.9 1 1 0 01-.7.2l-4 .4v4.3H374v-4.3l-4.2-.4c-.4 0-.7-.1-.8-.3a1.6 1.6 0 010-.8V52.1a1.6 1.6 0 010-.8l.8-.3 4.2-.4v-4.4h-18.3zm47.7 27.7a1.7 1.7 0 01-.3.8 1.2 1.2 0 01-.7.3 18.5 18.5 0 01-5.4.7 9.7 9.7 0 01-8-3.6q-2.9-3.6-2.9-10.7 0-6.8 3-10.4a10.3 10.3 0 018.3-3.6 15.8 15.8 0 014.8.7 1.2 1.2 0 01.9 1l.9 5.3 6 .5V48.6q-4.8-3-12.4-3-9.8 0-15 5.5t-5.2 14.7q0 20.5 19 20.5 8.8 0 13.7-3V73.2h-5.9zm29.7-32.8q-9.4 0-14.4 5.8t-5 14.8q0 9.3 4.5 14.7t14.1 5.5q9.4 0 14.3-5.5t4.9-15.4q0-8.8-4.6-14.3T433 45.5m-.5 34.1q-10.3 0-10.3-13.7 0-6.8 2.9-10.1a9.7 9.7 0 017.8-3.4q9.9 0 9.9 13.4 0 13.8-10.2 13.8m58-14a18 18 0 00-3.3-2 41.3 41.3 0 00-4-1.4 64 64 0 01-4.5-1.5 6.7 6.7 0 01-1.9-1.1 5.8 5.8 0 01-1-1.4 3.7 3.7 0 01-.5-1.8 4.1 4.1 0 011.6-3.4 7 7 0 014.5-1.3 13.1 13.1 0 014 .6 1.2 1.2 0 01.7 1l.6 4.5 6.2.5V47.7a28.1 28.1 0 00-11.2-2.2q-6.5 0-10.5 3.1t-4 9.2q0 6.3 4.7 9a36.2 36.2 0 007.3 2.7l2.6.9a11 11 0 012.1 1 4 4 0 011.5 1.6 4.5 4.5 0 01.5 2.2q0 5-6.9 5a18.8 18.8 0 01-4.5-.6 1 1 0 01-1-1l-1-5.1h-6.1V84a24.6 24.6 0 005.4 1.5 37.1 37.1 0 007 .7q6.8 0 11-3t4.3-9.4a12.8 12.8 0 00-.9-5 7.9 7.9 0 00-2.7-3.4m37.8 9h-5.9l-.9 4.8q0 .6-.8.6h-9.7v-11h12.7v-6H511V52h8.5a.8.8 0 011 .7l.7 4.2 6 .2v-11h-28.9v4.3l3.4.4a1.1 1.1 0 01.7.3 1.4 1.4 0 01.2.8v28a1.4 1.4 0 01-.2.8 1 1 0 01-.7.2l-3.4.4v4.3h30zm20.5 7l-4.7-.5c-.4 0-.6-.1-.7-.3a1.6 1.6 0 01-.2-.8V59.2h.3l7.7 18.6h8.8l7.8-18.5h.2v20.6a1.5 1.5 0 01-.1.9 1 1 0 01-.7.2l-4.5.4v4.3h17.9v-4.3L577 81a1 1 0 01-.9-1V52a1.6 1.6 0 01.2-.8 1 1 0 01.7-.2l3.6-.5v-4.3h-14l-10 24.7h-.2L547 46.2h-14.5v4.3l3.4.4a1 1 0 01.7.3 1.6 1.6 0 01.2.8v28a1.5 1.5 0 01-.2.8 1 1 0 01-.7.2l-3.4.4v4.3H549zm63.8-7.5a12.8 12.8 0 00-.8-5 8 8 0 00-2.8-3.4 18.3 18.3 0 00-3.3-2 41.3 41.3 0 00-4-1.4 64 64 0 01-4.5-1.5 6.7 6.7 0 01-1.9-1 5.8 5.8 0 01-1-1.4 3.7 3.7 0 01-.5-1.9 4.1 4.1 0 011.6-3.4 7 7 0 014.5-1.3 13.1 13.1 0 014 .6 1.2 1.2 0 01.7 1l.7 4.5 6 .5V47.7a28.2 28.2 0 00-11-2.2q-6.6 0-10.6 3.1t-4 9.2q0 6.3 4.7 9a36.2 36.2 0 007.3 2.7l2.6.9a11 11 0 012.1 1 4.2 4.2 0 011.5 1.6 4.5 4.5 0 01.5 2.2q0 5-6.8 5a18.8 18.8 0 01-4.6-.6 1 1 0 01-1-1l-1-5.1H585V84a24.6 24.6 0 005.4 1.5 37 37 0 007 .7q6.8 0 11-3t4.3-9.4m21.4 7.4l-3.8-.4c-.4 0-.6-.1-.7-.2a1.6 1.6 0 01-.1-.9V69.5h2.5a3.4 3.4 0 012 .6 4.1 4.1 0 011.2 1.9l5 13.7H652v-4.4l-3.4-.5a2 2 0 01-1.6-1l-3-7.8q-1.3-3.5-3.2-4.4 7.2-3.1 7.2-10.4a10.8 10.8 0 00-3-7.9q-2.9-3-9.7-3H617v4.3l3.4.4a1 1 0 01.7.3 1.6 1.6 0 01.2.8v27.7a1.5 1.5 0 01-.2.9 1 1 0 01-.7.2l-3.4.4v4.4h17.3v-4.4zm-4.6-29h2.7q3.7 0 5.5 1.1c1 .8 1.7 2.2 1.7 4.3q0 3.6-2 5A9.7 9.7 0 01632 64h-2.5zm56.2-1.2q-4.6-5.5-13.8-5.5-9.3 0-14.4 5.7t-5 14.8q0 9.3 4.6 14.8t14 5.4q9.5 0 14.4-5.5t4.8-15.4q0-8.8-4.6-14.3m-14.2 28.5q-10.3 0-10.4-13.7 0-6.8 3-10.1a9.7 9.7 0 017.7-3.4q9.9 0 9.9 13.4 0 13.8-10.2 13.8m28.1-26.8q.2-.6 1-.6h5.5v27.7a1.5 1.5 0 01-.1.8 1.1 1.1 0 01-.8.3l-5.6.4v4.3h21.8v-4.3l-6-.5c-.4 0-.7 0-.8-.2a1.7 1.7 0 010-.8V52.2h5.5c.5 0 .8.2.9.6l.8 4.7h6V46.2h-35v11.3h6zm31-6.5v11.2h6l.8-4.7c0-.4.3-.6.8-.6h5.6v27.7a1.4 1.4 0 01-.1.8 1 1 0 01-.7.3l-5.6.4v4.3h21.7v-4.3l-6-.5c-.4 0-.6 0-.7-.2a1.5 1.5 0 01-.2-.8V52.2h5.6q.8 0 1 .6l.8 4.7h5.9V46.2zm-218 78.2h-12.3v2.9l2.3.3a.7.7 0 01.5.1 1 1 0 010 .6v18.5a1 1 0 010 .6.7.7 0 01-.5.2l-2.3.2v2.9h14.2v-2.9l-5.2-.3-.5-.1a1.2 1.2 0 010-.6V141h2.6q9.9 0 9.9-8.9a7.8 7.8 0 00-2-5.6c-1.4-1.4-3.6-2.1-6.7-2.1m2.5 10.5a3 3 0 01-1.2 1.4 5 5 0 01-1.5.6 8.9 8.9 0 01-1.9.2h-1.8v-8.7h2.2a6 6 0 013.5.8q1.2.9 1.2 3.3a6 6 0 01-.4 2.4m28.6 11.8l-2-5.1a5 5 0 00-2-3q4.7-2 4.7-7a7.2 7.2 0 00-2-5.2q-2-2-6.5-2h-12.3v2.9l2.3.2a.7.7 0 01.4.2 1 1 0 01.1.6v18.5a1 1 0 010 .6.8.8 0 01-.5.1l-2.3.3v2.9h11.5v-3l-2.5-.2c-.3 0-.4 0-.5-.2a1.2 1.2 0 010-.5V140h1.6a2.3 2.3 0 011.4.3 2.6 2.6 0 01.8 1.3l3.2 9.1h8v-2.9l-2.3-.3a1.4 1.4 0 01-1.1-.7m-6.4-11.5a6.5 6.5 0 01-3.6 1h-1.7v-7.9h1.8a6.5 6.5 0 013.6.8 3.2 3.2 0 011.2 2.9c0 1.6-.5 2.7-1.3 3.3m17.8-17.4a2.4 2.4 0 00-.7 1.9 2.5 2.5 0 00.7 1.8 2.9 2.9 0 003.8 0 2.7 2.7 0 000-3.7 2.9 2.9 0 00-3.8 0m16.8 28.9l-7.9-22.4h-6.4l-8 22.3a1.2 1.2 0 01-.8.7l-1.6.4v2.8h10V148l-2.8-.3 1.3-3.8h9l1.3 3.8-3 .3v2.8h11.4V148l-1.6-.4c-.5-.1-.8-.3-1-.6m-15-7l3.3-9.9h.2l3.3 9.9zm5.9-21.9a2.4 2.4 0 00-.7 1.9 2.4 2.4 0 00.7 1.8 2.9 2.9 0 003.7 0 2.7 2.7 0 000-3.7 2.9 2.9 0 00-3.7 0m29.5 19.3a11.9 11.9 0 00-2.2-1.3 24.4 24.4 0 00-2.7-.9 31.2 31.2 0 01-3-1 4.3 4.3 0 01-1.2-.7 4.2 4.2 0 01-.6-1 2.5 2.5 0 01-.4-1.2 2.7 2.7 0 011-2.2 4.7 4.7 0 013-.9 9 9 0 012.7.4.8.8 0 01.4.7l.4 3 4.1.3v-7a18.9 18.9 0 00-7.4-1.5 11.2 11.2 0 00-7 2 7.2 7.2 0 00-2.7 6.2 6.5 6.5 0 003.2 6 24.1 24.1 0 004.8 1.8l1.8.6a7.2 7.2 0 011.4.6 2.8 2.8 0 011 1.1 3.1 3.1 0 01.3 1.5q0 3.3-4.6 3.3a12.3 12.3 0 01-3-.4.7.7 0 01-.6-.6l-.7-3.5h-4v7.1a17 17 0 003.6 1 25 25 0 004.7.5 12.3 12.3 0 007.3-2q2.9-2 2.9-6.3a8.4 8.4 0 00-.6-3.3 5.2 5.2 0 00-1.8-2.3m20.7 9.2c0 .2-.3.4-.6.4H606v-7.3h8.5v-4H606v-7.2h5.7a.6.6 0 01.6.5l.5 2.8 4 .1v-7.3h-19.3v2.9l2.3.2a.7.7 0 01.5.2 1 1 0 010 .6V147a1 1 0 010 .5.7.7 0 01-.5.2l-2.3.3v2.8h20v-7.5h-3.9zm24.6-19.1l2.3.2a.7.7 0 01.5.2 1 1 0 010 .6v15l-11.3-19h-9v2.9l2.3.3a.7.7 0 01.5.1 1 1 0 010 .6V147a1 1 0 010 .6.7.7 0 01-.5.1l-2.3.3v2.8h10.1V148l-2.4-.3a.7.7 0 01-.5-.2 1.1 1.1 0 01-.1-.5v-15.2l11.5 19h6v-22.4a1 1 0 010-.6.7.7 0 01.6-.1l2.4-.3v-3h-10zm12 4.6h4l.6-3.2a.5.5 0 01.6-.4h3.7V147a1 1 0 01-.1.6.8.8 0 01-.5.1l-3.7.3v2.9h14.5v-2.9l-4-.3c-.3 0-.4 0-.5-.2a1 1 0 01-.1-.5v-18.5h3.7c.3 0 .5.2.6.4l.6 3.2h4v-7.5h-23.4v7.5zm32-3.9a3.3 3.3 0 00.9-2.4 3.1 3.1 0 00-.9-2.4 3.4 3.4 0 00-2.4-.8 3.3 3.3 0 00-2.4.8 3.1 3.1 0 00-.9 2.4 3.3 3.3 0 00.9 2.4 3.3 3.3 0 002.4.8 3.3 3.3 0 002.4-.8m1 19.4a1.1 1.1 0 01-.2-.6v-15h-7.5l-.4 2.9 2 .7c.3 0 .5.3.5.8v10.6a1 1 0 01-.1.6.6.6 0 01-.5.1l-1.8.3v2.9H685v-2.9l-1.9-.3a.7.7 0 01-.5-.1m19.7-1c0 .3-.3.4-.6.4h-6.5v-7.3h8.5v-4h-8.5v-7.2h5.7a.6.6 0 01.6.5l.5 2.8 4 .1v-7.3h-19.3v2.9l2.3.2a.7.7 0 01.5.2 1 1 0 01.1.6V147a1 1 0 01-.1.5.7.7 0 01-.5.2l-2.3.3v2.8H707v-7.5H703zm27.3.3l-2-5.2a5 5 0 00-2.1-2.9q4.7-2 4.7-7a7.2 7.2 0 00-2-5.2q-2-2-6.5-2h-12.3v2.9l2.3.2a.6.6 0 01.5.2 1 1 0 01.1.5V147a1 1 0 010 .6.8.8 0 01-.6.1l-2.3.3v2.9h11.6v-3l-2.5-.2c-.3 0-.5-.1-.5-.2a1.2 1.2 0 01-.1-.5V140h1.7a2.3 2.3 0 011.4.3 2.7 2.7 0 01.7 1.3l3.3 9.1h7.9v-2.9l-2.3-.3a1.4 1.4 0 01-1-.7m-6.4-11.5a6.5 6.5 0 01-3.6 1H718v-7.9h1.8a6.5 6.5 0 013.6.8 3.2 3.2 0 011.2 2.9c0 1.6-.4 2.7-1.3 3.3m9.3-3.4h4l.5-3.2c0-.2.3-.4.6-.4h3.7V147a1 1 0 010 .6.8.8 0 01-.5.1l-3.8.3v2.8h14.5V148l-4-.3c-.3 0-.4 0-.5-.2a1 1 0 010-.5v-18.5h3.7c.3 0 .5.2.6.4l.5 3.2h4v-7.5h-23.4v7.5z"/><path id="path1394" class="cls-3" d="M1002.7 108.5A108.5 108.5 0 11894.2 0a108.5 108.5 0 01108.5 108.5"/><g id="g1746"><path id="path1396" class="cls-4" d="M894.2 0a108.5 108.5 0 10108.5 108.5A108.5 108.5 0 00894.2 0m0 178.9a70.4 70.4 0 1170.4-70.4 70.4 70.4 0 01-70.4 70.4"/><path id="path1398" class="cls-3" d="M890.3 166s-16.8 11.9-17.8 14.2-4.3 13-4.3 13l11.4 10.2 12.7 4.4s25.1-14.8 25.4-16-2.2-21-2.2-21L907 164z"/><path id="path1400" class="cls-4" d="M882.6 80.8v.2z"/><path id="path1402" class="cls-4" d="M902.6 170.7h.2v-.2h-.2a.9.9 0 000 .2"/><path id="path1404" class="cls-4" d="M893.3 191.5h.5v-.1h-.5"/><path id="path1406" class="cls-4" d="M892.8 190.7v-.2h-.2v.2h.2"/><path id="path1408" class="cls-4" d="M889.7 190.1h-.6a1.5 1.5 0 000 .2h-.2v.3a1.2 1.2 0 01.2 0 1.1 1.1 0 000-.2h.4v-.2l.4.1v-.3h-.2z"/><path id="path1410" class="cls-4" d="M890.8 190v-.3h-.1v.2h-.2a.6.6 0 000 .2h.3"/><path id="path1412" class="cls-4" d="M888.7 189h.2v-.1h-.2v.1"/><path id="path1414" class="cls-4" d="M901.6 169.6h.2v-.2h-.2a1.4 1.4 0 000 .2"/><path id="path1416" class="cls-4" d="M892.5 190.3a1.2 1.2 0 000 .1h.2a1.2 1.2 0 000-.2h-.2"/><path id="path1418" class="cls-4" d="M891.2 190.3h.1a1 1 0 010-.2h-.1a1 1 0 000 .2"/><path id="path1420" class="cls-4" d="M892.8 193h.1a.8.8 0 010-.2h-.1a.8.8 0 000 .1"/><path id="path1422" class="cls-4" d="M893.6 192.1h-.2v.4h.2v.1h.2v-.3h-.2a.9.9 0 000-.2"/><path id="path1424" class="cls-4" d="M893.8 190.8h-.4v.1l.3.1z"/><path id="path1426" class="cls-4" d="M894.8 191.7h-.4v.3H895a1 1 0 000-.1h-.2a1.2 1.2 0 000-.2"/><path id="path1428" class="cls-4" d="M894 193h.4-.4z"/><path id="path1430" class="cls-4" d="M888.4 190h.1a.4.4 0 01.1-.2h.2v-.2h-.4v.4"/><path id="path1432" class="cls-4" d="M894.7 190.7h-.2a1 1 0 000 .2h-.2v.2h.6v-.1h.2v-.4h-.4v.2"/><path id="path1434" class="cls-4" d="M877.6 85.2a.4.4 0 00-.2 0v.3h.2v-.4"/><path id="path1436" class="cls-4" d="M880.6 82h-.1a.8.8 0 010 .2h.1a1 1 0 010-.2"/><path id="path1438" class="cls-4" d="M881 91.8h-.2v.2h.2a1 1 0 000-.2"/><path id="path1440" class="cls-4" d="M895.5 192.5h.3v-.3h-.3z"/><path id="path1442" class="cls-4" d="M876.4 85.4h-.1a1 1 0 000 .2h.1v-.2"/><path id="path1444" class="cls-4" d="M877.4 85.5h-.2v.4h.2v-.4"/><path id="path1446" class="cls-4" d="M891 190.5l-.6-.1a1 1 0 010 .2h-.1v.2h.2l-.1.3a.4.4 0 00-.2 0v.4h.2a1.8 1.8 0 00.4 0v-.4h.1a1.2 1.2 0 000 .2h.2v.4h.2v-.6a1.2 1.2 0 000-.1h-.1v-.8h-.1v.2"/><path id="path1448" class="cls-4" d="M935.5 88.7h-.2v.1h.4v-.3h-.2a.9.9 0 010 .1"/><path id="path1450" class="cls-4" d="M932.8 86h-.4a.9.9 0 000 .2h.4a1.4 1.4 0 000-.2"/><path id="path1452" class="cls-4" d="M940.5 100.6a2 2 0 000 .2h.2v-.2h.2v-.2h.1v-.2h-.3v.4h-.2"/><path id="path1454" class="cls-4" d="M932.4 85.9h-.2a1 1 0 010 .1h.2v-.2"/><path id="path1456" class="cls-4" d="M879.2 107.1a1.1 1.1 0 00.3 0v-.1h-.2v-.4h.4a1.4 1.4 0 010 .2h-.2v.2h.4a1 1 0 010-.2h.2v-.2h-.2v-.2h-.2v-.2h-.2a1 1 0 010-.1h-.2a1.5 1.5 0 000-.2h-.4a.9.9 0 000 .1h-.2a1.4 1.4 0 010 .2h.4v1"/><path id="path1458" class="cls-4" d="M851.3 192.2c15.8 7.2 41 15.6 41 15.6l61.7-25.7a.3.3 0 010-.1 2.8 2.8 0 00-.8-.2.6.6 0 010-.1h-.6v-.1l-.8-.1v-.2l-1.2-.1-1-.2a.6.6 0 000-.1h-.8a.4.4 0 010-.2h-.2l-.5-.1a.7.7 0 000-.1l-.5-.2a1.5 1.5 0 00-.6-.2v-.1h-.4a.3.3 0 00-.2-.1.3.3 0 010-.1h-.3a.4.4 0 00-.2-.1v-.1h-.2v-.1h-.3a.5.5 0 010-.1h-.2v-.1h-.2a.5.5 0 000-.1l-.5-.2a.8.8 0 00-.2 0 .1.1 0 000-.1h-.3v-.2H943.4a.5.5 0 000-.1l-.3-.1v-.1a1 1 0 01-.3 0h-.1c-.1 0 0-.1 0-.2h-.4v-.2l-.3-.1v-.1l-.4-.1v-.2h-.3v-.2l-.3-.1a.3.3 0 000-.2h-.2v-.1h-.5a.4.4 0 000-.3h-.2l-.3-.2v-.1l-.4-.1a.3.3 0 000-.1l-.3-.1v-.1h-.2a.3.3 0 00-.2-.1.5.5 0 000-.1l-.3-.1a.3.3 0 000-.1l-.4-.1a.7.7 0 010-.1h-.2a.3.3 0 00-.2 0v-.2l-.5-.1a.3.3 0 000-.2h-.3v-.2h-.4v-.2h-.2c-.2 0-.1 0-.2-.2h-.3a.3.3 0 010-.1h-.2a.3.3 0 00-.1 0v-.2h-.6v-.2l-.3-.1v-.1l-.4-.1v-.2h-.3v-.2a1.9 1.9 0 00-.6-.1v-.2h-.5v-.2l-.6-.1a.3.3 0 000-.1 2.8 2.8 0 00-.7-.2v-.1h-.4v-.2l-.5-.1a.4.4 0 010-.1l-.2-.1a.5.5 0 010-.2h-.2a.5.5 0 00-.2 0v-.1l-.5-.2v-.1h-.3v-.3h-.1a.4.4 0 000-.1l-.3-.1v-.2h-.2a1.5 1.5 0 000-.2h-.2v-.2h-.2v-.3h-.2l-.1-.3v-.3h-.1v-.5h-.2l.1-.7v-1h.1l.1-.7h.1l.2-1.3h-.1l.5-4.3h.1v-.4c0-.2 0-.4.2-.7l.2-.5h.1l.1-.3h.1l.2-.4c.2 0 0 0 .2-.2h.3a1.6 1.6 0 01.1-.3h.1l.1-.2h.1v-.2h.2a.5.5 0 010-.3h.2l.1-.3a.3.3 0 00.2 0v-.3h.2v-.4h.2v-.5h.2v-.4a1 1 0 00.3-2h.1v-.7h.2l.2-.8a1.4 1.4 0 01.1-.2v-.3h.2v-.4h.1v-.4h.2l.1-.8h.2l.1-.5h.1v-.5h.2l.1-.6h.1v-.4h.1v-.3h.1v-.3a.4.4 0 000-.1h.2v-.6h.2v-.4l.1-.7h.2v-.4l.2-.8h.1a2.4 2.4 0 00.2-.9v-.3h.2v-.6h.2v-.8h.1l.1-.8a.4.4 0 00.2 0v-.4h.2a.7.7 0 000-.1h.2v-.2l.1-.5h.1a1.3 1.3 0 00.1-.3v-.3h.1a1.5 1.5 0 000-.2v-.3h.2v-.5h.2a1.5 1.5 0 00.1-.6h.2v-.2a.3.3 0 000-.1h-.2v-.2h.2v-.4h.1a4.3 4.3 0 00.1-.5h.2v-.8a1.2 1.2 0 00.2-.3l.1-.6h.1v-.3h.1v-.4a1.2 1.2 0 00.2-.4l.1-.4a1.4 1.4 0 010 .2h-.3v-.1h.2a1 1 0 000-.2h.1a2.4 2.4 0 01.2-.8v-.7l.1-.3h.1v-.4a.9.9 0 010-.1l.1-.7h.1v-.6l.1-.5v-.3-.3-.4h.1a1.2 1.2 0 010-.1h.2v-1-.1h.2a1.2 1.2 0 010-.2l.1-1v-.3l.1-.8v-.3h.2v-.6h.1v-.5a1 1 0 000-.2l.4-3h-.5a1.4 1.4 0 010-.2h-.2a.9.9 0 000-.2h.3v.2h.2v-.2h.2v-.3a1.4 1.4 0 000-.2h-.2a1 1 0 010 .2h-.3v-.2h.3v-.2h-.1v-.2h.1v-.4-.4h-.2l.1-.3h.2a1.2 1.2 0 010-.2h-.4v-.2h.2a1 1 0 010-.2h.2a.4.4 0 000-.2h-.1v-.2h.1v-.3h-.3v-.2h.3a1.2 1.2 0 010-.2h-.3v-.4h.3v-.1h-.1v-.2h.1a4.2 4.2 0 00.1-1v-.2a.6.6 0 000-.3v-.4h-.1v-.5h-.1v-.8h-.1v-.5h.2v-.2h-.3a1.1 1.1 0 010-.2h.1a1.5 1.5 0 000-.4h-.5v-.4h.2v-.1a1.4 1.4 0 010-.2h-.1a1.5 1.5 0 000-.4h-.3a1.4 1.4 0 000-.2h.2c0-.2-.1-.2 0-.4h-.2V107v.2h-.2a.7.7 0 000-.2h-.2v-.3a.4.4 0 00.2 0 1.4 1.4 0 000-.2h.1v-.2h-.1v-.3h-.2v-.2-.4-.3h-.2l.1-.8a.7.7 0 010-.3l-.3-.1v-.5-1.4h-.3v.2h-.2v-.2h.2v-.2a.7.7 0 00.2 0v-.5h-.1a1.2 1.2 0 010-.2v-.2h-.2a.8.8 0 010 .2h-.4a1 1 0 010-.2h-.4v-.2h.2a.4.4 0 010-.2h.2a1.4 1.4 0 000-.2h-.1a.8.8 0 010-.2h.1v-.3h-.1v-.4h-.1v.4h-.2v.1h.3a1.5 1.5 0 000 .2h-.1a1.4 1.4 0 000 .2h-.4v.2h-.2a1.5 1.5 0 000-.2h.2v-.4h-.2v-.4h-.2a1.8 1.8 0 01.1-.4h.2V99h-.4v.1h-.4V99l.1-.8a.3.3 0 00-.2 0v.2h-.1a.4.4 0 000-.2h-.2v-.6h.3v-.1a.4.4 0 01-.2 0 1.1 1.1 0 010-.4h.2v.3h.2a1.5 1.5 0 000 .2h-.2v.2h.5a1.4 1.4 0 010-.1h-.1v-.4h.2V97h.1a1 1 0 000 .1h.2a.9.9 0 000-.1h-.1v-.2h-.3v-.2h-.5a.8.8 0 010-.2h.4a1.4 1.4 0 010-.2h-.2V96h-.4a1 1 0 000-.2h-.1a1.4 1.4 0 010-.2h.2V95h-.2v.4h-.4l.2-1.2a.4.4 0 00-.2 0v.2h-.4v.1h-.1v-.4h-.2V94a.4.4 0 01-.2-.1v-.2h-.2v-.3h-.1v-.2h.1a1 1 0 010-.2h-.1v-.2h.1a1.2 1.2 0 000-.2h-.1a.9.9 0 000 .2h-.2v-.4h-.2v-.2h-.2V92h-.1v-.3h.2V91h-.1a.9.9 0 000 .2h-.2V91h-.2v-.2h-.2v-.4h-.2v-.2h-.2a1.4 1.4 0 010-.2h-.2v-.2a.7.7 0 01-.2 0 1 1 0 000-.2h-.3a1 1 0 010-.2h-.2v-.2h-.3v-.4l-.6-.1v-.4a.6.6 0 01-.2 0v-.1-.2a1.2 1.2 0 010-.2h-.3v.3h-.2V88h-.4v-.3h-.2l.1-.5h-.2v.1h-.3V87h-.2v-.2h-.2v-.2h-.2v-.2h-.2v.2h-.2v-.4l.2-.7h.1v-.4h.3v-.4h.3a.9.9 0 010 .2h.2v.2h.2v.2a.4.4 0 01.2 0v.2h.2a1.4 1.4 0 000 .2h.2v.2h.3v.2a.6.6 0 01.2 0v.1h.2a.4.4 0 000 .2h.1v.2a1.2 1.2 0 01.2 0 1 1 0 000 .2h.2a1.2 1.2 0 000 .2h.2v.2a.7.7 0 01.2 0 .9.9 0 000 .2h.2v.4h.3a1 1 0 000 .2h.2v.2h.2v.2h.2v.2h.2a.9.9 0 010 .1h.2v.2h.2a.3.3 0 000-.1v-.4h-.1v-.2h2.1v-.2h-.1a.4.4 0 000-.2h-.2v-.2l-.1-.2h-.2v-.2h-.1a.2.2 0 000-.2h-.2V86.8a.5.5 0 000-.2h-.2v-.4h-.1v-.4h-.1v-.3h-.1v-.3h-.1v-.3h-.1a1.4 1.4 0 000-.5h-.4v-1h-.1V82.1v-.7h-.2v-.6h-.1a1 1 0 010-.1v-.2h-.2a1.8 1.8 0 000-.6v-.3h-.2v-.3-.3h-.2v-.3a.9.9 0 010-.2 1 1 0 010-.2h-.2a1.7 1.7 0 010-.4h-.1a.3.3 0 000-.2h-.1v-.4h-.2V77v-.4h-.2a2.2 2.2 0 000-.2h-.1V75h-.2a1.8 1.8 0 000-.5v-.3h-.1v-.3h-.2a.6.6 0 000-.3h-.1v-.4h-.1V73h-.1a.3.3 0 000-.1 1 1 0 010-.2c-.3 0-.1 0-.2-.2h-.1v-.2h-.2V72h-.1v-.4a.7.7 0 01-.2 0v-.2h-.1v-.2l-.4-.3v-.2h-.1v-.2h-.2v-.3a.5.5 0 01-.1 0V70h-.2v-.2l-.2-.1v-.2h-.2v-.2h-.1V69h-.1v-.2c0-.2 0 0 0 0h-.2v-.2h-.1v-.2h-.1v-.2h-.2a.4.4 0 000-.2V68h-.1v-.2h-.1a1.1 1.1 0 000-.2h-.2v-.2-.1l-.3-.1V67h-.1v-.3a.3.3 0 01-.2 0v-.2c-.3 0 0 0-.2-.2V66h-.2v-.2h-.1v-.2h-.7a.3.3 0 000-.2h-.1a.3.3 0 000-.2h-.2a.3.3 0 000-.2l-.1-.2h-.2a.4.4 0 000-.2h-.1a.3.3 0 000-.2l-.3-.5v-.2h-.1a.5.5 0 000-.2v-.1h-.1v-.3h-.2V63h-.1a.3.3 0 000-.2h-.1v-.2h-.1a.4.4 0 000-.2 1 1 0 010-.2h-.1a2 2 0 000-.2h-.2a1.4 1.4 0 010-.4h-.1v-.4h-.1V61h-.2v-.1-.2-.2h-.6a.4.4 0 000-.2h-.1a.5.5 0 000-.1v-.2a.6.6 0 01-.2 0 1 1 0 000-.2.3.3 0 01-.2 0v-.2l-.3-.1c-.2-.1 0-.1 0-.1l-.2-.1a.7.7 0 010-.2h-.3a.3.3 0 010-.2h-.2c-.2 0 0-.2 0-.2l-.4-.1a.3.3 0 010-.1h-.2l-.3-.1a.3.3 0 000-.1V58h-.3a.4.4 0 000-.2h-.3v-.2h-.4v-.2h-.2l-.4-.5v-.1l-.6-.2v-.1h-.3a.5.5 0 010-.2h-.2a.5.5 0 00-.2 0v-.2h-.2c-.2 0-.1 0-.2-.2h-.3a.6.6 0 000-.2h-.4v-.2a5 5 0 00-.5-.1.3.3 0 000-.2h-.3v-.1h-.3a.3.3 0 00-.1 0V55h-.4a.7.7 0 00-.3-.1v-.1a2.4 2.4 0 00-.6-.2h-.2a.3.3 0 00-.2-.1.6.6 0 010-.2h-.6a.3.3 0 000-.2 1.5 1.5 0 00-.5-.1v-.1h-.2a.1.1 0 010-.1h-.3a.6.6 0 010-.1l-.7-.2h-.3v-.2h-.5V53h-.5v-.2l-1-.1a.3.3 0 000-.1l-.5-.1-.5-.1v-.2h-1V52l-1.9-.2-1-.1h-.7v.1l-1-.1-5-.5h-1.2v.1a1.4 1.4 0 00-.4 0v.2h-1.2v.2h-3.2a.6.6 0 010 .2h-.5a.6.6 0 000 .2 2.8 2.8 0 00-.7 0v.1h-.4a.6.6 0 010 .1h-.3v.1h-1.1-.4v.1h-.9a.6.6 0 000 .2h-1.5a.4.4 0 010 .2 3.3 3.3 0 00-1 0h-.3v.2H884a.3.3 0 000 .1h-.4v.2h-.3v.1h-.2a.2.2 0 00-.2 0v.1a.3.3 0 00-.2 0l-.8-.7v.1c0 .1-.1 0-.2 0s0 0 0 .1h-.4a.3.3 0 010 .1h-.4a.6.6 0 000 .1h-.3a.7.7 0 000 .2.3.3 0 00-.2 0 .4.4 0 010 .1h-.4v.1c-.2 0-.2 0-.3.2h-.3a.9.9 0 000 .2h-.2v.1h-.1a.2.2 0 010 .2h-.2a1.5 1.5 0 000 .2h-.2a.9.9 0 000 .1h-.1v.2h-.2l-.1.3-.2.1h-.1l-.1.4a.3.3 0 00-.2 0 .6.6 0 000 .1.4.4 0 00-.2 0v.1h-.2v.1h-.2v.2h-.1v.2h-.2v.1h-.1c0 .3-.1.2-.3.3l-.2.1a.7.7 0 010 .1h-.1v.1h-.2v.2h-.2v.6h-.2a1 1 0 000 .2h-.2a.9.9 0 010 .2H875.1a.2.2 0 010 .1v.2a.6.6 0 00-.3 0H874.5v.2h-.2v.3a.3.3 0 00-.3 0v.2h-.1v.1h-.2v.2a.4.4 0 000 .2c-.3 0-.1 0-.2.1h-.1l-.1.4h-.2v.4H872v.3a.5.5 0 00-.3 0v.3h-.2v.2h-.2a3 3 0 010 .4.3.3 0 00-.3 0v.1l-.2.2v.2a.3.3 0 00-.1.1h-.2c-.1 0 0 .1 0 .1h-.1l-.1.2c-.1.1-.1 0-.2 0v.2a.3.3 0 00-.2 0v.1h-.1l-.1.3h-.2v.4h-.2v.4h-.2v.7h-.2l-.1.5h-.1v.3a.3.3 0 000 .1h-.2l-.1.4h-.1l-.1.3h-.1a1.8 1.8 0 000 .3.3.3 0 000 .1.2.2 0 00-.2 0v.3h-.2a.3.3 0 010 .1h-.2c-.1 0 0 .1 0 .2h-.2a1.1 1.1 0 010 .3h-.2a1 1 0 000 .2h-.2v.4h-.2l-.1.3h-.1c0 .1 0 .3-.2.4a1.5 1.5 0 000 .2h-.1v.3h-.2v.2a1 1 0 000 .1h-.1v.2l-.1.4h-.1a1.6 1.6 0 010 .2h-.1v.3h-.1v.3h-.1a3.3 3.3 0 000 .4h-.1v.3h-.2v.5h-.2l-.2.6h-.1v.3c0 .1-.1 0-.2 0v.3a.5.5 0 00-.2 0 .8.8 0 010 .2.6.6 0 00-.2 0v.3h-.2a1 1 0 000 .1h-.2v.2a.4.4 0 00-.2 0v.2h-.4v.2h-.5v.2h-.2a.6.6 0 010 .1c-.2 0-.1 0-.2.2h-.1v.2h-.2v.3a.4.4 0 00-.3 0 .7.7 0 010 .1l-.2.4s-.2 0-.2.2h-.1a3 3 0 01-.1.3.4.4 0 00-.2 0v.2h-.1a1.2 1.2 0 010 .2h-.2v.3l-.3.1h-.1l-.1.4h-.1a1.5 1.5 0 000 .2h-.2l-.1.3h-.1a1.4 1.4 0 000 .2h-.2v.3h-.2a.9.9 0 010 .2.2.2 0 000 .2h-.2c-.1 0 0 0 0 .1h-.1l-.2.4-.1.3h-.2v.2h-.1v.1a.3.3 0 000 .2h-.1l-.1.3h-.2v.3h-.2v.2c0 .2 0 0-.1.1l-.1.3c-.1.1 0 0-.1 0h-.1v.2h-.2a2.6 2.6 0 010 .4h-.2v.2h-.2v.3h-.2v.1c0 .1-.1 0-.2 0v.2a.3.3 0 000 .1l-.2.2h-.1l-.1.4h-.2a.7.7 0 000 .1h-.1l-.1.4H853v.3a.4.4 0 00-.3 0v.4h-.2V86.3h-.2a1.3 1.3 0 000 .4.4.4 0 00-.2 0l-.1.3h-.1a2 2 0 010 .2.3.3 0 000 .2h-.1l-.1.3h-.2v.5h-.2a1.5 1.5 0 010 .2v.2h-.2l-.1.7h-.1v.5h-.2V90.4h-.2l-.2.5h-.1v.3h-.2v.4h-.2v.2a.3.3 0 000 .2v.2l-.1.1h-.2V93h-.1L849 94l-.1.4-.2 1a.4.4 0 00-.2 0 1.8 1.8 0 010 .7l-.2 1-.1.5a1.6 1.6 0 000 .6l-.2 1v.3a7.3 7.3 0 00-.2 1.6c0 1-.2 2-.3 2.9a1.2 1.2 0 010 .2h-.1l-.8 6.1-.2 1.3h-.1l-.5 4h.1v.3a1 1 0 010 .1v.2c0 .2 0 .4-.2.6h-.8v.4h-.1a1.4 1.4 0 000 .2h.1a1 1 0 000 .1h-.1l-.1.6h.1v.2h-.1a.7.7 0 010 .2h.1v2h-.1v1.3l-.1.8h.1v1.1h.1v.9h.1a6.7 6.7 0 000 .8h.1v.8h.1v.7h-.2v1h.1v.5l-.1 1.2h.1l-.1 1.4v1.1l-.1 1.9h.1l-.1 1v.7h.1v3.5h.2v.6l-.1.8v1.1h.1v.3h.1v.2h.1v.4h.2v1h.1l-.1.9v.2h.2a1.8 1.8 0 000 .5c0 .2.1.2 0 .4h.2v.5h.2a1 1 0 000 .2v.2h.1c.1 0 0 .1 0 .1h.1v.4h.2a.4.4 0 000 .2h.1v.4h.1v.4h.1l.1.2h.1v.3h.1v.2h.2v.3a.4.4 0 01.2 0v.2h.2a.3.3 0 000 .2h.1a.7.7 0 000 .4v.3h.2v.2a1.4 1.4 0 000 .2h.2a1.4 1.4 0 000 .5h.1v.4h.2v.4a1 1 0 000 .2h.2v.5h.1v.4h.2v.5h.1v.5h.2a1.8 1.8 0 010 .4h.1a.6.6 0 000 .4h.1v.8h.1v.3h.1v.2h.1a.6.6 0 000 .4h.1a.9.9 0 000 .3v.2h.1v.2h-.1v.5h.2a.8.8 0 010 .4h.1c0 .3 0 .3.2.4l-.1.6h.2l-.2 1-.2.5h-.2a.7.7 0 000 .2.4.4 0 00-.1 0h-.2c-.1 0 0 .2 0 .2a.4.4 0 00-.2 0 .5.5 0 010 .2h-.5a.3.3 0 000 .1 1.1 1.1 0 01-.4 0v.1a.1.1 0 00-.2.2h-.4v.1a.6.6 0 00-.2 0v.1h-.1a.4.4 0 00-.2 0v.2h-.6a.6.6 0 010 .2H845.6v.2h-.9a1.5 1.5 0 00-.5 0 .3.3 0 000 .1h-.3v.1h-.1v.1h-.3v.2h-.4v.1a.3.3 0 00-.2 0v.1a.6.6 0 00-.4 0 .5.5 0 000 .2.6.6 0 00-.3 0h-.5v.2a1.4 1.4 0 01-.3 0h-.2a.3.3 0 00-.2.1v.1a.6.6 0 00-.4 0v.2h-.3v.1H839v.2a.7.7 0 00-.4 0v.1h-.7v.1h-.6v.1h-.3v.1h-.2v.1h-.7a.3.3 0 010 .1h-.6a.6.6 0 000 .2h-.6v.2h-.2c-.2 0 0 0 0 .1h-.2a.6.6 0 00-.2 0 .7.7 0 010 .1H834a.7.7 0 010 .2h-.5a.3.3 0 000 .1h-.8v.1h-.4a.7.7 0 000 .2.9.9 0 00-.3 0 .3.3 0 00-.2 0h-.2v.2h-.3v.1c0 .1-.1 0-.2 0-.2 0-.2.1-.4 0v.2h-.2c-.1 0 0 .1 0 .1h-.6v.2h-1.2v.1h-.2v.2a.8.8 0 00-.4 0h-.5v.2h-.4v.1h-.4v.1h-.3v.1h-.2v.1h-.1c6.4 8 16 18.7 25.3 23m91.2-81.3v.1h-.1a.9.9 0 010-.1h.1m-.5-.1h.2a1.2 1.2 0 000-.2h-.2a1 1 0 010-.2h.4l-.1.4h-.2a1 1 0 000 .2h-.2a1 1 0 000-.2m-.3 4.1h.2v.4h-.2v-.4m0 2.3h.1v.3h-.1zm0 3.5a1.2 1.2 0 000 .2v-.2m0 .4v.4h-.1zm-.3 2.8h-.1a.9.9 0 010-.2h.1zm0-19.5h.1v.2h-.2a1.1 1.1 0 010-.2m-.1 1.3h.3a1.5 1.5 0 000 .2l-.6 1.7zm-.4-4.5h.2v.3h-.2zm-1.6-4.8v.4h-.1v-.4a.5.5 0 00.1 0m-.3-.2h.1v0m-.4-.6h.2v.2h-.2a1.1 1.1 0 010-.2m-.5-1h.2a1.2 1.2 0 000 .2h-.2a1.4 1.4 0 000-.2m-5.4-11.8h-.3V81h.3a.8.8 0 010 .2m0-.4h-.3a1.4 1.4 0 000-.2h-.2a1.1 1.1 0 010-.1h.5zm.2-1v.3l-.4-.1a1.4 1.4 0 000-.2h.4m-.8.2h.3v.2h-.3V80m-.1 1h.1v-.4a1 1 0 01.4 0v.6h-.2v.2h-.2v-.2h-.2a1 1 0 010-.2m-.6-1.7h.2v.2h-.2a.9.9 0 010-.2m-.3-2.3h.2v.3h-.2zm-1-3.2a.6.6 0 01.1 0 1 1 0 010 .2h.2v.2a1 1 0 01-.4-.2v-.4m-61.8 41.5h-.2a1.2 1.2 0 000-.2.4.4 0 01.2 0 .8.8 0 000 .2m2.7 15a.6.6 0 00-.2 0v.3h-.2v-.5l.4.1a.9.9 0 010 .2m1.3 7.7h-.1v-.3h.1zm.4-1.3h-.2v-.1h.2a1.1 1.1 0 000 .2m3.4 8v-.3h-.2v-.4h-.3v-.3h-.2v-.3h-.4v-.5h-.1v-.5h-.2a1.5 1.5 0 010-.2h-.2v-.4a.4.4 0 00.2 0v-.3h-.1v-.4a.6.6 0 01-.2 0v-.5h.2a1.2 1.2 0 000-.2h-.2a.6.6 0 010-.2h.2v-.4a1.4 1.4 0 010-.4h.2a.9.9 0 010-.1h-.1v-.4h.4a1 1 0 010-.2h.1v-.1h-.3a1.2 1.2 0 000-.2h-.2v-.2a1.3 1.3 0 00-.2 0 .6.6 0 010-.2h.2v-.2a.4.4 0 00.2 0 1.2 1.2 0 000-.3h-.4a1.1 1.1 0 01.1-.4h.2a.9.9 0 010-.2h.3v-.1h.2v-.2h.6v-.2h-.2v-.7h.5a1 1 0 000 .2h.1a.6.6 0 010 .2h-.1.1a1.4 1.4 0 010 .3h.4v1h-.2v-.2h-.4v.3h-.4v.3h.4v.2l.6.1v.2h.2l-.1.5a.8.8 0 00.2 0v.4h.1v.2h.6v.4h.2a1.4 1.4 0 000 .2h.2v.4h-.3v.2h.4v.7l.3.1v.4h.2v.5h.3v.6h.1a1 1 0 010 .2h-.2v.2a.6.6 0 00-.1 0 .4.4 0 000 .1h.3v.2h-.2v.6h-.4v.3h.2a.9.9 0 000 .2h.2a1.5 1.5 0 010 .2h-.4a1.5 1.5 0 010 .1h-.4v.2h-.4a1.1 1.1 0 000 .1h-.3a1 1 0 010-.1l-.6-.1v-.6h-.7m-.6-9.1h-.2a1.2 1.2 0 000-.2h.2a1.2 1.2 0 000 .2m0 .6v.1a.9.9 0 000-.1m.4-.8a.9.9 0 010-.1h.4l-.1.5a.6.6 0 01-.2 0v-.4h-.2m2.7 5.6a.9.9 0 010-.2h.2a.9.9 0 000-.1h.2v.5a1.4 1.4 0 01-.4 0m.8 4.6a.9.9 0 010 .2h-.2v-.2h.2m-2 2.2a1.2 1.2 0 010 .2h-.4v-.4h.2v.1h.2m12 56.2h-.1v.2l-.6-.1v-.2h-.2v-.4l.8.1v.2h.1v.2m4 .4h-.4a.9.9 0 000-.2h-.4a1 1 0 000 .2l-1-.2-.1 1.9h.5a1 1 0 010-.1h.4v.1h.2v.2h.2v.2h-.2v.4h-.4a1 1 0 000-.2h-.2a1.4 1.4 0 010-.2h-.6v.7h-.4v-.6h-.2l.1-.9h-.5v-.5h-.2v-.7-.8l1 .2h.1a.8.8 0 010-.2l1 .1h.1a.3.3 0 000 .2h.2v-.2h.2v-.2h.2v.2h.3zm-2.6-1v-.4h.3a.4.4 0 000 .2h.1v.2a.6.6 0 00-.2 0v.1h-.1a1.4 1.4 0 000-.2m6.3-8.3v.2h-.2v.6h-.2a1.2 1.2 0 010 .1h.1a1.6 1.6 0 010 .4h-.2a.9.9 0 000 .2.4.4 0 00-.2 0v.5h-.2v.2h-.2v.4h-.3v.1h-.2v.2h-.1v.2H894.4a1.1 1.1 0 010 .3h-.4v.1h-1v.1h-.3v.2h-1.5a.8.8 0 010 .2l-.7-.1v.1a2.5 2.5 0 00-.6 0 .9.9 0 010 .2h-.2v-.2h-.2v.2h-.2a.9.9 0 010 .2h-.2a1 1 0 010-.2h-.3v.2h-.6a4.3 4.3 0 01-1-.2v.2h-.3a.9.9 0 010-.2h-.6l-1.6-.1v-.2h-.4v-.2h-.2v-.2h-.2a1.5 1.5 0 010-.2h-.2v-.2h-.3v-.2h-.2v-.2a.4.4 0 01-.2 0v-.2h-.2v-.2h-.4v-.2h-.2a1.4 1.4 0 000-.2h-.3v-.2h-.4v-.2l-.4-.1v-.2h-.1v-.4a.5.5 0 01-.2 0v-.2h-.2a1.2 1.2 0 010-.2h-.1a.6.6 0 000-.2h-.2v-.3h-.2v-.2h-.2a1 1 0 010-.2h-.3a1.5 1.5 0 000-.2h-.2a1 1 0 010-.2.4.4 0 01-.2 0v-.2h-.3a1 1 0 000-.2h-.2v-.2h-.2v-.2h-.2a1 1 0 010-.2h-.2v-.2h-.2a1 1 0 010-.2h-.3a.4.4 0 000-.2h-.2v-.2h-.4v-.4h-.1a1.5 1.5 0 010-.2h-.2v-.1a.7.7 0 01-.2 0v-.3h-.2a1 1 0 01.1-.3h.3v-.2h-.2a1.2 1.2 0 000-.2h-.1v-.6h.2v-.1h.1v.1h.4v-.1h.8v-.1h-.2v-.2h-.2a.9.9 0 000-.2h.6a.9.9 0 010-.1h.9a.9.9 0 010 .2h.4v-.5h.6v-.3l.7.1a.8.8 0 000 .2h.2a1.2 1.2 0 000-.2h.7a.4.4 0 010-.1h.2v-.2h.4v.2h.4a1.5 1.5 0 000 .2h.4v-.1h.2v-.2h.5v-.1h-.4a1.2 1.2 0 000-.2h-.1a.6.6 0 000-.2h-.2a.5.5 0 000-.2h-.1a.8.8 0 010-.2h.3v.2l1.7.2a1 1 0 010 .2h.2a1 1 0 010-.2h.4v.3h.1a.8.8 0 000 .1h.4v-.5h-.1v-.2h-.2v-.4h.4a1 1 0 010-.1h.3a1.1 1.1 0 000 .1.6.6 0 01.2 0v.5h.2a1 1 0 010 .1h.2v-.3h-.2v-.4l1 .1v.2h.2a1 1 0 000-.2h.4v.2a.7.7 0 00.2 0 1.1 1.1 0 000-.2h.2v.4a.4.4 0 01.2 0l-.1.4h.1v-.4h-.3v.2l-.7-.1v.4a1.2 1.2 0 000 .1v.2a.6.6 0 00-.3 0 1 1 0 010 .2h-.3l-.1.3H886.7a1 1 0 000-.1h-.3v.1h-.2v.2h-.2a.6.6 0 010 .2h-.2a.8.8 0 010 .1.6.6 0 00-.2 0v.2h-.6v-.2l-.7-.1v.1h.4v.2h.4v.3H886a1 1 0 000-.2h.4a1 1 0 010 .3.7.7 0 01.2 0 .9.9 0 000 .2h.2v-.2l.7.1a1 1 0 000 .2h.7v-.3-.4h.2v-.4h-.1a1 1 0 000-.1h.1a1.4 1.4 0 000-.2h-.1v.1h-.2l-.1.8h-.4v-.2h-.2v-.5h.4v-.2h.2v-.4h.4v.4h.6l.5.1a1 1 0 010 .2h.4a.8.8 0 010-.2h.5v.5h.8v.6h.5a1 1 0 000 .2l.7.1v.2h.2v-.4h-.2a1.2 1.2 0 000-.2h-.2v-.2h-.1v-.1h-.4v-.4h.2v.2h.5a.9.9 0 000-.2h.2v.2h-.2v.4h.2a1 1 0 010 .1h.3v-.1h.2a1.4 1.4 0 010-.2h.4v.2h.2l-.1.5h.2a1.5 1.5 0 010-.2h.2v-.5h.4a1 1 0 000 .2h.2a.6.6 0 010-.2h.2a1.4 1.4 0 01.4.1v.2h.7v-.1H896.5a.7.7 0 000 .2h-.2v.3h-.2v.1h-.2a.6.6 0 000 .2h.7v.5h-.2v.7h-.4v.5s.4.2.5.1a.7.7 0 01.2 0v.4h-.2l-.1 1h.4v.4h.1v.1a.4.4 0 00-.2 0v.4h.2a1 1 0 010 .2h.2v-.2h.2a2 2 0 000 .3m-17.7-39.6v-.2h.2v.2h-.2m.8 1a1.5 1.5 0 010-.3h.3v.3h-.2m.2-.3v-.2h.2v.2h-.2m3.1 2.6v-.3a1.2 1.2 0 01.2 0 3.3 3.3 0 000 .3h-.2m2 27.7v.4h-.4v-.4h-.2a1 1 0 000 .1h-.4a.6.6 0 01.1-.2h.1v-.1h.4a1.4 1.4 0 000 .2h.4m-.3-6.6a1 1 0 000-.2h.2v.2h-.2m.5 6.3v-.4l.8.1a1 1 0 010 .2h-.2v.3h-.3v-.2h-.2m.6-2h-.2a1 1 0 010 .2h-.2a.9.9 0 010-.2h-.2v-.2a2 2 0 01.6.1v.2m-.2-1.4h-.2v-.1h-.2a1.2 1.2 0 000-.2h.4zm-.3.8a1 1 0 000 .1h-.2v-.1h.2m2.3 2.5a1 1 0 010-.1h.6v.3h-.5v.1h-.4v-.2H887.6a2.3 2.3 0 010-.4l.6.1a.9.9 0 010 .2h.4m1.2-.8a1.1 1.1 0 010 .2h-.5v-.2l-.6-.1v-.2l1 .1v.2h.1m.4 3h-.1.1m0-.7v-.2h.1v.2h-.2m0-1.2h-.2a1 1 0 000-.1h.2v.1m-.3-2.3v-.1h.2v-.2h.2v.3h-.4m-2.1.2h-.4a1 1 0 000-.2h.4v.2m-.2 1.9v.1h-.2v-.1h.2m-.9 2.4v.3h-.3a.9.9 0 010-.2h.1v-.2h.2m4.8-.4a1 1 0 010-.2h.6a1.2 1.2 0 000 .3h-.2v.5a.7.7 0 00-.3 0 1 1 0 010 .2h-.7a1 1 0 000-.2h-.3v-.4h-.2v-.4h.2a.9.9 0 000-.2h.2a1.3 1.3 0 01.3.1v.4h.2m12.3-17.4h-.2v.4h-.2a1.2 1.2 0 000 .2h.2v.3h-.2v.4h-.1v.1h-.4v.2h-.2v.6h-.4v.2h-.4v.2h-.2v.1h.2a.6.6 0 000 .3h.1v.1h-.5v-.2h-.2v.2h-.2a.9.9 0 000 .1l.8.1v.2h-.2v.4h.1a.8.8 0 010-.2h.4v-.2h.2v-.1h.4v-.2h.1v.6h-.2a1 1 0 010 .1h-.2v.4h.2v.2a.4.4 0 00-.2 0 1 1 0 010 .2.9.9 0 01-.2 0 1.6 1.6 0 000 .2h-.1l-.1.3a1.2 1.2 0 00-.4 0v.2h-.3a.8.8 0 010-.2h-.2a.8.8 0 010 .2h-.2v.2h-.2v.2l-.4-.1a1.1 1.1 0 000 .2h-.1v.3h.1a.9.9 0 010-.1h.2a1.8 1.8 0 01.4 0v.2h.5a.6.6 0 010-.1h.2v-.2h.2l.6.1v-.2h.6v.5h-.2v.4l-.4-.1-.1.5h-.3a1 1 0 000 .2h-.2v.2h-.2a1.4 1.4 0 010 .2h-.2v.1h.2v-.1h.4l-.1.5h-.2v.2h-.6v.5h.3v.3h-.1v.1h-.2v.2h-.2v.5h-.4v.3h.1v.3a.5.5 0 010 .1h-.1v.2h-.6a.9.9 0 000 .2l-.7-.1h-.2v.3h.2v.4h-.2v.2h-.2a.9.9 0 010-.2h-.2a1.2 1.2 0 000 .2h-.7v.4h-.4v.2h-.2v.4h-.3v.2h-.1v.1h-.4v-.2h-.3l-.2 1h-.2a1 1 0 000-.2h-.1v.1h-.8v.3h-.4a1 1 0 010 .2h-.4a.8.8 0 010 .1h-.5a1.2 1.2 0 000 .2h-.2a1 1 0 000 .2h-.4a1 1 0 010-.2l-1-.1v.2h.3a1.5 1.5 0 01.3 0v.4h-.4a1.2 1.2 0 010-.2h-.4v.1h-.1a1 1 0 000 .2H890v-.2h-.2a1 1 0 010-.2h.2v-.4l.4.1v-.2h-.2a.4.4 0 000-.2h-.2l.1-.7h.2a1.2 1.2 0 010-.2h-.5v.1h-.2a1 1 0 010 .2h-.2v.4h-.2v.2h-.4a.8.8 0 010-.2H888.2l-1-.2a1.2 1.2 0 010-.2h-.6a1.2 1.2 0 000-.2h.4a.8.8 0 000-.2l1 .1a1 1 0 010-.2h-.2a1.1 1.1 0 000-.2h-.4v.2h-.1a.9.9 0 000-.2h-.2a1.5 1.5 0 010-.2.4.4 0 00.2 0v-.5h.4v-.2h-.2a1 1 0 010-.2h-.4v.4h-.2v-.2h-.2a.4.4 0 010-.2h.4a.8.8 0 010-.2h-.2v-.2h-.5a.9.9 0 000-.2 1.4 1.4 0 01-.4 0 1 1 0 000-.2h-.2a1.5 1.5 0 010-.2h.2v-.2h.4v.2h.9-.2v-.3h-1v-.6h.3v-.2h-.2v-.2h-.1v-.2h-.4a1.1 1.1 0 000-.2h-.2a1.4 1.4 0 000-.2h.2v-.3h.2v-.2a.4.4 0 00.2 0 1 1 0 000-.2l.8.1a1.5 1.5 0 000-.2v-.3h.4v.3h.4v-.1l1 .1v.2h.5a1 1 0 000-.1h.3a1.1 1.1 0 010-.2h-.3a.6.6 0 010-.2h.3a1 1 0 000 .3h.8v-.1h.4a1 1 0 000 .2h.2v-.4h-.2v-.2l-1-.1a1 1 0 000-.2h-.1v.2l-1-.1v-.2h-.2v-.2h.8v-.1h-.4v-.2l-.5-.1v-.4l1.2.2a1.2 1.2 0 000-.2h-.1l-.8-.1v-.4h-.1v.2h-.2v-.2h-.4a1 1 0 010-.2h-.2v-.4l1.2.2a1.1 1.1 0 000-.2h.7v-.1l-.5-.1v-.4h.6v-.2l-1-.2v-.2h-.1v-.2l1 .2h.3v-.2h.4a1 1 0 010 .2h.1v-.3l-1-.1v-.4h.7v-.2h.4v-.4h.2v-.3h-.2v-.2h.3a1.4 1.4 0 000-.2h-.1v-.1h-.4a1 1 0 000-.2h-.2v.2h-.2a1 1 0 000-.2h-.2v-.2h.7l.8.2v-.2h.7a.6.6 0 010-.1h.3v-.2a1.5 1.5 0 00.3 0 1 1 0 000-.1h.8a1 1 0 010-.1h.4v-.2h.3v-.2h.4a.9.9 0 010-.1h.6v-.2h.5v-.2h.2a1 1 0 010-.1h.4v-.4h.4v-.2h.4v-.1h.4v-.2h.1v-.2h.4v-.1h.2a.6.6 0 010-.2h.4v-.2h.4a1 1 0 000-.1h.2v-.2h.3a.4.4 0 010-.2h1.7a1 1 0 010-.2.6.6 0 00.2 0h.4v-.3h.2v-.2h.4v-.1h.2a.9.9 0 010-.2h.3v.3h-.2v.3h-.1v.2h-.2v.3h-.4a1 1 0 000 .2h.6v-.1h.1a1.2 1.2 0 010-.2h.2v.2a1.8 1.8 0 010 .6h-.3a1 1 0 010 .1h-.1v.2h-.2v.1a.5.5 0 00-.2 0 1 1 0 010 .2h.2l-.1.6h.2v-.2h.4a.9.9 0 010-.2h.1v.4h.2v-.8h.2v-.2h.2v-.2h.2v.4a.4.4 0 00-.2 0v.2h-.2v.1h-.2v.2l.4.1v-.4h.6v.6h-.2a1.4 1.4 0 000 .2M887 182.8v-.2h.2v.2h-.2m3.7-10v-.2h.1a1 1 0 000 .2h-.1m.4-1h.4-.4m2.8-2.4a.8.8 0 010-.2h.4a.4.4 0 01.2 0l-.1.4-1.3-.1a1.2 1.2 0 000-.2h.2a.8.8 0 010-.2h.2a.9.9 0 000 .2h.3m1 0a.6.6 0 01-.2-.1v-.2h.4a.6.6 0 000 .3h.1v.3h-.2v-.2h-.1m2.4-1.2a1.2 1.2 0 010 .2h.2v.2h-.2v-.2h-.4v.2h-.2v.1l-1.3-.1v-.2h.2v-.2h.8v-.2h.7a1 1 0 010 .2h.2m-1.4-.7h-.4v.1a.6.6 0 01-.2 0 3.3 3.3 0 010-.4h.2a1 1 0 01.4.1.9.9 0 000 .2m1.7 1.3a.9.9 0 010-.1h.4a1 1 0 010 .2h-.4m1.1-1.4h-.3v.1h-.2v-.3h.2v-.2h.4v.4m.1.2v.2h-.3v-.2zm.4.4v-.3a1.3 1.3 0 00.1 0 .5.5 0 01.2 0 2.3 2.3 0 000 .3 1 1 0 01-.4 0m4-.7v.2h-.4v-.2h.4m.2 0v-.2h.2v.2h-.2m.5 3.6h-.2.2v.2m.4-.4h-.2v-.1h.2a1 1 0 000 .2m16.5-34a1.1 1.1 0 010-.2v.2m3-18.4h-.1l-.1.3h-.2v.2h.4l-.1.8h-.2v.2h.2v.6l-.1.3a1 1 0 000 .2h.1v.8h-.2v.1a.9.9 0 01.1 0l-.1 1.1a.3.3 0 01.2 0v.4h-.3v.7h.2a1.2 1.2 0 000 .2h-.2v.4h.1a.9.9 0 000 .2h-.3v.3h.2l-.2 1.2h.2a1.2 1.2 0 010 .1h-.2v.4h-.2a1.2 1.2 0 000 .2h.2v.2h-.2l-.2 1.3h.2v.2h-.2l-.2 1.8h-.2v.8h-.2l-.1.5h.1v.4h-.2v.8h-.2v.4h.1v.3a.4.4 0 00-.2 0 1 1 0 010 .1v.4h-.2l-.1.6h-.2a1.4 1.4 0 000 .2v.5l-.1.6h-.2l-.1.7h-.2v.2h.2a1 1 0 010-.2h.2v.4h-.2v.2h.2v.2a.3.3 0 00-.2 0v.1h-.2v.2h.2v.4h-.2v.3a.6.6 0 00-.2 0v.6h-.3v.4h.2v.3h-.2l-.1.8h-.2l-.1 1h-.2v.9h-.4a1.5 1.5 0 010 .2h-.2v.4h-.2a.9.9 0 010 .2h-.2v.7h-.2l-.1.3h.2v.6h-.3v.6h-.2v.3h-.2v.4h-.1l-.1.6h-.2v.5h-.2l-.2 1a.4.4 0 00-.2 0h-.1v.5h-.2v.3a.6.6 0 00-.2 0v.2h-.2v.4h-.2v.6h-.2v.3h-.3v.4a1.3 1.3 0 00-.1 0l-.1.5h-.2a1.2 1.2 0 010 .2h-.2v.6h-.2v.2h-.2v.1h-.2v.4h-.2v.2h-.2v.2h-.1l-.1.5h-.2v.2h-.2a.9.9 0 000 .1h-.1v.4h-.2v.2h-.2v.2h-.2v.1a.5.5 0 00-.2 0v.2h-.1a1 1 0 010 .2h-.2v.3h-.2v.2h-.2v.4h-.2v.2h-.2v.1h-.4a1.5 1.5 0 010 .2h-.2v.2h-.1v.2h-.2v.2h-.4a1 1 0 000 .1h-.1v.3h-.4v.4a.9.9 0 00-.2 0v.2h-.6v.1a.4.4 0 00-.2 0v.2h-.2v.1h-.3a.9.9 0 000 .2h.1v.4h-.5a.8.8 0 010 .1h-.4a1.4 1.4 0 000 .2h-.2v.4h-.2a1 1 0 000 .2h-.4v.2h-.3v.3h-.3a1.1 1.1 0 010 .2h-.5v.2h-.2v.3a.4.4 0 01.2.1 1 1 0 010 .2h-.3a1 1 0 000-.2h-.5v.1a2.3 2.3 0 00-.6 0 1 1 0 000 .2h-.2a.9.9 0 000 .1h-.7v.1h-.4a1.2 1.2 0 010 .2h-.3v.2h-.6v.1h-.2a1.1 1.1 0 000 .2h-.1l-1-.1v.1a.4.4 0 00-.2 0v.2h-.6v-.2h-.2v.3h-.4l.1-.6h-.4v.2h-.2a1 1 0 000-.2h-.2v.2a1.4 1.4 0 00-.3 0v.1h-.2v-.3h-.1a.9.9 0 000 .1 1.6 1.6 0 01-.3 0 .4.4 0 01-.2 0v-.2h-.3a.9.9 0 000 .2h-.5a.8.8 0 000 .1h-1a.4.4 0 000-.3h-.2v-.2h-.3v.2h-.4a1.5 1.5 0 010-.2h-.6a1.2 1.2 0 000-.2l-.3-.1a1.1 1.1 0 000 .2h-.8v.1h-.2a1 1 0 000-.1h-.3a1.5 1.5 0 000-.2 1.3 1.3 0 01-.2 0v-.2h-.4v-.2h-.7v.3h-.4a.4.4 0 000-.2h-.4a1 1 0 010-.2h-.3a.5.5 0 000-.3H887v-.1l-.4-.1v-.4h-.1v.4h.2l-.1.6h-.4v-.2a.4.4 0 000-.2h-.5v-.2l-.4-.1v-.3h-.2v-.2l-.6-.1v-.2h-.5v-.3h-.2a1 1 0 010-.1h-.2v-.2l-.7-.2a.5.5 0 000-.1h-.2a1.1 1.1 0 000-.2h-.2v-.2h-.2a.8.8 0 000-.1l-.5-.1v-.4h-.2v-.2h-.2a.8.8 0 000-.2h-.1l-.1.6h-.2v-.2h-.6a1.2 1.2 0 010-.3h.2v-.1h-.2a1.4 1.4 0 000-.2h-.5a.4.4 0 000-.3h-.2a3.6 3.6 0 010-.3h-.1v-.2h-.2v-.4h-.2v-.2h-.4a1 1 0 000-.2h-.4v.2h-.2v-.4a.6.6 0 000-.2 1.2 1.2 0 00-.3 0v-.2h-.2v-.3a.4.4 0 01-.1 0v-.5h-.2v-.1h-.2l.1-.6h-.4a.6.6 0 000-.2h-.1v-.4a.4.4 0 00.2 0v-.4a.4.4 0 000-.3v-.1l-.5-.1v-.2h.2v-.2h.2a.5.5 0 010-.2h-.4v-.4l.7.1v-.2h.2v.6h.3l.1-.6h-.2a.6.6 0 000-.2h-.1a.9.9 0 010-.2h-.2v-.4h-.3v-.4l.4.1a1.2 1.2 0 000 .2h.4v.2l.4.1h.5a1 1 0 000 .2h.3v.2h.2l.1-1 .8.1a1.2 1.2 0 010-.2h.4a1 1 0 000 .2h.1l.1-.4h.2v.2h.3v-.1h.8a1 1 0 010-.1h-.4v-.3h.4a1.2 1.2 0 000-.2H882.6a1.5 1.5 0 010 .2h.2v.2a.6.6 0 00.2 0 .9.9 0 000-.1h.7v-.3l.8.1h.1v-.2l.8.1v.2h.2v-.3a.4.4 0 00.2 0 .4.4 0 000-.2h-.2v-.2h-.2v-.2h.2v-.2h.2v.2h.5v-.3h.2v.2a.5.5 0 01.2 0 .8.8 0 010 .2h.4a1.8 1.8 0 000-.2h-.2v-.1h.4v.3h-.2v.2h.4v-.4h.3a1 1 0 000 .2h-.1v.4h.1v-.4h.2a1.5 1.5 0 000-.2 1 1 0 00.4 0v-.3h.4a1 1 0 000 .2 1.3 1.3 0 00.2 0v.1h.3l.1-.5h.4a1.1 1.1 0 000 .2.4.4 0 01.2 0 1 1 0 010 .2l.7.1v.4h.1a1.4 1.4 0 000-.2h.4v-.3h.2v-.2l1 .1h.1a1 1 0 000-.2h.2v.2h.2v-.2h.4v-.1l-.4-.1a.4.4 0 010-.2h.2v-.1h.2a1 1 0 000 .1l.4.1a1.2 1.2 0 010-.2h-.2a.9.9 0 010-.2h.2v-.2h-.2v-.4h-.2v-.1h.4v-.4h.2v-.1h.4v-.6l-3-.3v.1h-.1a1 1 0 010-.1h-.2v.1H890v-.1l-1-.1a1 1 0 000-.2h-.4a.9.9 0 000 .1h-.6a1 1 0 000 .2h-.3a1 1 0 010-.2h-.4v-.2a2.2 2.2 0 01-.6 0 .9.9 0 000-.2l-.5-.1a1.1 1.1 0 000-.2h-.2v.2h-.2v-.2h-.7a.6.6 0 000-.3h-.2v-.2h-.2v.2h-.3v-.2a.4.4 0 00.2 0v-.2h-.2v-.5h-.5v.1h.3v.4l-.7-.1v-.4a.5.5 0 00.2 0 1.5 1.5 0 000-.4h-.2v-.3h.2a1.4 1.4 0 000-.2.5.5 0 010-.2h.2v-.2h.2v-.2h.2v-.3h.2v-.4a.4.4 0 00.2 0 1 1 0 010-.2h.4l-.1 1h.2a.9.9 0 010-.2h.1v-.2h.2v-.2h.2v.2h.2v-.4h.2v-.2h.5v.5h.4a1.2 1.2 0 010-.2h.2a1.4 1.4 0 010-.2h.2a.8.8 0 000 .2.4.4 0 01.2 0v.2h.1l.1-.4h.2a.6.6 0 000 .2 1.2 1.2 0 00.3 0v-.2h.4v.6h.3v-.2a1.3 1.3 0 00.2 0v-.2h.2v-.2h.2v.4h.1a1 1 0 010-.2h.2a.8.8 0 010-.1h1v-.1h.3a1.1 1.1 0 000 .2h.2v-.3h.2a.9.9 0 010 .1h.4a1 1 0 010-.1h.4v.2l1.5.1h.2v.2h.3a1 1 0 010-.2h.4v.3h.2v.1h.4v-.1h.3a1.2 1.2 0 010 .2h.2v.1h.4v-.1h.3a1 1 0 000 .2h.4v.2l2.4.3v.2l1 .1a.9.9 0 000 .2h.7v-.7h-.3a1.4 1.4 0 000-.2h-.3v-.2h-.6v.1h-.6a.6.6 0 010 .2l-.5-.1v-.2h-.2a1.1 1.1 0 000-.2h-.2v-.2h-.2v-.2h-1v-.2l-.3-.1v-.2h-.6v-.2l-.3-.1v-.2h-.4v-.2a4 4 0 01-1.1-.2v-.1l-1-.1a1 1 0 000-.2l-.7-.1v-.2h-.2a.9.9 0 000-.2h-.5a1.4 1.4 0 010-.3h-.4v-.2h-.4v.2a.6.6 0 00-.2 0v.2l-1-.2a1.1 1.1 0 000-.1l-1.2-.2a.9.9 0 010-.2h-.5v-.2l-.6-.1a1 1 0 010-.2h-.5v-.2h-.4v-.2l-.7-.2a1 1 0 000-.1l-.8-.1h-.2v-.2h-.1v.2h-1v.1h-.2v-.1l-.7-.1h-.2v.4h-.4v-.6h-.2v.2h-.2v-.2h-.3v-.2h-.2v-.3h-.2v-.4h-.2a1.2 1.2 0 010-.2h-.3a.8.8 0 000 .2h-.2v.3h.2v.2h-.2v.2h-.2v-.4h-.4v-.4h.4v-.1l1.3-1.6a.6.6 0 000-.2h-.3v-.2-.8h-.1v-.2h-.2v.2h.2v.6h-.2v.2h.1a1 1 0 010 .2h.2v.2h.2v.3l.4.1v.2h-.4v.2l-.3-.1v-.2h-.2v-.1h.2a1.2 1.2 0 010-.2v-.4h-.6a1 1 0 000 .1h-.2a1.4 1.4 0 000 .2h.2v.2h-.2v.6h-.2v-.2h-.2v.2h-.2v.4a1.8 1.8 0 01-.4-.1v-.2h-.4v.4h-.1v-.2h-.2v.5h-.2a.9.9 0 010-.1h-.4v-.3h-.4v.4l-.4-.1a.9.9 0 000-.2h-.1v.2h.1v.2h-.1a1 1 0 000-.2h-.2v.3h-.2a.4.4 0 000-.1l-.5-.1a.4.4 0 000-.2h-.2v-.4h-.3v-.2h-.2v-.3h-.3v-.2h.2v-.4h-.2v-.3h-.1v.2h-.2v-.4h.2v-.4h-.4v-.4h-.1v.2h-.2v.2h-.2v.5h-.2v.6h-.3v.5h-.2a1 1 0 010 .2h.1v.4h-.1l-.1.4h-.2v.4h-.2v.1h-.4v.3h.2a.8.8 0 010-.1h.1v.5h.2v.4h-.1a.9.9 0 010-.2.8.8 0 01-.3 0 1.1 1.1 0 000-.2h-.1v-.2h-.2v-.2h-.6v-.4h.6v-.1h.2a1.4 1.4 0 000-.2h-.2v-.6.2h-.3a1 1 0 000-.2h-.2a1.8 1.8 0 010-.4h.3v-.3h-.2v.2a.8.8 0 01-.2 0v-.6a1 1 0 000-.4h-.3a1 1 0 000-.2h.2v-.4h-.2v-.2a.8.8 0 01-.2 0v-.3h-.2v-.2h-.3a1.4 1.4 0 010-.3h.7v-.2h-.2v-.6h-.1a1 1 0 000-.2.6.6 0 00.2 0 1 1 0 000-.1h-.2v-.2h.2a1 1 0 010-.2h.1v-.2h-.3a.9.9 0 000 .2h-.4v.2h-.2a1 1 0 000-.2h-.4v-.2a.4.4 0 01.1-.2l.4.1v.2h.3v-.2h.2v-.4h-.3v.2h-.4a1 1 0 010-.2h-.2v-.2h-.4a.6.6 0 000-.2h-.1v-.2a.4.4 0 01-.2 0 .3.3 0 010-.2h.1v.1h.2a1.4 1.4 0 010-.3h.2a1.1 1.1 0 000-.2h-.3a.8.8 0 000-.2h-.2v-.2h.2a1.2 1.2 0 010-.2h.2v.4h.3v-.4h-.1v-.2h-.2v-.7h-.1v-.2h-.2a1.4 1.4 0 010-.4h.4a1.3 1.3 0 010-.1h-.2v-.2h-.2v-.5-.4h-.3v-.4h-.2l.1-.4a.6.6 0 01-.2 0 1 1 0 000-.2h-.2v.4h-.2a.8.8 0 010-.2.7.7 0 01-.2 0v-.4h.2v.2h.2v-.2h.4v-.4a.4.4 0 00.2 0v-.3a.6.6 0 00.2 0 .4.4 0 000-.2h-.3a1.2 1.2 0 000-.2h.1v-.1l-.5-.1v-.2h.3v-.2h.2v-.4a.4.4 0 01-.1 0 .9.9 0 010-.2h-.2a1 1 0 000-.2.6.6 0 00.2 0v-.1a1.1 1.1 0 00.4 0 1 1 0 000-.2h.1v-.2h-.1v-.1h-.2v.1h-.2a1.5 1.5 0 010-.2h-.1a1.8 1.8 0 000-.4h-.2v-.3h-.2l.1-.6a.6.6 0 000-.2h-.3v-.2h-.4a.9.9 0 010 .2h-.2v-.4h.6a1.2 1.2 0 000 .2h.2v-.2a.6.6 0 000-.2h-.2v-.3h.2v-.2a1.7 1.7 0 01-.6-.1 1.1 1.1 0 010-.2h-.2a1.4 1.4 0 000-.2h.2v-.3a1.1 1.1 0 000-.2h-.3a.8.8 0 000-.2h-.2v-.2h-.2v-.4h-.2v-.2h-.1v.2h-.2a.9.9 0 010 .2h-.2v-.8h-.4v-.2h-.2a1.4 1.4 0 010 .2.8.8 0 01-.1 0v-.5h-.2v.2a1.3 1.3 0 01-.4-.1v-.2h-.1v-.1a.6.6 0 00.2 0v-.2a.8.8 0 01.1 0 1.3 1.3 0 000-.2.4.4 0 01-.2 0v-.4h-.1v-.7h-.1v.1h-.4v-.4h.2v-.3h-.2v-.2h.6v-.3h.6a.9.9 0 010 .2l.7.1a.9.9 0 000 .2h1a1.1 1.1 0 000 .3h1.1v.3l1.3.1a.8.8 0 010 .2l1.5.2h.2v.2h.2a1 1 0 010-.2h.1a1 1 0 010 .1l7.5 1v-.2h.4a1 1 0 010 .2h.2v.2l-.6-.1v.4h-.4v.3h-.2v.4h-.6v.4h.4v.3h-1v.1h-.4a1 1 0 000 .2h.6a.9.9 0 000 .2h.4a1.4 1.4 0 010-.2l.5.1v.2l.8.1v.4h.2v-.2h.2a.9.9 0 010 .2h.2a1 1 0 000-.2h.1a1 1 0 000 .2h.2a.9.9 0 000-.2h.4v.2h-.2a.8.8 0 000 .2h.2a.6.6 0 000 .2h.2v-.2h.2v.2h.3l-.2 1.4h-.1v.2h.1a1 1 0 010 .2h-.1l-.2.8h-.1a1 1 0 000 .1h-.2v.2a.4.4 0 01.2 0v.2h-.2v.2h-.2a1 1 0 010 .2h.2v.2h-.2l-.1.8h-.2a1.1 1.1 0 010 .1h-.3a.5.5 0 000 .2h.1v.3h-.2v.2h-.1l-.1 1h-.4v.5h-.3v.4h.2a1 1 0 010 .2h-.2v.6h-.2v.3h-.2v.2h.2l-.2 1h-.1v1.1h-.5v.8h-.2v.1h-.2v.2a.6.6 0 01.2 0v.2h.5a.3.3 0 000 .3h.2a1 1 0 010 .1h.2v.4h-.2v.2h.4a.4.4 0 000 .2h.1a1.2 1.2 0 000-.1h-.2l.1-.4h.3v.4h.4v.4h.2a.9.9 0 010 .1h.2a1.4 1.4 0 010 .2h.5v.2h.2v.4h.2l.1-.9h.2v.6h.2a1.4 1.4 0 000 .2h.2a.9.9 0 000-.2h.1a.9.9 0 000 .2h.4v-.4h.2a1 1 0 000 .2h.2v.1h-.3a1 1 0 010 .2.4.4 0 01.2 0v.3h-.2v.3h.3v.4a.6.6 0 010 .2h-.2v-.2h-.4a1.2 1.2 0 000 .2h-.2v.1h.2v.2h.2v.4h.2a.6.6 0 00.2 0 1 1 0 010-.2H884.2a.4.4 0 000-.3h-.1v-.1h-.4v-.2h.2v-.4h-.3a1 1 0 000-.2h.1l.1-.6h-.4v-.2h.4a1.4 1.4 0 000-.2h-.2a1.2 1.2 0 000-.2h-.2l.1-.6h.4a.8.8 0 010-.1h.3v.3h-.1v.2h.1v.4h-.1v.2h.1v.7h.3v-.3H885.1v-.3h.4v-.2h-.2v-.2h.4v-.3h.2v.4h.2v-.4h.4v-.5a.6.6 0 00.3 0 1 1 0 010-.2h.1a1.8 1.8 0 01.1-.4h.2v-.2h.4a1.4 1.4 0 00.4 0v-.4h.1a1.2 1.2 0 000-.2h.6v-.3h.2v-.2h.1v-.2h.2v-.2h.2a1.4 1.4 0 010-.2h.2a3 3 0 010-.3h.4v-.2h.2v-.2h.4a1.4 1.4 0 000-.2h.4a.9.9 0 000-.1h.3v.1h.2a1.5 1.5 0 000 .2h.4v.2h.2a.5.5 0 01.2 0 .8.8 0 000 .3h.3v-.4h.2v-.2h-.2a1.4 1.4 0 010-.2h.2a.9.9 0 000-.2h-.2v-.3h.4a1.2 1.2 0 010-.4h.4a1.1 1.1 0 000-.2l1 .1a1.1 1.1 0 000-.1h.5a.7.7 0 010-.2h.3v-.3h-.4a1 1 0 010-.2 3.1 3.1 0 01-1-.2v-.1h-.3v-.4a.4.4 0 00.2 0v-.1h.1v-.2h.2a1.3 1.3 0 000-.2h.2a.5.5 0 010-.2h.2v-.2h.2v-.2h-.2v-.2h-.1v-.1h-.2a.9.9 0 010-.2.7.7 0 01-.2 0v-.2a1.8 1.8 0 01-.6-.1v-.2h-.3v-.2h-.4a1 1 0 010-.2h-.4a.5.5 0 000-.2 4.9 4.9 0 01-.5 0h-.4v-.2l-.8-.1v-.2h-.7v-.3h-.2a1.2 1.2 0 000-.2h-.2a1.1 1.1 0 010-.2h.6v-.2h-.2a1.2 1.2 0 000-.1h-.2v-.4h-.1a1.2 1.2 0 000-.2h-.4a1.2 1.2 0 000-.2h-.2a1.2 1.2 0 000-.2h-.1v-.3h-.4v-.4h-.2a1.2 1.2 0 000-.2 6.5 6.5 0 01.2-1.3h.2v-.4h.2v-.3h.2a.4.4 0 010-.2h.2v-.4h.2l.1-.8h.2l.1-1h-.2v-.6l.1-.4h.2v-.8h.3v-.3h-.2v-.2h.3v-.4h-.1v-.7h.2a1.2 1.2 0 010-.2v-.3a5.1 5.1 0 00.2-1.2h.2l.2-1.8v-.2h.2l.1-1.3h.2l.1-.8h.2v-.3h.2v-.2h.2v-.4h.4v-.2h.2v-.2h.5v-.1l1.5.1h.3v.2a1 1 0 01.3 0 .9.9 0 010 .2h.4v.2h.2v.2a.4.4 0 01.2 0v.2h.2v.4h.2v.3h.1a.9.9 0 000 .3h.2v.3h.2v.6h.1v.4h.2l-.1.7h.1v.7h.2v.6h.1v.6h.1v.5h.2v.6h.1v.6h.2v.3h.1v.4h.2v.4h.1v.4h.2v.3h.2v.2h.1v.4h.2v.2h.2v.3a.6.6 0 01.1.1v.2h.2a1.5 1.5 0 010 .2h.2v.3h.2a1.2 1.2 0 000 .2h.1v.4h.2v.2h.2v.4h.1a.7.7 0 000 .2h.2v.1h.2v-.5h-.1a1.1 1.1 0 000-.4h-.2v-.6h-.1a.4.4 0 000-.2h-.2v-.1h.6v.2h.3a1 1 0 000 .2h.4v.2l.6.1v.2h.7v.3h.7a.6.6 0 010 .2h.2l.8.1v.2l1.5.2v.1l3 .4v.2a7.4 7.4 0 011.5.2l2.6.3v-.2h.5l2.3.3v-.1l1.3.1v-.2l.7.1h.2v-.1h2a1.3 1.3 0 000-.2l1 .1v-.1h.6a1 1 0 010-.1h.4a1 1 0 010-.2h.2v-.2a.7.7 0 00.2 0v-.1h.2a1.2 1.2 0 000-.2h.2v-.4h.2v.5h-.2v.2h.3a.7.7 0 01.2.1.7.7 0 010 .1m-44.4 26.3v-.1h.2-.1m1 2.9v-.2h.1v.2h-.2m.8-.1v.4h-.2a1 1 0 010-.4h.2m-.3-13v-.4h.2v.4h-.2m.3 13.8v-.2h.1a1.5 1.5 0 000 .2h-.2m2.2-6.9v-.3h.3v.1h-.1v.2h-.2m1 .1h-.2a1 1 0 000-.2h.1a1 1 0 000 .2m0 6h-.1a1.3 1.3 0 01.2 0m-.1-5.8v.2h-.3a.8.8 0 010-.2h.3m1.8 5.7v.4h-.4v-.4h.4m-.2-.2v-.1a.9.9 0 01.2 0 1 1 0 010 .1h-.2m1-.2a.8.8 0 000-.2h.2v.2h-.2m3.3-2.3a.7.7 0 010-.2h.2v.4h-.1a1 1 0 010-.2m-20.2-24h-.2a1 1 0 000-.1.4.4 0 01-.2-.1v-.2h-.2v-.1h.2v-.2h.4l-.1.8m.1.4v.2h-.2v-.2h.2m-.3 0a1.6 1.6 0 010 .1.9.9 0 01-.2 0 1.2 1.2 0 010-.2h.2m.2-2h-.2v.1h-.2v-.2h-.2a1.2 1.2 0 010-.1h.6v.2m-.4-1.2a.9.9 0 010-.1h.1a.9.9 0 010 .1h-.1m12.4-1.2v.1h-.2a.9.9 0 010-.2h.2m1.3 14a1 1 0 010 .2h-.1a1 1 0 010-.2h.1m0-12.3a.4.4 0 01.1-.2h.2v.2h-.2m0 14h.2v.3h-.2a.5.5 0 010-.2m0-1.1a1.2 1.2 0 000 .1.7.7 0 01-.2 0 1 1 0 000-.2h.2m-.4.2v.3h-.2v-.5h.2v.2m-.7-.3a1.2 1.2 0 010-.2h.3a1.2 1.2 0 010 .2h-.3m0 .4a1.1 1.1 0 000 .2 1.1 1.1 0 000-.2m-1-.5a1 1 0 010 .2h-.4v-.2h.4m2 2.8a.9.9 0 010 .2h-.2a.8.8 0 010-.2h.1m2.4-15.2a1 1 0 000-.2h.4a.6.6 0 010-.2h.1v-.1a.7.7 0 00.2 0v-.2h-.1a1.1 1.1 0 010-.2h.1v.2h.8a1.5 1.5 0 000 .3h-.2v.3a.5.5 0 00-.2 0v.2h-.2v.4h-.2v.2a1.3 1.3 0 01-.2 0v.2h-.2v.2h-.1a1 1 0 000 .1h-.4v-.2h-.2v-.2h-.2a1.1 1.1 0 010 .2h-.2v.2h-.2l.2-.7h.2v-.4h.2v-.1h.2a1 1 0 010 .1h.2m1-20.1v-.2h.2v.2h-.1m2.2.5v.2h.9v.3h.6a1 1 0 000 .2h-.8a1 1 0 010-.3H888.7V99l-1-.1a1.2 1.2 0 010-.2l-.7-.3a.9.9 0 010-.2l1 .2v.1l.8.1m12.7 6v.4h.2v.6h.3a1.4 1.4 0 000 .2h.4a.9.9 0 000 .2h.5a1 1 0 000 .2h.2v.8h.1v.2h.4v.2l1.3.1v.2l.8.1a1 1 0 000 .2h.1a.9.9 0 010-.2l1.2.1v.2l.5.1a1.4 1.4 0 010-.2h-.2a1 1 0 000-.2h-.2a1.5 1.5 0 010-.2h-.3v-.6h-.2v-.1h.2l.1-.7h.4v-.2h.3a1.5 1.5 0 000 .2h.2a1.2 1.2 0 000 .2h.2v1.1h.2v.2h.2v.2h.2v.3l.3.1a.4.4 0 000 .2h.2v.4h.3v.2H910.6a1.4 1.4 0 010 .2h.6v-.1h.7v-.1h.6v-.2h.2a.6.6 0 010-.2h.4v-.2h.2a1.2 1.2 0 010-.1h.2a1.4 1.4 0 000-.2h.1a.9.9 0 010-.2h.2a1.5 1.5 0 010-.2h.4a1.2 1.2 0 000 .2h-.2a.9.9 0 010 .2h.2v.4a2.8 2.8 0 01-.1.7h-.1v.5l.5.1v.2l1.1.1v.4a1 1 0 00-.4 0 .5.5 0 000 .2h.1v.2h-.1v.3h-.3a1.5 1.5 0 010-.2h-.7v.1h.2v.2a.4.4 0 01.2 0l-.1.5a.6.6 0 01.2 0v.5h.3v.3h.2a.9.9 0 010 .2l.7.1a1.4 1.4 0 010-.2h.2a.7.7 0 000 .2h.4a.6.6 0 01.2 0 1 1 0 010 .2h.5v-.3h.2a1.2 1.2 0 010 .2H918a1.2 1.2 0 010-.1h.2v.2h.6a1.4 1.4 0 010-.1h.2a1 1 0 010-.2h.7v.3h.5v-.1h.2v.1h-.2v.4a.4.4 0 01.2 0 .9.9 0 000 .2h.6a1 1 0 000 .5h.1v.3a1.1 1.1 0 00.4 0 1 1 0 010-.1h.2a1 1 0 010 .1l.5.1v.4h-.2v.6h-.2v.3h-.2v.2h-.2a1.4 1.4 0 000 .2h-.2v.4h-.2v.1h-.4a1 1 0 010 .2h-.7a.9.9 0 010 .1h.4a.8.8 0 000 .2h-.4v.2l-.7-.1a1.2 1.2 0 000 .2l-1.2-.2a.9.9 0 010 .2l-2-.2a1.1 1.1 0 000 .2l-2.3-.3v.1h-.7v-.1l-5-.6v-.2l-2.2-.3a1 1 0 000-.2l-1.9-.2a.9.9 0 010-.1l-.7-.2a.8.8 0 000-.1l-.6-.1v-.2h-.6a1 1 0 000-.2l-.3-.1v-.2h-.2v-.2h-.2a1 1 0 010-.1.5.5 0 01-.2-.1.9.9 0 000-.2h-.1v-.2a1.3 1.3 0 01-.2 0 1.2 1.2 0 010-.2h-.2a.3.3 0 000-.2h-.1v-.3h-.2v-.4h-.2l.1-.7a.4.4 0 01-.2 0v-.4h-.2v-.4h-.1v-.3h-.2v-.4h-.2v-.4h-.1v-.4h-.2v-.5h-.1v-.6h-.2v-.6a.5.5 0 01-.1 0v-.3-.4h-.1v-1h-.1v-1a1.2 1.2 0 010-.2v-.7l.2-1.6a.9.9 0 010-.1h.2v-.2h.1l.1-.4h.2a1 1 0 010-.2h.5a1 1 0 010-.1h.2v-.2h.2v-.2l1.3.1v.6a.4.4 0 00-.2 0 .9.9 0 000 .1h-.2l-.2 2h.1m1.6 1.6a.9.9 0 010-.2h.1v.2h-.1m.3.6a1 1 0 010-.2h.3a1.2 1.2 0 000 .2h-.3m.5.2v-.2h.1a1.2 1.2 0 010 .2h-.2m1 0v.3h-.1a1.2 1.2 0 010-.1h-.2v-.2h-.2v-.2h.4v.2h.2m2.3-5.4h.2v.4h-.2v-.4m0-3a1.4 1.4 0 010-.2h.2a.9.9 0 010-.1h.1v.1h-.1v.2h-.2m1.3 0v.2h-.4v-.2h.4m-.3-.2v-.4h.3v.4h-.4m.1 3.8v-.2l3.4.4a5 5 0 011.1.2H912.7a1 1 0 000 .1h.2a.9.9 0 010-.1h.9v.1l1.9.3v.1l.9.1h.2a.9.9 0 000 .2l1.7.2v.2l1.1.1v.2H920.5v.2l.6.1v.2h.3v.2h.4v.4h-.4v.4h-.3l-.1.3h-.2a.9.9 0 000 .2h-.2v.2h-.5a1 1 0 010 .1l.3.1v.3h-.3v-.3h-.2v.5h-1.4v-.2h-.4a1 1 0 010 .2h-.1a.6.6 0 000-.2h-.6a1.5 1.5 0 000-.2h-.4v-.2l-.7-.1v-.2h-.4a.9.9 0 000-.1l-.9-.2a1 1 0 000-.2h-.7a1 1 0 010-.2 3.2 3.2 0 01-1-.2.5.5 0 010-.1l-.7-.1v-.2l-.7-.1v-.2l-1-.1v-.2l-1-.1v-.2l-.7-.1a1 1 0 000-.2H908.3a1 1 0 000-.2h-.2v-.2h-.4v-.2h-.2a1.4 1.4 0 000-.2h-.1v-.2h.3a.8.8 0 000-.1h-.2m.7-4.1v-.2h.2v.2h-.1m1.5-.2a.3.3 0 010 .2.4.4 0 01-.2 0v-.2h.2m2.2 8.2a1.4 1.4 0 010 .2h-.2v.2h-.2v-.4h.4m3 5.5v.4h-.2v-.4h.1M925 65.8h.4v.2h-.4v-.2m-.8-.8h.1v-.2h.2a.9.9 0 000 .2h.2v.2h-.2v.7h-.3v-.6-.3m-2 37.4v.4h-.3v-.2h-.4v-.2l.7.1m-.8-.7h.2a1 1 0 010 .2h-.2a1.1 1.1 0 010-.2m-.5-2.5h.2v.2h-.2zm-.3-1h.2v.2h-.2a1.2 1.2 0 000-.2m-.7-37.6a.4.4 0 01.1.1v.2h-.2v-.2m-23 17h.2v.1h-.2v-.1m-9.3-.8h.3v.2h-.3a.9.9 0 000-.1m-2.2 1.2h.1v.2h-.1v-.2m-1.2.2h.2v.2h-.2a1.2 1.2 0 000-.2m-1.6 1h.1v.1h-.1a.9.9 0 010-.1m-6 5.3h.3a.9.9 0 010 .2h-.3a1.4 1.4 0 000-.2m-3.9 3.7h.2a.8.8 0 010-.2h.4V88h.2a1.4 1.4 0 000-.2h.4v-.1h.2v-.2h.2l.1-1h.2a1.2 1.2 0 000-.1h.2a1 1 0 010-.2.7.7 0 00.2 0V86h.2a.3.3 0 000 .2h.1a.8.8 0 010 .2.6.6 0 01.2 0 1 1 0 010 .2h.3a1 1 0 000-.1h-.1v-.6h-.1v-.2a.4.4 0 010-.2h.2a1.2 1.2 0 000 .2h.4a1 1 0 010-.2h-.2V85h.6a.9.9 0 000 .1h.4V85h.2v-.2h.4v-.3h-.2v.1h-.4v-.2h.2V84h.2v-.2h.2v-.4h.4a1.4 1.4 0 010-.4h.2l.1-.7h.2v.2h.4v-.2h-.2v-.2l.7.1v-.1h.2a1.2 1.2 0 000-.2h-.4v-.4h.6v-.1-.4h.2v-.4h.2v-.2h.9v-.1h.2v-.6h.2a.6.6 0 000 .2h.2a1.4 1.4 0 010 .2h.2v.7h.3v-.3a.4.4 0 01-.2 0 1 1 0 01.1-.4h.3l.1-.7h.2v-.2h.4v-.4h-.2l.1-.5h.4v.2h.4a.9.9 0 000 .2h.1a.9.9 0 000-.2h.2v-.3h.3V78h.1a1.5 1.5 0 000-.2h.2v.5h.3V78h.4a.9.9 0 010-.2h.2v.4h.2v-.4h.3a1.4 1.4 0 010-.2h.2v-.4h.2V77h.2a1.5 1.5 0 010-.2h.2v-.2h.4v-.1h.2v.5h-.3v.2h.4v-.2h.2v-.2h.4v-.6h.2V76h.2v-.1h.2v.1h.3v-.1h.4v.3h.2V76h.3v-.2h-.1a1 1 0 000-.1h-.2v-.4h.2v.4h.3a.5.5 0 010-.2h.3v.4h.1a1 1 0 010-.2h.2v-.2h.4a1.4 1.4 0 010 .2l.5.1a.4.4 0 010-.2h.6v.3h.6a.7.7 0 010-.2h.2v.2h.5v-.3h.4a1 1 0 010 .2h-.4v.3h.2a.6.6 0 00.2 0v-.2h.4v.3h.6a1 1 0 000-.2h.2v.2h.3v-.2h.4v.2l.6.1v.2h-.2a1.4 1.4 0 010 .2h.2a.3.3 0 000 .2.5.5 0 00.1 0 1 1 0 010-.2h.2a.5.5 0 01.3 1.4h.7a1.2 1.2 0 010 .3h-.2a1.4 1.4 0 010 .2h-.2a1.1 1.1 0 010 .2h.4v-.4h.3v-.4h.3v.2h-.1v.4H899.3a1 1 0 000 .2h.1v-.1h.4v.3h.2v.2h.2a1.1 1.1 0 010-.2h.1v.2a2 2 0 01.4 0v.2l.6.1h.3v.4l.6.1v.4h1.3v.1h.2v.2h.5a1.4 1.4 0 010 .2h.4v.4l.5.1a1 1 0 010 .2h.2a1.5 1.5 0 000 .2h.2a.9.9 0 010 .2H906.1v-.1a.4.4 0 00.2 0v-.1h.2a1.1 1.1 0 010 .1h.1v.2h-.1v.2h.2v.2h.1v-.2h.2v.2h1v.3h-.4v.1a.7.7 0 01.2 0v.4l.5.1a.9.9 0 010 .2h.2a1 1 0 010-.2h.2a1 1 0 010 .2h.3a.9.9 0 000 .1h.2v.3h.2v.1h.4v.2h.3v.2h.2v.2h.2v.4h.2v-.2h.2v.4h.2v.1a.6.6 0 01.2.1 1 1 0 010 .2 2.2 2.2 0 01.7 0v.5h.2v.1h.4v.2h.3v.2h.2v-.2h.6a1 1 0 000 .3.6.6 0 01.2 0 1 1 0 000 .1h.1v.4h-.2a.6.6 0 01-.2 0V87h-.2v.3l.4.1a.9.9 0 010 .2h.4a.9.9 0 000 .1.6.6 0 01.2 0v.3h.1v.1h.2v.2a.4.4 0 01.2 0v.4h.2v-.1h.2v.1h.2a.9.9 0 010 .2h.2v.2h.1a.4.4 0 000 .2h.2a.5.5 0 000 .2h.4v.2a.5.5 0 01.1 0v.2h.2v.3h.4v.2h.2a1.4 1.4 0 000 .2h.1v.2h.4a1 1 0 000 .2h.2a1 1 0 000 .2h.2v.4a.6.6 0 01.2 0v.2a.5.5 0 01.2 0 .9.9 0 000 .2h.2v.2h.1v.2h.4a1 1 0 010 .2h.2v.2h.1v.4h.2v.1h.4v.6l.3.1v.2h.4v.2h-.2v.2h.2v.1h.2a1.2 1.2 0 000 .2h-.4a1 1 0 010 .2l.7.1v.4h-.3v-.2h-.2v.3l.5.1v.4h.4v.2h.4l-.1.6h-.4v.2h.2v.2h.2v.2h.2v.3h-.2a1.4 1.4 0 000 .2h.2v.2h-.6v.1h-.6v.1h-.3a1 1 0 010 .2l.9.1a1 1 0 010-.2h.4v-.1h.2a.6.6 0 000 .2h.1v-.3l.4.1v.2h-.4v.2h-.5v.1h.3v.6h.2v.3h-.6a1.4 1.4 0 000 .2h.8a1.4 1.4 0 010 .2h-.4a1.1 1.1 0 000 .2h.7a.9.9 0 010 .2.4.4 0 01.2 0v.5h.2a1 1 0 010-.2h.2v.3l.5.1v.4h.2v.2h-.2v.1a2.5 2.5 0 01.8.2 1 1 0 000 .1l1 .2a1 1 0 010 .1l1.4.2v.2l1.1.1h.2a1 1 0 010 .2h1v.3h.7v.3h.2v.3h-.2v.2h.2v.2a.4.4 0 01-.2 0v-.2h-.4v-.2a.4.4 0 01-.2 0v-.2l-.5-.1v-.2l-.8-.1v-.2l-1-.1v-.2l-1.2-.1v-.2l-1.1-.2v-.1l-1.3-.2v-.2l-1.1-.1v-.2l-1.3-.2v-.1L918 103v-.2l-1.5-.1v-.2l-1.5-.2v-.2l-1.8-.2h-.2v-.2l-2.6-.3v-.2h.1l1.4.2a.9.9 0 010-.2h-.2v-.1h.9a1.4 1.4 0 000-.1h.6a1 1 0 010-.1h.5v-.2l1.3.2v-.2h.2v-.6l.6.1v.2h.2v-.2a1.4 1.4 0 00.4 0v-.1l-.8-.1a1.5 1.5 0 000-.2l-.9-.1a1.4 1.4 0 000 .2h-.4v-.3h.2v-.3h-.1v.1h-.6v.2h-1.1a1.2 1.2 0 000-.1h-.2a1.5 1.5 0 010-.2h-.2V99h.8a1.5 1.5 0 000-.1h.2v.3h.3a.5.5 0 01.1-.2l.5.1V99h.4v.2l.7.1V99h-.5a1 1 0 000-.2h-.4v-.2h-.2v.2h-.3v.1h-.2a.9.9 0 000 .2h-.2v-.3h.4v-.2h.1a1.1 1.1 0 000-.2h-.1v.1h-1.2a1 1 0 000 .1h-.2v-.2h-.4a1 1 0 010 .2h-.3a.5.5 0 000-.2h-.8a1 1 0 010 .1h-.7a1 1 0 010-.2h.2a1.2 1.2 0 010-.2h-.2v-.4h-.1v.2h-.8a.9.9 0 000 .1h-.2v-.4h-.3v.4h-.3a.9.9 0 010-.2h-.3v.2h.2a1.4 1.4 0 010 .2h-.4a1.4 1.4 0 010-.2 1.4 1.4 0 00-.4 0v.2h-.4a1.1 1.1 0 000 .1h-.3a1 1 0 010 .2h-.4v.1h-.4v.2h-.3a.9.9 0 010 .2h-.4v.2h-.2a1 1 0 000 .1h.4v.5h-.4v.3h-.4v.4h-.2a1.4 1.4 0 000 .2h-.2v.2h-.2v.1H903.4a.9.9 0 010 .1h-.6a1 1 0 000-.2h-.2v.2l-.5-.1a.9.9 0 010 .2l-1-.2v.2H900.2l-1.2-.6v.2h-.4v.1a1 1 0 00-.4 0v.2l-.9-.1v.1h-.8v-.2h-.1v.2a1.6 1.6 0 01-.4-.1v-.2l-1.7-.2a.8.8 0 000-.2l-1.2-.1v-.2l-.8-.1v-.2h-.7v-.2l-.6-.1a.9.9 0 000-.2h-.2v-.4h.2v-.2h.4a.9.9 0 010-.1h-.2v-.4h-.2a1.2 1.2 0 000-.2h-.2a1.4 1.4 0 010-.2h-.2a1.4 1.4 0 010 .2l-1.3-.2v-.2h-.2v-.3h-.5V97h-.2v-.2h-.3a1.4 1.4 0 000-.2h-.2a1.1 1.1 0 000 .2h-.3a1.2 1.2 0 000-.4h-.2v-.2h-.2V96l-1-.1a1 1 0 000-.2h-.2a1.2 1.2 0 010-.2h-.2a1.5 1.5 0 010-.2h.2a1 1 0 000-.1h-.4v-.3h-.2v-.5h-.1a.4.4 0 00-.2 0v.6h-.4v-.2h-.2v-.4h-.2v.2h-.1a.9.9 0 000-.2h-.2a.9.9 0 010-.2h-.2a.6.6 0 010 .2h-.2v-.2h-.2a.9.9 0 000-.2h-.3a1 1 0 000-.2h-.2v.4h.2v.1h-.4V94h-.2v-.1a1.8 1.8 0 01-.4-.1v-.2a.6.6 0 000-.2h-.1v-.1l-.8-.1a1.4 1.4 0 000-.2h-.1v-.2h-.4v.3h-.2V93l-.4-.1v.2h.4v.1h-.2a.6.6 0 01-.2 0v-.2h-.3a1 1 0 010 .2h-.4v-.2h.4v-.2h-.2v-.1l-.8-.2a.9.9 0 000-.1h-.3v.1h-.4v.2h-.2a.9.9 0 000-.2 3.3 3.3 0 01-.7-.1h-1a1 1 0 010 .2h-.3v.2h-.4a.6.6 0 000-.2h-.4v-.3h.2v-.1l-1-1.1v-.6h-.2a.9.9 0 000 .2h-.8a1 1 0 010 .1h.6v.4h-.8v-.8h.3v-.1l-.6-.1a1 1 0 000-.2h.2a1.4 1.4 0 000-.2h-.2a1.4 1.4 0 010-.2h-.2v-.2h.4v-.5h.2a1.4 1.4 0 000-.4.4.4 0 00-.1 0 .9.9 0 000 .2h-.2a1 1 0 010 .1h-.3a1 1 0 000-.4m48.4 13.4v.1h-.2a.9.9 0 000-.1h.2m-7.8-1.4v-.1h.6v.2h-.6m1-.5a1 1 0 000-.2h.2v.2h-.2m.5.2h-.1a1 1 0 000-.1h.1a1 1 0 000 .1m0 0h.4a.9.9 0 010 .2h-.4v-.2m-30.4 7.5v-.1h.4v.3h-.2a1 1 0 010-.2h-.2m-.2-1.3a1.2 1.2 0 010 .2h-.2v-.2h.2v-.2h.4v.2h-.4m.1.4a1 1 0 010 .2h-.4a1.6 1.6 0 010-.3l.4.1m0-1.5v-.2h.1a.9.9 0 010 .2h-.1m.3.4a.9.9 0 010-.2h.2v.2h-.2m-1.2-7.1a1 1 0 010 .1h-.2a1.2 1.2 0 010-.2.4.4 0 01.2 0m-3.8 2.8v.4a1 1 0 01-.4 0v-.2h-.1v-.2h.5a.9.9 0 000-.2h-.5v-.4h.2v-.1h.4v.3h.2v.2h.3a.5.5 0 010-.1h.2v.3h-.3zm.3-1.8v.1h-.4v-.2h-.4v.2h-.7a1 1 0 000 .1l-1.5-.1h-.8a.5.5 0 000-.2 3.3 3.3 0 00-.9 0h-.4V99h-.2v.1h-.8v-.4l-.8-.1a1.4 1.4 0 010-.2h.2v-.2h-.1a1.5 1.5 0 000-.2h-.2v-1h.3l.5.2a3.2 3.2 0 01.8 0l1.3.2v-.2h.2a.9.9 0 000 .2h.3v-.2l4 .5v.2h.2a1 1 0 000-.2h.4a1 1 0 000 .2l2 .2v.8a.7.7 0 01.1 0v.5h-.7a1.4 1.4 0 000 .1l-2.4-.3m-5.2 6a1 1 0 010 .2.4.4 0 00-.2 0 .9.9 0 010 .2h-.4v-.2h.4v-.2h.2m-.8.1v.2h-.2v-.2a.6.6 0 01.2 0m-.6 4.9v.1h-.2v-.1h.2m-.5-18.3v-.2h.2a.6.6 0 010-.1h.4v.2h-.3a.9.9 0 000 .1h-.2m1.5 0a.6.6 0 010-.1h.2a.7.7 0 000 .1 1.3 1.3 0 00-.2 0m2.3.1h-.4V92h.4v.2m.5 3.6v.2h-.6a1 1 0 010-.2zm1-2.5h-.3V93h.4zm.2 1.7a1 1 0 010 .2h-.3V95h.3m0-1.9a.7.7 0 010-.1h.2a.5.5 0 010 .1h-.1m.5.1a1 1 0 010 .2h-.2a.8.8 0 000-.2h.2m0-.8a.4.4 0 010-.2h.1a1.4 1.4 0 000 .2h-.2m1.3.8a1.2 1.2 0 000 .1h.2v.2a.5.5 0 01.2 0v.2h-.3a1 1 0 000-.2h-.3a.5.5 0 010-.2h-.4v-.4h.2a1.1 1.1 0 010 .1h.4m-7.4-4.3a1 1 0 01.3.3v.2h-.4a1.4 1.4 0 000-.2m-.1 1.5h.1v.3h-.2l.1-.3m-6.6 18.5v.2h.3a1.2 1.2 0 010 .2h.4a1.5 1.5 0 000 .2l.8.1v.2h.4v.2l1.3.2v.2h.3a.9.9 0 000-.2h.2a1.2 1.2 0 000 .2 1.4 1.4 0 00.4 0 1 1 0 010-.2h.2a1.4 1.4 0 000 .2h.2a1.2 1.2 0 010-.2h.1a.9.9 0 010 .2l.8.1a.9.9 0 000 .2h.4a1 1 0 000-.1h.2a1.2 1.2 0 000-.2h.4v-.2h.1v.2h-.1v.1h.1a.6.6 0 000 .3h.4v-.2h.2a1.5 1.5 0 010-.2h.5a1.4 1.4 0 000-.1h.4v-.4h.2v-.2h.2a1.2 1.2 0 010-.2h.2v-.1h-.4v-.5h.2v-.3h.2v-.2a1.4 1.4 0 00.4 0v-.3h.4v-.2a.7.7 0 00.2 0v-.2h.4v-.1h.7v-.2h.4v-.1h.4a1 1 0 000-.2h.4a1 1 0 000-.2h.3v-.1h.4a.9.9 0 000-.2h.2v-.4a1.1 1.1 0 01-.4 0v-.2h-.1a1.2 1.2 0 010-.2h.3v-.2h-.7a.9.9 0 000 .2h-.2a1.4 1.4 0 000-.2h-.6a.9.9 0 000 .1h-.2v-.3.1h-.3a1 1 0 01-.4 0v-.2h-.3v.2a2.6 2.6 0 01-.6-.1.4.4 0 00-.2 0v.2h-.2v.1h-.2l.1-.3h-.2a.9.9 0 010-.2h.2a1.2 1.2 0 010-.2h.5a.6.6 0 01.1-.1h.2a1.4 1.4 0 010 .2h.1l.1-.4h.7v-.1h.6a.5.5 0 010-.2h.4a1 1 0 000-.1h.5v-.2h.3a.9.9 0 010-.2h.5a1.1 1.1 0 010-.1h.2v-.2h.2v-.2h.2a.5.5 0 010-.1h.2v-.2h.1v-.2h.2a.4.4 0 010-.2h.2v-.4h.2l.2-1v-.3a2.1 2.1 0 000-.5.7.7 0 01.1-.2h.4a1.2 1.2 0 010 .2h.5a.9.9 0 010 .2.5.5 0 01.2.1v.2h.2v.9h.2v.4h.1a.6.6 0 000 .2h.2v.5h-.2v.2h.2l-.1.6h-.4a1.2 1.2 0 000 .2h-.3v.2h.3v.5h.1v-.2h.4v.4h.2v.2h.2v-.6h.4v.2h.2a.9.9 0 000 .2h.2a1 1 0 010-.2h.2l-.1.8h-.4l.1-.6h-.2v.2h-.4a1.2 1.2 0 010 .2h.4a.9.9 0 010 .2h-.4a1.2 1.2 0 000 .2h-.2a.6.6 0 000 .2h.2a1.2 1.2 0 010 .2h.2v.7h.1a1.5 1.5 0 010-.2h.2v-.2h.2v.4h.2a.6.6 0 000 .2h.1v-.2h.4a1.2 1.2 0 010 .2h-.2a1 1 0 000 .2h-.2v.3l.6.1v.4h.1v.2h.4v.7h.1a1.5 1.5 0 010 .2h-.2v.4h-.1l-.1.6h-.2l-.1.9h-.3l-.1.5h-.2v.2h.4v.3h-.2v.2h-.6v.1l.6.1v.2h-.6a.8.8 0 010 .2l-.8-.1v.1h-1.6a3.6 3.6 0 01-1 0h-.2l-.9-.2a1 1 0 010 .2h-.5v-.2l-2.6-.4v-.2l-2.4-.3v-.1l-1.4-.2a1 1 0 000-.2l-1.3-.2a1 1 0 010-.1 3.3 3.3 0 01-.9-.2v-.1l-.8-.1v-.2l-.7-.1v-.2h-.5a1.4 1.4 0 010-.2l-.6-.1a1.2 1.2 0 010-.2h-.6v-.2l-.9-.1a1.4 1.4 0 010-.2h-.2v-.2h-.2a1.4 1.4 0 000-.2h-.1v-.6h.2a.4.4 0 000 .2h.1v.4h.5M877 107v-.3-.4a1.3 1.3 0 01.4 0 1 1 0 010 .2h-.2v.6h-.3m6.2-1h.2a1.1 1.1 0 010 .2h-.2zm0 0h-.1v-.1h.1a.9.9 0 000 .2m-18.3 1.3v-.5h.2v.5a.5.5 0 01-.2 0m.3-7.4h.4a.9.9 0 000 .1h-.4v-.1m0 .5h.1v.5h-.2zm-.2 1.1h.2v.6h-.2v-.6m0 .8v.1-.1m-.2.3a.6.6 0 01.2 0v.2h-.2v-.2m-7.4-12h.2v.2h-.2v-.2"/><path id="path1460" class="cls-4" d="M940.7 100.3v-.2h-.2v.2h.2"/><path id="path1462" class="cls-4" d="M939.7 97.5v-.2h-.2a1.2 1.2 0 000-.1h-.2v.3h.4"/><path id="path1464" class="cls-4" d="M936.2 89h.1v-.2a1 1 0 010 .2"/><path id="path1466" class="cls-4" d="M940 98.9h.2v-.4a.6.6 0 00-.2 0v.3"/><path id="path1468" class="cls-4" d="M939.5 95.6h-.2.2"/><path id="path1470" class="cls-4" d="M940 99.2h.3a.9.9 0 000-.1h-.4v.1"/><path id="path1472" class="cls-4" d="M939.7 97.7v.4h.2v.2h.3v.1h.2v-.1a.4.4 0 000-.2h-.2v-.4h-.5"/><path id="path1474" class="cls-4" d="M880.2 106.1h-.2v.2h.2a.8.8 0 010-.2"/><path id="path1476" class="cls-4" d="M936.9 91.5h.1a.4.4 0 000-.2h-.1v.2"/><path id="path1478" class="cls-4" d="M888.3 190.9h.2v-.2h-.2v.2"/><path id="path1480" class="cls-4" d="M937.8 93.3h.3a.9.9 0 010-.2h-.3v-.8h-.1l-.2 1.3h.2a1 1 0 010-.3"/><path id="path1482" class="cls-4" d="M939 95.5a1.4 1.4 0 000-.2h-.1v.2h.1"/><path id="path1484" class="cls-4" d="M937.7 93.8h.2a.8.8 0 010-.1h-.2v.2"/><path id="path1486" class="cls-4" d="M936.9 90.5h-.1v.2h.2a.3.3 0 000-.1"/><path id="path1488" class="cls-4" d="M887.3 187.8l-.6-.1v.4h.6v-.3"/><path id="path1490" class="cls-4" d="M883.8 188.7v-.2a.6.6 0 01-.2 0 .7.7 0 010-.2h-.2v.4a2 2 0 00.4 0"/><path id="path1492" class="cls-4" d="M877 138.6v-.1h-.3v-.2h-.2a1 1 0 010 .1 1 1 0 000 .3 1.6 1.6 0 00.4 0"/><path id="path1494" class="cls-4" d="M876.1 138.5h.2v-.1h-.1a1 1 0 010 .1"/><path id="path1496" class="cls-4" d="M885.8 187.8h-.4v.1h.4v-.2"/><path id="path1498" class="cls-4" d="M885.2 187.7h-.5v.1h.5"/><path id="path1500" class="cls-4" d="M888 191h.2a1.2 1.2 0 010-.1h-.2v.1"/><path id="path1502" class="cls-4" d="M889 188.7a1 1 0 010 .2 1.1 1.1 0 010-.2"/><path id="path1504" class="cls-4" d="M883 188.8h.2v-.2h-.2v.2"/><path id="path1506" class="cls-4" d="M879.8 112.8l.4.1a1 1 0 000-.2h-.4a1.1 1.1 0 000 .2"/><path id="path1508" class="cls-4" d="M882.6 107h-.4v.2h.4a1 1 0 000-.2"/><path id="path1510" class="cls-4" d="M882.8 106.8h-.2v.2h.2v-.2"/><path id="path1512" class="cls-4" d="M881.9 106.7h-.2v.2h.2a1.4 1.4 0 000-.2"/><path id="path1514" class="cls-4" d="M880.7 106.4h-.1v-.4h-.2l-.1.7h.4z"/><path id="path1516" class="cls-4" d="M882.6 105.6v-.1h-.2v.3h-.2a.7.7 0 000-.2h-.2v-.1h-.2v.1a.6.6 0 00-.2 0v.2h-.1l-.1.6h-.2a1.2 1.2 0 010 .1h.4v-.1h.3l.1-.4h.2l-.1.5h.2v-.1h.2v-.2h-.2v-.2a.6.6 0 00.2 0v-.2h.2a1.2 1.2 0 000-.1h-.2"/><path id="path1518" class="cls-4" d="M880.8 105.8v.2h.2v.2h.2v-.4z"/><path id="path1520" class="cls-4" d="M883.8 107.9h-.2v.1h.2v-.1"/><path id="path1522" class="cls-4" d="M882.2 112.8h.6a1 1 0 000-.1h-.6"/><path id="path1524" class="cls-4" d="M882.8 106.4h-.1a1.2 1.2 0 010 .2h.1v-.2"/><path id="path1526" class="cls-4" d="M881.3 117.2h-.3a1.4 1.4 0 000 .2h.3v-.1"/><path id="path1528" class="cls-4" d="M878.6 132.2h.2a1 1 0 010-.2h-.2a1 1 0 000 .2"/><path id="path1530" class="cls-4" d="M878.9 116h-.4v.2h.4a1.1 1.1 0 010-.2"/><path id="path1532" class="cls-4" d="M877.3 132.4h.2a1.2 1.2 0 010-.1h-.2a.4.4 0 000 .2"/><path id="path1534" class="cls-4" d="M878.5 117.6h.2a1 1 0 000-.1h-.2a.9.9 0 000 .1"/><path id="path1536" class="cls-4" d="M876.5 134.2h-.2a1.2 1.2 0 010 .2h.4v-.3h-.2a1 1 0 000 .1"/><path id="path1538" class="cls-4" d="M877.2 134.5h-.4a1.4 1.4 0 000 .2h.2v.1l.4.1a1.4 1.4 0 010-.2h-.2v-.2"/><path id="path1540" class="cls-4" d="M879.7 131.6h.1v-.2h-.1v.2"/><path id="path1542" class="cls-4" d="M879.7 131.2h-.2a1 1 0 010 .2h.2v-.2"/><path id="path1544" class="cls-4" d="M879.5 132.9h.2a.9.9 0 000-.2h-.2v.2"/><path id="path1546" class="cls-4" d="M879.7 130.7h-.1v.3h.1v-.3"/><path id="path1548" class="cls-4" d="M875.8 133.6h.2a.9.9 0 000-.2h-.2a1 1 0 000 .2"/><path id="path1550" class="cls-4" d="M878.5 131.8a1.2 1.2 0 010 .2h.2a1.2 1.2 0 010-.2h-.2"/><path id="path1552" class="cls-4" d="M878.6 130.7h.2v-.1h-.2v.1"/><path id="path1554" class="cls-4" d="M879.1 131.5h.2a1.2 1.2 0 000-.2h-.2v.2"/><path id="path1556" class="cls-4" d="M871 124.5h.2a3.3 3.3 0 010-.3h-.2v.3"/><path id="path1558" class="cls-4" d="M872.3 129.6h.4a.7.7 0 010-.2h-.4v.1"/><path id="path1560" class="cls-4" d="M872 124.8h-.3v.3h.2v-.3"/><path id="path1562" class="cls-4" d="M870.6 119h.1a1 1 0 000-.2h-.1v.2"/><path id="path1564" class="cls-4" d="M870.4 116.7h-.1v.3h.1z"/><path id="path1566" class="cls-4" d="M870.4 118.6a.9.9 0 000 .2h.2a1 1 0 010-.2h-.2"/><path id="path1568" class="cls-4" d="M871.1 127h.2v-.2h-.2a1 1 0 010 .2"/><path id="path1570" class="cls-4" d="M871.8 125.8h.2v-.2h-.2a1.4 1.4 0 010 .2"/><path id="path1572" class="cls-4" d="M872 130.5h.6v-.1l-.6-.1v.2"/><path id="path1574" class="cls-4" d="M872.3 131.5h-.2v.3h.1z"/><path id="path1576" class="cls-4" d="M872.4 131.9h-.2v.7h.3v-.3h-.2v-.4"/><path id="path1578" class="cls-4" d="M872.3 127.9v.1h.2l.1-1a.7.7 0 01-.2 0v-.4h.3a1.2 1.2 0 010-.2h-.2a1 1 0 000-.2h-.7v.3a1.3 1.3 0 00.2 0l-.1.3a.4.4 0 00-.2 0v.2h-.2v.4a.4.4 0 01.2 0v.2h.2v.4h.3a1.2 1.2 0 000-.2h.2"/><path id="path1580" class="cls-4" d="M872.4 129.2a1.3 1.3 0 01-.2 0v.2h.2a.8.8 0 000-.2"/><path id="path1582" class="cls-4" d="M906.5 109.6h-.2a1.4 1.4 0 000 .2h.2v-.2"/><path id="path1584" class="cls-4" d="M912.6 87.5l-.1.3h.2v-.3h-.2"/><path id="path1586" class="cls-4" d="M879.7 131.2h.2a.9.9 0 000-.2h-.2v.2"/><path id="path1588" class="cls-4" d="M907.5 108.6a1 1 0 000-.2h-.1a1 1 0 000 .2h.1"/><path id="path1590" class="cls-4" d="M911.5 98l-.6-.1v.1h.6V98"/><path id="path1592" class="cls-4" d="M911 86.9h.3a1.1 1.1 0 000-.2h-.4a.9.9 0 000 .2"/><path id="path1594" class="cls-4" d="M885.9 79.1V79h-.2a.9.9 0 010 .1h.2"/><path id="path1596" class="cls-4" d="M913.4 111.8h-.2v.2h.2v-.2"/><path id="path1598" class="cls-4" d="M911.7 113.3a1 1 0 010 .2h.6v-.2h-.2v-.1l-.8-.1v-.2h-.1v.2h-.2a1 1 0 010 .1l.7.2"/><path id="path1600" class="cls-4" d="M906.5 110l-.1.4a1.2 1.2 0 01.2 0v.1l.4.1v.2a.4.4 0 01.2 0v.2a2.1 2.1 0 01.3 0 1 1 0 010 .2h.4v.2a2.2 2.2 0 01.5.1v.2h.4v.2h.4v.2h.4v.2h.5v.2l.5.1a1.1 1.1 0 000 .2h.6v-.1h-.3a1 1 0 000-.2.5.5 0 01-.3-.1v-.1h-.1a.9.9 0 000 .1h-.2v-.4h-.2v-.1h-.2v.3h-.1v-.4h-.5v-.2h-.2a1.1 1.1 0 000-.2h-.4v-.2l-.4-.1v-.1l-.4-.1a.9.9 0 000-.2h-.2v.2h-.2a.7.7 0 010-.2h.2a1 1 0 000-.2h-.4v.1h-.1v-.3h-.4a1.5 1.5 0 000-.2h-.3"/><path id="path1602" class="cls-4" d="M914.8 111.4h.2v-.4a1.2 1.2 0 01-.2 0 1.1 1.1 0 000 .2h-.2v.4h.2z"/><path id="path1604" class="cls-4" d="M879.7 115.3h-.2v.2h.2a1.2 1.2 0 000-.2"/><path id="path1606" class="cls-4" d="M913.6 111.6h-.2v.2h.2v-.2"/><path id="path1608" class="cls-4" d="M881.4 81.7h.2v-.2h.2v-.2h-.4v.4"/><path id="path1610" class="cls-4" d="M919.9 100.6h.1a1 1 0 000-.2h-.1a.9.9 0 000 .2"/><path id="path1612" class="cls-4" d="M882.4 133.8h.2v-.2h-.2v.2"/><path id="path1614" class="cls-4" d="M884.3 135.2h.2v-.4a.8.8 0 00-.1 0z"/><path id="path1616" class="cls-4" d="M884.4 133.3h.1a.8.8 0 000-.2h-.1a.9.9 0 010 .2"/><path id="path1618" class="cls-4" d="M920.9 103.4h.3a1 1 0 010-.2h-.3v.2"/><path id="path1620" class="cls-4" d="M884.6 132.7h.2v-.1h-.2a.9.9 0 000 .1"/><path id="path1622" class="cls-4" d="M881.9 133.4h.2v-.2h-.2a1.2 1.2 0 010 .2"/><path id="path1624" class="cls-4" d="M880.2 131.8h.2a1 1 0 000-.1h-.2a1 1 0 000 .1"/><path id="path1626" class="cls-4" d="M899.8 124.5h-.2a.5.5 0 000-.2h-.2v-.1h-.1v-.2h-.2a.7.7 0 000-.2h-.4v-.2l-.5-.1v-.2h-.6a1.1 1.1 0 000 .1h-.6v.2a1.1 1.1 0 00-.3 0v.2h-.2v.1h-.4v.2h-.2a1.4 1.4 0 000 .2 1.2 1.2 0 01-.2 0 1.1 1.1 0 000 .2.6.6 0 00-.2 0 1 1 0 000 .2h-.3l.3.2v.1l.8.1v.2h.5v.3h.2a.9.9 0 010 .1h.2v.2h.4v.4h.1v.4h.2v.2h-.2v.4h-.2a.9.9 0 010 .1h-.2a1.5 1.5 0 010 .2h-.2v.2h.2v.2h.1v.2h.3a1 1 0 000 .1l.7.1a1 1 0 000-.1h.5l.1-.3h.2v-.4h.2v-.4h.3a1 1 0 010-.2.4.4 0 00.2 0 .9.9 0 010-.1h.1l.1-1h-.1a1 1 0 000-.2h.1v-.4h-.1v-.7"/><path id="path1628" class="cls-4" d="M920.1 98.2h-.2v.2h.2a.9.9 0 000-.2"/><path id="path1630" class="cls-4" d="M920.8 102.5h.2a1.4 1.4 0 000-.2h-.4v.3h.2v-.1"/><path id="path1632" class="cls-4" d="M885.3 141.2h.2v-.2h-.2a1.4 1.4 0 000 .2"/><path id="path1634" class="cls-4" d="M880.6 155.7h.1a1 1 0 000-.1h-.1a1 1 0 000 .1"/><path id="path1636" class="cls-4" d="M871 125.8v.4h.2l.1-.5h-.4.2"/><path id="path1638" class="cls-4" d="M879.3 116.8a1.2 1.2 0 01-.2 0v.2h.2a.9.9 0 010-.2"/><path id="path1640" class="cls-4" d="M883.9 93.1h-.2a.9.9 0 010 .2h.2v-.2"/><path id="path1642" class="cls-4" d="M887.3 78.6h-.2a1.2 1.2 0 000 .2h.2v-.2"/><path id="path1644" class="cls-4" d="M887.4 78h-.2a.8.8 0 010 .2h.2V78"/><path id="path1646" class="cls-4" d="M901.4 175.5h-.1v.1h.2v-.1"/><path id="path1648" class="cls-4" d="M900.8 174.6h-.2a1 1 0 010 .2h.2a.9.9 0 010-.2"/><path id="path1650" class="cls-4" d="M885.5 93.7h-.2v.2h.2z"/><path id="path1652" class="cls-4" d="M905.4 98.3h-.2v.4h.2v-.4"/><path id="path1654" class="cls-4" d="M905.3 99h-.2v.2h.2v-.1"/><path id="path1656" class="cls-4" d="M888 78.1h-.3a.9.9 0 010 .2h.2V78"/><path id="path1658" class="cls-4" d="M905.8 97.8h-.2v.2h.2v-.2"/><path id="path1660" class="cls-4" d="M905 99.3h-.1a.8.8 0 010 .1h.2v-.2"/><path id="path1662" class="cls-4" d="M891.6 77.4h-.2v.2h.2v-.2"/><path id="path1664" class="cls-4" d="M887 180.2v-.2h-.3v.2h.4"/><path id="path1666" class="cls-4" d="M899 177h-.2v.3h.4a.9.9 0 010-.2h.2v-.2h-.4v.2"/><path id="path1668" class="cls-4" d="M890.7 184.6h.2v-.4h-.1z"/><path id="path1670" class="cls-4" d="M890.8 174.7h-.4v.2h.5v-.3h-.1v.2"/><path id="path1672" class="cls-4" d="M890 177h.3a1.5 1.5 0 010-.3h-.4v.2"/><path id="path1674" class="cls-4" d="M898.6 177.4h.2v-.2h-.2v.2"/><path id="path1676" class="cls-4" d="M906.3 98h.2a1 1 0 000-.1h.4a.9.9 0 000-.2h.4a1 1 0 010-.1h.2v-.2H906.6a1 1 0 000 .3h-.2a1.4 1.4 0 010 .2h-.2v.3h.2a1.4 1.4 0 010-.2"/><path id="path1678" class="cls-4" d="M892 172.2v.4h.2v-.4h-.2"/><path id="path1680" class="cls-4" d="M900 179.4h-.2a1 1 0 010 .2h.2a1.1 1.1 0 000-.2"/><path id="path1682" class="cls-4" d="M899.8 179.6h-.2v.2h.2a1.5 1.5 0 000-.2"/><path id="path1684" class="cls-4" d="M899.7 174.7h.1a.8.8 0 000-.2h-.1a.9.9 0 000 .2"/><path id="path1686" class="cls-4" d="M899.3 174.8h-.4a1 1 0 010 .1.4.4 0 00-.2 0 1 1 0 010 .2h-.2v.2h.4v-.2h.2v-.2a1.2 1.2 0 00.2 0 1 1 0 010-.1h.4a.5.5 0 000-.2h-.4a.6.6 0 010 .1"/><path id="path1688" class="cls-4" d="M894 184h.2v-.2h-.2a.9.9 0 010 .2"/><path id="path1690" class="cls-4" d="M892.1 172.6v.4h.2v-.2a.7.7 0 000-.2h-.2"/><path id="path1692" class="cls-4" d="M900 169a1.2 1.2 0 01-.2 0v.2h-.2a.4.4 0 000 .2.8.8 0 00.2 0v.1h.1a.4.4 0 010-.2h.2v-.1h.2v-.4h-.4a1.4 1.4 0 000 .2"/><path id="path1694" class="cls-4" d="M880.5 133.6a1 1 0 010 .2h.2v-.2h-.2"/><path id="path1696" class="cls-4" d="M908 97.3h-.2a.9.9 0 000 .2h.1z"/><path id="path1698" class="cls-4" d="M872.4 130v-.2h-.3a1.1 1.1 0 000 .2h.3"/><path id="path1700" class="cls-4" d="M884.9 135.4a1 1 0 010 .2h.2v-.2h-.2"/><path id="path1702" class="cls-4" d="M889.9 175.6h-.6l.6.2z"/><path id="path1704" class="cls-4" d="M868.2 114.3h-.1v.2h.2v-.2"/><path id="path1706" class="cls-4" d="M881.8 132.4h-.2a.8.8 0 000 .2h.2v-.2"/><path id="path1708" class="cls-4" d="M880.6 117h.2a1 1 0 010-.2h-.4a1.2 1.2 0 010 .2h-.1v.1h.3a.7.7 0 010-.2"/><path id="path1710" class="cls-4" d="M892.5 147.3a1.2 1.2 0 000-.2h-.2v.2h.2"/><path id="path1712" class="cls-4" d="M879.7 126.1h-.2v.2h.2v-.2"/><path id="path1714" class="cls-4" d="M880 116.9h-.3a.9.9 0 010 .1h.4v-.1"/><path id="path1716" class="cls-4" d="M882 117.1h-.2v.4h.1v-.4"/><path id="path1718" class="cls-4" d="M886.7 148.3v-.2h.2v-.1h-.5v.3h.3"/><path id="path1720" class="cls-4" d="M879.4 127.8v-.2h-.4v.3h.2v-.1a.4.4 0 00.2 0"/><path id="path1722" class="cls-4" d="M916.8 99.7h.1v-.4h-.3a1 1 0 000 .2.4.4 0 01.2 0 1 1 0 010 .2"/><path id="path1724" class="cls-4" d="M917.5 100.2h-.2v.3h.1v-.3"/><path id="path1726" class="cls-4" d="M915.5 98.6h-.1v.2h.1a.6.6 0 000-.2"/><path id="path1728" class="cls-4" d="M917.4 100.9h.2v-.2h-.2a1.1 1.1 0 010 .2"/><path id="path1730" class="cls-4" d="M912 87.4h-.2v.2h.2a1.4 1.4 0 000-.2"/><path id="path1732" class="cls-4" d="M912.1 87.8a.9.9 0 000-.2h-.2v.2h.2"/><path id="path1734" class="cls-4" d="M916.9 100h.2v-.1h-.2v.2"/><path id="path1736" class="cls-4" d="M918.4 100.3a.6.6 0 00.2 0v-.2h-.4v.2h.2"/><path id="path1738" class="cls-4" d="M918.5 101h.2a1 1 0 010-.2h-.2v.2"/><path id="path1740" class="cls-4" d="M918 100h-.5a1.5 1.5 0 000 .1h.5z"/><path id="path1742" class="cls-4" d="M881.6 134.5a1.3 1.3 0 01.1 0v-.2a.7.7 0 00-.2 0 1 1 0 000 .1"/><path id="path1744" class="cls-4" d="M918.2 100.4v-.2h-.2v.2h.2"/></g><g id="g1750"><path id="path1748" class="cls-3" d="M819 142.1a2.6 2.6 0 00-1-.8 2.5 2.5 0 00-1.2-.2 5.6 5.6 0 00-1.6.5l-7 3.3a5 5 0 00-1.4 1 2.3 2.3 0 00-.7 1 2.8 2.8 0 000 1.4 8.7 8.7 0 00.6 1.6l1.6 3.3 13.2-6.2-1.5-3.4a8 8 0 00-.9-1.5m-9.6 7.3l-.3-.7a.8.8 0 010-.7 1.9 1.9 0 01.8-.6l6.1-2.9a2 2 0 011-.2.8.8 0 01.6.5l.3.6zm6-17.5l-14 4.4 1 2.9 13.9-4.5zm-2.6-11.8l-2.6.5.5 3-3.6.7-.5-3-2.6.5.5 3-3 .5-.5-3-2.6.4 1 6 14.5-2.6zm-11.8-4.6a5.3 5.3 0 002-.4 5.3 5.3 0 001.4-.9 7.2 7.2 0 001-1.2l.8-1.1a4.5 4.5 0 011-1 2.2 2.2 0 011.2-.3 1.7 1.7 0 011 .1.8.8 0 01.3.7c0 .6-.4.9-1.2.9h-1v3h1.5a5.6 5.6 0 001.7-.3 2.4 2.4 0 001-.7 2.7 2.7 0 00.5-1.2 8.3 8.3 0 00.1-1.7 7.3 7.3 0 00-.3-1.9 2.4 2.4 0 00-1.9-1.7 7.9 7.9 0 00-2-.2 5.3 5.3 0 00-2 .4 5.5 5.5 0 00-1.3 1 7.2 7.2 0 00-1 1.1l-.8 1.2a5 5 0 01-.9.9 1.8 1.8 0 01-1 .4 1.6 1.6 0 01-1-.2.8.8 0 01-.3-.6c0-.6.4-1 1.2-1h.8l-.1-2.8h-1.2a3.5 3.5 0 00-2.7 1 4.3 4.3 0 00-.7 2.8 6.7 6.7 0 00.3 1.8 2.8 2.8 0 00.7 1.2 2.6 2.6 0 001.2.6 6.6 6.6 0 001.7.1M813 96.1l-2.6-.3-.4 3.1-3.6-.4.3-3-2.7-.3-.3 3-3-.3.3-3.2-2.6-.3-.7 6.2 14.5 1.6zm-11.5-8.4a6.4 6.4 0 001.5.6 5.3 5.3 0 002.1.2 5.2 5.2 0 001.6-.5 6.7 6.7 0 001.3-.8l1.1-.9a5 5 0 011.2-.6 2.2 2.2 0 011.3 0 1.7 1.7 0 01.8.5.8.8 0 01.1.7c-.1.5-.6.7-1.4.5l-1-.3-.7 2.9 1.3.3a5.7 5.7 0 001.7.3 2.3 2.3 0 001.2-.4 2.8 2.8 0 00.9-1 7.8 7.8 0 00.6-1.7 7.8 7.8 0 00.2-1.8 2.5 2.5 0 00-.3-1.3 2.6 2.6 0 00-1-1 7.7 7.7 0 00-1.8-.6 5.4 5.4 0 00-2-.2 5.6 5.6 0 00-1.6.5 6.9 6.9 0 00-1.3.8l-1.1.9a5 5 0 01-1 .6 1.7 1.7 0 01-1.2 0 1.6 1.6 0 01-.9-.4.8.8 0 010-.7c0-.5.5-.7 1.3-.5l.8.2.7-2.8-1-.3a3.4 3.4 0 00-3 .2 4.3 4.3 0 00-1.5 2.6 6.5 6.5 0 00-.2 1.8 2.9 2.9 0 00.3 1.3 2.6 2.6 0 001 1M823 64a7.8 7.8 0 00-1.7-1.1 5.3 5.3 0 00-2-.7 5.8 5.8 0 00-1.6 0 6.8 6.8 0 00-1.4.6l-1.4.5a4.7 4.7 0 01-1.2.4 1.7 1.7 0 01-1-.3 1.7 1.7 0 01-.8-.6.8.8 0 010-.7c.4-.5.9-.6 1.6-.2l.7.4 1.4-2.5-1-.6a3.4 3.4 0 00-2.9-.5 4.3 4.3 0 00-2 2 6.7 6.7 0 00-.7 1.8 2.8 2.8 0 000 1.3 2.4 2.4 0 00.7 1.2 6.7 6.7 0 001.3 1 4.9 4.9 0 003.7.6 6.7 6.7 0 001.4-.5l1.3-.5a4.8 4.8 0 011.3-.3 2.2 2.2 0 011.3.3 1.6 1.6 0 01.7.6.8.8 0 01-.1.7c-.3.5-.8.6-1.5.2l-.9-.5-1.4 2.6 1.2.7a5.7 5.7 0 001.6.6 2.3 2.3 0 001.2 0 2.8 2.8 0 001.1-.8 8.1 8.1 0 001-1.5 7 7 0 00.7-1.7 2.5 2.5 0 000-1.3 2.7 2.7 0 00-.7-1.2m-7-12.5l11.7 8.8 1.8-2.4-11.7-8.8zm17.4-2.2l-2.6-2.5 2-2.2-1.8-1.9-2.1 2.2-2.2-2 2.2-2.4-1.9-1.8-4.2 4.4L833 53.4l4.2-4.5-1.9-1.8zm5.7-13.5l1.6 2.1.7-.5L843 40a.8.8 0 01.2.6 1 1 0 01-.4.5 1 1 0 01-.6.3.9.9 0 01-.6-.4l-5-6.6a.9.9 0 01-.2-.6 1 1 0 01.4-.5 1 1 0 01.7-.3.8.8 0 01.5.4l.5.7 2.4-1.8-.6-.8a5.5 5.5 0 00-1-1 2.4 2.4 0 00-1.2-.5 3 3 0 00-1.4.2 7.4 7.4 0 00-1.6 1 4.2 4.2 0 00-1.8 2.5 3.5 3.5 0 001 2.6l5.3 7a2.8 2.8 0 002 1.2 3 3 0 002.1-.7 3.2 3.2 0 00.6-.6 1.8 1.8 0 00.4-.6 2.6 2.6 0 00.1-.6 4.6 4.6 0 000-.8l1 .6 1.5-1.2-5.4-7zm14.6-2l-1.7-3.2 2.6-1.5-1.3-2.3-2.6 1.4-1.5-2.6 2.8-1.6-1.3-2.3-5.4 3 7 12.8 5.5-3-1.3-2.3zm11-5.1l-4.3-11.2-2.8 1.1 5.2 13.6 5.7-2.2-1-2.5zm23.1-8.4a5.3 5.3 0 00-1-1.3 6.3 6.3 0 00-1.3-.9l-1.2-.7a4.8 4.8 0 01-1-.8 1.8 1.8 0 01-.5-1 1.8 1.8 0 01.1-1 .8.8 0 01.6-.3c.6-.1 1 .3 1 1l.2.9 2.8-.4-.1-1.1A3.5 3.5 0 00886 12a4.3 4.3 0 00-3-.4 6.8 6.8 0 00-1.7.4 2.8 2.8 0 00-1 .8 2.5 2.5 0 00-.6 1.2 6.9 6.9 0 000 1.7 5.4 5.4 0 00.6 2 5.2 5.2 0 001 1.3 7.3 7.3 0 001.2 1l1.3.6a4.5 4.5 0 011 .9 2.2 2.2 0 01.5 1.2 1.6 1.6 0 01-.1 1 .7.7 0 01-.6.3c-.6 0-1-.3-1-1l-.2-1-3 .3.2 1.3a5.2 5.2 0 00.4 1.7 2.3 2.3 0 00.8 1 2.7 2.7 0 001.2.4 7.6 7.6 0 001.8 0 6.8 6.8 0 001.8-.4 2.5 2.5 0 001.1-.8 2.7 2.7 0 00.5-1.3 8 8 0 000-1.9 5.3 5.3 0 00-.6-2m10.4-9.3a4.3 4.3 0 00-3 .7 3.5 3.5 0 00-1 2.6l-.2 8.3a3.5 3.5 0 00.7 2.6 5.7 5.7 0 005.8.2 3.5 3.5 0 001-2.6l.1-2.5-3-.1v2.6a.5.5 0 01-.3.5 1 1 0 01-.6.2.8.8 0 01-.5-.3 1.3 1.3 0 01-.2-.8l.3-7.8a1.2 1.2 0 01.2-.8.7.7 0 01.6-.2 1 1 0 01.5.2.6.6 0 01.2.5v2.2h3v-2a3.5 3.5 0 00-.7-2.6 4.2 4.2 0 00-2.9-1m15 7.8l-1.7-.3 1.1-5.5-3-.6-2.7 14.4 3 .5 1.1-6.2 1.7.4-1.2 6.2 3 .5L917 14l-3-.6zm6.1 10.8l3 1 1.1-2.3 2 .7-.6 2.6 3 1 2.7-14.6-3.7-1.4zm8.5-9.9l-1.8 6.7-1.3-.5 3-6.2zm12.9 6.2l2.8 1.5 1.3-2.4-5.4-3-7 12.8 2.5 1.4 3-5.5 2.7 1.5 1.3-2.3-2.6-1.5zm9.4 9.7l1.8-2.4 2.5 1.9 1.6-2.1-4.9-3.7-8.8 11.6 2.4 1.8 3.8-5 2.4 1.8 1.6-2.1zm14.4 9l1.8-2-5.1-5.2-1.9 1.8 1.6 1.6-8.5 8.4 2 2.2 8.6-8.5zm2.5 24l13.9-5.3-1.5-2.6-10.5 4.5 9-6.9-1.5-2.6-11.3 9.5zm5.7 12.4l2.5-1-1.2-3 3.4-1.3 1.1 2.8 2.5-1-1.1-2.8 2.8-1 1.1 2.9 2.5-1-2.3-5.7-13.5 5.4zm2.4 8.2l6.1-1.5.2.8c.1.6 0 1-.5 1l-4.9 1.2a1.3 1.3 0 00-.5.3l.7 3a.7.7 0 01.4-.3l1.1-.3 3.1-.7a3.9 3.9 0 002-.9 2 2 0 00.4-1.5 2 2 0 00.5.8 1.8 1.8 0 00.6.4 2 2 0 00.7 0 3 3 0 00.7 0l1.7-.4a4.1 4.1 0 001.4-.5 2 2 0 00.7-1 3 3 0 00.2-1.2 9.2 9.2 0 00-.2-1.7l-.9-3.7-14.2 3.3zm11.6-2.7l.2.7a.8.8 0 01-.1.8 2.8 2.8 0 01-1.2.4 2.4 2.4 0 01-1.2.1.9.9 0 01-.4-.6l-.2-.7zm2.2 13.2l-12 .9.3 3 12-.9v2.2l2.8-.2-.6-7.4-2.7.2zM977 113.8l6.3.5v.8q-.1 1-.9.9l-5-.4a1.4 1.4 0 00-.6.1l-.2 3a.7.7 0 01.5-.1h1.1l3.2.3a3.8 3.8 0 002-.3 2 2 0 001-1.3 2 2 0 00.2.9 1.8 1.8 0 00.5.5 2.4 2.4 0 00.7.4 3.4 3.4 0 00.6 0l1.8.2a4 4 0 001.4 0 2.1 2.1 0 001-.7 3 3 0 00.6-1.2 9 9 0 00.3-1.6l.3-3.9-14.6-1zm9 .7l3 .2-.1.8a.8.8 0 01-.4.7 2.8 2.8 0 01-1.2 0 2.3 2.3 0 01-1.2-.2.8.8 0 01-.2-.7zm-10.8 11.7l2.5.9-.5 2-2.6-.3-.7 3 14.8 1 1-3.9-13.7-5.8zm5 1.8l6.6 2.3-6.9-1zm-6.5 9.3a2.3 2.3 0 00-1.3.2 2.5 2.5 0 00-1 1 7.9 7.9 0 00-.8 1.4 8.2 8.2 0 00-.5 1.7 2.7 2.7 0 000 1.3 2.4 2.4 0 00.7 1 5.2 5.2 0 001.5 1l10.6 4.3 1.1-2.8-10.2-4.2a1.8 1.8 0 01-.8-.5 1.1 1.1 0 01.5-1.3 1.6 1.6 0 011 .2l10.2 4.2 1.1-2.7-10.6-4.4a5 5 0 00-1.6-.4m-10 16.6l2.3 1.4 1.6-2.7 3.1 1.9-1.6 2.6 2.3 1.3 1.5-2.5 2.6 1.5-1.6 2.7 2.2 1.4 3.2-5.3-12.5-7.5zm-5 6.7l7.7 6.6-9.4-4.6-2.4 2.8 11 9.5 2-2.1-8-6.7 9.6 4.7 2.4-2.8-11.1-9.5z"/></g></g><path id="path870" d="M240.6 471.3a4.6 4.6 0 01-4-1.6l-30.5-35.1 19.6-29.3a6 6 0 013.6-2.7l5.1-1.6-1.3-10-33 4.5 1.4 10h8l-25.1 37.8-4.3-31.5a3.6 3.6 0 010-1.9c.2-.3.8-.5 1.7-.7l8.3-2.2-1.4-10-39.8 5.5 1.3 9.9 8-.2a2.3 2.3 0 011.7.4 3.4 3.4 0 01.7 1.8l8.8 64.4a3.4 3.4 0 01-.1 2 2.5 2.5 0 01-1.6.8l-7.8 2 1.4 10 41-5.7-1.3-9.9-9.8.3c-1 0-1.5 0-1.8-.3a3.8 3.8 0 01-.6-2l-1.8-13.4 6.6-10.5 28.5 33 27.8-3.7-1.4-10zm98.1-13.5c-1.7-.2-2.8-.7-3.3-1.7l-38-74-22.2 3-17 81.3a4 4 0 01-2.8 2.8l-5.3 2.1 1.3 9.9 35-4.8-1.2-9.9-10.1.3 2.6-13.7 31.2-4.3 6.3 12.5-10.2 2.6 1.3 9.8 39.7-5.5-1.3-9.8zm-59-18.8l6.9-35.8h.7l15.9 32.6zm123.5-6.5l-.2 12.9c0 .9-.7 1.5-1.8 1.6l-22.4 3-8.8-64.2a3.5 3.5 0 010-1.9c.2-.3.8-.5 1.7-.8l10.3-2.4-1.4-10-41.8 5.8 1.3 10 8-.3a2.6 2.6 0 011.7.4 3.4 3.4 0 01.7 1.9l8.8 64.4a3.5 3.5 0 01-.1 1.9 2.4 2.4 0 01-1.6.8l-7.8 2 1.4 10 69.6-9.6-3.7-27.4-13.9 1.9zm78.8-9.2l-.5 11.3c0 1-.7 1.5-1.8 1.7l-22.5 3-3.5-25.2 29.4-4-1.9-14-29.4 4-3.4-24.8 19.8-2.7a2 2 0 012.3 1.3l3 9.4 14-1.3-3.5-25.4-66.8 9.2 1.3 10 8-.3a2.5 2.5 0 011.7.3 3.4 3.4 0 01.7 2l8.8 64.5a3.4 3.4 0 01-.1 1.9 2.3 2.3 0 01-1.6.8l-7.8 2 1.4 9.9 69.6-9.6-3.6-25.9zM584.7 354l8.3-2.1-1.4-10-35 4.7 1.4 10 8-.1a2.6 2.6 0 011.7.3 3.4 3.4 0 01.7 1.9l7.1 52.3-48.4-60.4L496 355l1.3 9.8 8-.2a2.5 2.5 0 011.7.4 3.4 3.4 0 01.6 1.9l8.9 64.6a3.3 3.3 0 01-.1 2 2.3 2.3 0 01-1.6.8l-7.8 2 1.4 9.7 35-4.8-1.4-9.7-8.6.1a2.5 2.5 0 01-1.7-.3 4 4 0 01-.6-2l-7.2-52.3 49.1 60.2 20.6-2.8-10.6-77.6a3.4 3.4 0 010-1.9c.2-.3.8-.5 1.7-.8m91.5-12q-12.6-10-35.6-6.9l-40.7 5.6 1.3 10 8-.3a2.3 2.3 0 011.8.4 3.5 3.5 0 01.6 1.9l8.8 64.2a3.3 3.3 0 01-.1 2 2.5 2.5 0 01-1.6.8l-7.8 2 1.4 10 38.6-5.2q23.6-3.3 33.7-17.4t7.1-36q-2.9-21.1-15.5-31.1M647 413.2l-7.2 1-8.7-63.8 8-1.1q15.1-2 23 4.3t10 23.4q4.5 32.2-25 36.2m112.1-27.8l-.5 11.3c0 1-.7 1.5-1.8 1.6l-22.5 3.1-3.5-25.2 29.4-4-1.9-14-29.4 4-3.4-24.8 19.8-2.7a2 2 0 012.3 1.4l3 9.3 14-1.3-3.5-25.4-66.8 9.2 1.3 10 8-.3a2.6 2.6 0 011.7.3 3.4 3.4 0 01.7 2l8.8 64.5a3.5 3.5 0 01-.1 1.9 2.4 2.4 0 01-1.5.8l-7.8 2 1.3 9.9 69.6-9.6-3.5-25.9zm106.3 1.6l-8-.2a4.9 4.9 0 01-4-1.9l-9.4-17q-4.1-7.6-8.7-9 15.6-9.6 13.3-26.4-1.5-11.1-9.3-17.2t-23.4-4L773 317l1.4 10 8-.3a2.3 2.3 0 011.7.5 3.3 3.3 0 01.6 1.8l8.8 64.3a3.5 3.5 0 010 2 2.5 2.5 0 01-1.6.7l-7.8 2 1.3 10 40.1-5.4-1.3-10-9 .1c-1 0-1.5 0-1.7-.3a3.8 3.8 0 01-.6-1.9l-3.3-23.6 6-.8a7.8 7.8 0 014.8.5 9.5 9.5 0 013.3 4.1l15.7 30 27.4-3.7zM826 348.3c-2.7 2.4-6.8 4-12.2 4.7l-5.7.8-3.7-27 6.3-.8c5.7-.8 10-.5 13 1s4.6 4.6 5.3 9.3q1.1 8.4-3 12m-377.6-67.1q-8.8-7-25-4.8l-28.4 3.9 1 7 5.6-.2a1.6 1.6 0 011.1.3 2.4 2.4 0 01.5 1.3l6.2 45a2.4 2.4 0 01-.1 1.4 1.7 1.7 0 01-1.1.6l-5.5 1.3 1 7 27-3.7q16.6-2.3 23.6-12.2t5-25.2q-2-14.7-10.8-21.7M428 331l-5 .7-6.1-44.7 5.5-.8q10.6-1.4 16 3t7.2 16.5q3 22.5-17.6 25.3m78.5-19.5l-.3 8c0 .6-.5 1-1.3 1l-15.8 2.2-2.4-17.7 20.6-2.8-1.3-9.8-20.6 2.9-2.4-17.4 13.8-1.9a1.4 1.4 0 011.7 1l2.1 6.5 9.7-1-2.4-17.7-46.8 6.4 1 7 5.6-.2a1.8 1.8 0 011.2.2 2.3 2.3 0 01.4 1.4l6.2 45.1a2.4 2.4 0 010 1.4 1.6 1.6 0 01-1.1.6l-5.5 1.4 1 6.8 48.7-6.6L516 310zm74.4 1.1l-5.5-.1a3.4 3.4 0 01-2.9-1.3l-6.6-12q-2.8-5.3-6-6.3 10.9-6.7 9.3-18.5a17.7 17.7 0 00-6.5-12q-5.4-4.3-16.4-2.8l-30 4.1 1 7 5.6-.1a1.6 1.6 0 011.2.3 2.5 2.5 0 01.5 1.2l6.1 45a2.3 2.3 0 010 1.4 1.8 1.8 0 01-1.2.6l-5.5 1.3 1 7 28-3.8-1-7h-6.2a1.8 1.8 0 01-1.2-.2 2.7 2.7 0 01-.4-1.3l-2.3-16.5 4.1-.6a5.4 5.4 0 013.4.4 6.6 6.6 0 012.4 2.9l10.9 21 19.2-2.7zm-27.7-27a16 16 0 01-8.5 3.3l-4 .5-2.6-19 4.4-.5q6-.8 9.1.7t3.7 6.5q.8 5.9-2 8.4"/><path id="path872" class="cls-3" d="M96.7 884.2a42.5 42.5 0 00-7.3-5.2 96.9 96.9 0 00-8.9-4.1 136.5 136.5 0 01-10-4.6 15.1 15.1 0 01-4-3 13 13 0 01-2-3.2 8.5 8.5 0 01-.8-4.5A9.6 9.6 0 0168 852c2.6-1.7 6.2-2.3 10.8-1.9a30.4 30.4 0 019.1 2.3 2.7 2.7 0 011.3 2.6l.5 10.3 14.1 2.7 2.4-24.6a66.4 66.4 0 00-25.3-7.6q-15.2-1.5-25.2 4.8T44.3 861q-1.4 14.5 9 22.1 4.2 3.2 16.2 7.9l6 2.6a24.4 24.4 0 014.5 2.8 9.6 9.6 0 013.2 4 10.7 10.7 0 01.7 5.1q-1.2 11.8-17 10.2a43.8 43.8 0 01-10.5-2.4 2.5 2.5 0 01-2-2.5l-1.3-12.2-14.1-1.4-2.4 24.6a56.6 56.6 0 0012.1 4.8 86.2 86.2 0 0016.3 3.2q15.6 1.5 26.2-4.6t12-20.7a29.3 29.3 0 00-1-11.8 18.4 18.4 0 00-5.5-8.5m32.5-30.5q-13.4 11.7-15.4 32.8-4.7 47.6 39.6 52 20.2 2 32.2-3.8l2.3-23.5-13.5-1.3-3 11.5a4.4 4.4 0 01-.9 1.9 3 3 0 01-1.6.5 42.7 42.7 0 01-12.8.5q-12-1.2-17.9-10.3t-4.2-25.5q1.6-15.8 9.4-23.4t20-6.3a37.3 37.3 0 0111 2.6 2.8 2.8 0 011.9 2.5l.8 12.5 13.8 2.5 2.4-24.7q-10.3-8.3-28-10-22.6-2.2-36 9.5m128.4 11.4l7.9 1.7a2.5 2.5 0 011.5.7 3.3 3.3 0 01.2 2l-2.3 23.8-34.6-3.3 2.3-23.9a3.4 3.4 0 01.5-1.8c.3-.2.8-.4 1.8-.4l8.5-.1 1-10.1-40-4-1 10.1 7.9 1.7a2.5 2.5 0 011.6.7 3.4 3.4 0 01.2 2l-6.4 64.7a3.4 3.4 0 01-.5 1.8 2.4 2.4 0 01-1.7.5l-8 .1-1 9.8 40 4 1-9.9-8.4-1.8c-1-.2-1.5-.4-1.7-.7a3.8 3.8 0 010-2L229 904l34.6 3.4-2.6 26.7a3.3 3.3 0 01-.6 1.8 2.3 2.3 0 01-1.7.5h-8l-1 10 39.9 3.9 1-9.9-8.4-1.8c-1-.2-1.5-.5-1.6-.8a3.8 3.8 0 01-.2-2l6.4-64.5a3.5 3.5 0 01.5-1.8 2.5 2.5 0 011.7-.4l8.6-.2 1-10-40-4zm96.7 76.5c-.3 1-1 1.3-2.2 1.2l-22.5-2.2 2.4-25.4 29.6 3 1.3-14-29.5-3 2.5-24.9 19.8 2a2 2 0 012 1.9l.8 9.7 13.8 2 2.5-25.5-67.1-6.6-1 10 7.9 1.7a2.6 2.6 0 011.6.7 3.5 3.5 0 01.1 2L310 939a3.4 3.4 0 01-.6 1.9 2.3 2.3 0 01-1.7.5h-8l-1 10 70 6.8 2.5-26-13.8-1.4zm31.2-64l9.2 1.8a2.7 2.7 0 011.6.7 3.4 3.4 0 01.1 2l-6.3 64.7a3.2 3.2 0 01-.6 1.9 2.4 2.4 0 01-1.7.4h-9.3l-1 9.8 42.4 4.2 1-9.8-9.6-2c-1-.2-1.5-.5-1.7-.8a3.8 3.8 0 010-2l6.2-64.5a3.5 3.5 0 01.5-1.8 2.5 2.5 0 011.8-.4h9.8l1-10.1-42.4-4.2zm48 21l14 1.3 3-10.8c.3-1 1-1.3 2.2-1.2l13 1.3-6.3 64.2a3.2 3.2 0 01-.6 2 2.5 2.5 0 01-1.7.4l-13-.4-1 10 50.4 5 1-10-13.8-2.4c-1-.2-1.5-.4-1.7-.7a3.6 3.6 0 01-.1-1.9l6.3-64.3 13 1.3c1.2.1 1.8.7 1.9 1.6l1 11.2 13.7 1.3 2.5-26.1-81.2-8zM572 963c-.3 1-1 1.3-2.1 1.2l-22.6-2.2 2.4-25.4 29.6 3 1.3-14-29.5-3 2.4-24.9 19.9 2a2 2 0 012 1.8l.8 9.8 13.8 2 2.5-25.5-67.1-6.6-1 10 7.8 1.7a2.5 2.5 0 011.6.7 3.2 3.2 0 01.2 2l-6.3 64.8a3.3 3.3 0 01-.6 1.8 2.3 2.3 0 01-1.7.5l-8 .1-1 9.8 69.9 7 2.5-26-13.7-1.4zm94.9 10.5l-5.2-18.8c-1.5-5.6-3.6-9.2-6.3-10.8q17.4-5.7 19-22.6 1.1-11.1-5-18.8t-21.9-9.3l-43-4.3-1 10 7.9 1.7a2.3 2.3 0 011.6.8 3.4 3.4 0 01.2 2l-6.4 64.4a3.4 3.4 0 01-.5 2 2.5 2.5 0 01-1.7.4h-8l-1 10.2 40.2 4 1-10.2-8.8-2c-1 0-1.5-.3-1.6-.7a4 4 0 01-.2-2l2.4-23.7 5.9.6a7.8 7.8 0 014.6 1.7 9.3 9.3 0 012.3 4.7l8.2 32.8 27.5 2.7 1-10.1-7.7-2a4.9 4.9 0 01-3.5-2.8m-18.3-42q-4.9 2.7-13 1.9l-5.7-.6 2.6-27.1 6.3.6c5.8.5 10 1.9 12.4 4s3.5 5.5 3 10.2q-.8 8.5-5.6 11m102.5-18l7.9 1.7a2.5 2.5 0 011.6.7 3.3 3.3 0 01.1 2l-5.1 52.6-33.2-70-31.2-3-1 9.8 7.8 1.7a2.5 2.5 0 011.6.7 3.4 3.4 0 01.2 2l-6.4 65a3.3 3.3 0 01-.6 1.8 2.3 2.3 0 01-1.7.4l-8 .1-1 9.9 35.1 3.4 1-9.8-8.3-1.8c-1-.2-1.5-.5-1.7-.8a3.8 3.8 0 01-.1-2l5.2-52.5L747 995l20.7 2 7.7-77.9a3.4 3.4 0 01.5-1.8 2.5 2.5 0 011.7-.4l8.6-.1 1-10.1-35.1-3.5zm100.5 52.8a18.3 18.3 0 00-5.6-8.5 43.5 43.5 0 00-7.3-5.2 97.4 97.4 0 00-8.9-4.1 132 132 0 01-10-4.6 15 15 0 01-4-3 13.6 13.6 0 01-2-3.3 8.5 8.5 0 01-.7-4.4 9.6 9.6 0 014.3-7.5q3.9-2.6 10.8-1.9a30.8 30.8 0 019.1 2.3 2.7 2.7 0 011.3 2.6l.5 10.3 14.1 2.7 2.4-24.6a66.2 66.2 0 00-25.4-7.6q-15.1-1.5-25.2 4.8t-11.4 20.3q-1.4 14.5 9 22.2 4.2 3 16.2 7.8l6 2.6a24.4 24.4 0 014.5 2.8 9.5 9.5 0 013.3 4 10.7 10.7 0 01.6 5.1q-1.1 11.8-17 10.2a43.7 43.7 0 01-10.5-2.4 2.5 2.5 0 01-1.9-2.5l-1.3-12.2-14.2-1.4-2.4 24.6a56.4 56.4 0 0012.2 4.8 85.4 85.4 0 0016.2 3.2q15.6 1.5 26.2-4.6t12-20.7a29.1 29.1 0 00-.9-11.8M414.4 837q9.3-7.8 11-23 1.6-14.7-5.2-23.6t-22.9-10.7l-28.4-3.2-.8 7 5.5 1.2a1.6 1.6 0 011 .6 2.3 2.3 0 01.2 1.3l-5 44.9a2.3 2.3 0 01-.4 1.3 1.9 1.9 0 01-1.2.3h-5.6l-.8 7 27 3q16.4 1.8 25.7-6m-26.1-3.6l-5-.6 5-44.6 5.5.6q10.6 1.2 14.8 6.8c2.8 3.8 3.7 9.6 2.8 17.6q-2.5 22.4-23 20.2m90 1.2l-9.6-1-2.3 7.5c-.2.7-.7 1-1.5.8l-15.7-1.7 2-17.6 20.5 2.2 1.1-9.7-20.5-2.3 2-17.3 13.7 1.6a1.4 1.4 0 011.3 1.3l.5 6.8 9.6 1.5 2-17.7-46.6-5.2-.8 7 5.5 1.1a1.8 1.8 0 011 .6 2.4 2.4 0 01.2 1.3l-5 45a2.2 2.2 0 01-.4 1.3 1.5 1.5 0 01-1.2.3h-5.6l-.8 6.9 48.6 5.4zm25 22.2q10.8 1.2 18.2-3t8.6-14.3a20.4 20.4 0 00-.6-8.2 12.8 12.8 0 00-3.8-6 30.3 30.3 0 00-5-3.7 67.5 67.5 0 00-6.1-3 118.3 118.3 0 01-7-3.3 10.6 10.6 0 01-2.8-2 9.6 9.6 0 01-1.4-2.4 6 6 0 01-.4-3 6.7 6.7 0 013-5.2c1.9-1.2 4.4-1.6 7.6-1.2a20.8 20.8 0 016.3 1.6 1.9 1.9 0 01.9 1.8l.2 7.2 9.9 2 1.9-17a46 46 0 00-17.6-5.6q-10.5-1.2-17.6 3.1t-8.1 14q-1.1 10.1 6 15.5 3 2.2 11.3 5.6l4 1.9a18.4 18.4 0 013.2 2 6.8 6.8 0 012.2 2.8 7.5 7.5 0 01.4 3.6q-.9 8.2-12 7a30.5 30.5 0 01-7.2-1.9 1.7 1.7 0 01-1.3-1.7l-.9-8.5-9.8-1.1-1.9 17a40 40 0 008.4 3.5 58.8 58.8 0 0011.3 2.4"/><path d="M828 1013v-28.3l41-40c30.7-30 44-42.2 44-59.6 0-11.3-5.6-19.5-21.8-19.5-16.8 0-23.8 5.5-23.8 27.2L826 889c.3-48.5 37.2-56.5 69.3-56.5 47.3 0 64.1 20.2 64.1 48.9s-19.8 47.6-42.1 69l-34.5 33h44.8c3 0 4.3-.6 4.9-3.7l4.3-24.1H969v57.4z" fill="#8c1f52"/></g></g></svg>