<?xml version="1.0" encoding="UTF-8" standalone="no"?>
<svg
   xmlns:dc="http://purl.org/dc/elements/1.1/"
   xmlns:cc="http://creativecommons.org/ns#"
   xmlns:rdf="http://www.w3.org/1999/02/22-rdf-syntax-ns#"
   xmlns:svg="http://www.w3.org/2000/svg"
   xmlns="http://www.w3.org/2000/svg"
   xmlns:sodipodi="http://sodipodi.sourceforge.net/DTD/sodipodi-0.dtd"
   xmlns:inkscape="http://www.inkscape.org/namespaces/inkscape"
   viewBox="0 0 415.9 91.3"
   version="1.1"
   id="svg10"
   sodipodi:docname="nico.svg"
   inkscape:version="0.92.4 5da689c313, 2019-01-14">
  <metadata
     id="metadata14">
    <rdf:RDF>
      <cc:Work
         rdf:about="">
        <dc:format>image/svg+xml</dc:format>
        <dc:type
           rdf:resource="http://purl.org/dc/dcmitype/StillImage" />
      </cc:Work>
    </rdf:RDF>
  </metadata>
  <sodipodi:namedview
     pagecolor="#ffffff"
     bordercolor="#666666"
     borderopacity="1"
     objecttolerance="10"
     gridtolerance="10"
     guidetolerance="10"
     inkscape:pageopacity="0"
     inkscape:pageshadow="2"
     inkscape:window-width="1920"
     inkscape:window-height="1006"
     id="namedview12"
     showgrid="false"
     inkscape:zoom="2.9333975"
     inkscape:cx="207.26819"
     inkscape:cy="56.946488"
     inkscape:window-x="0"
     inkscape:window-y="0"
     inkscape:window-maximized="1"
     inkscape:current-layer="svg10" />
  <defs
     id="defs2" />
  <defs
     id="defs4" />
  <g
     id="Layer_2"
     data-name="Layer 2"
     style="fill:#000000;fill-opacity:0.19499999">
    <g
       id="vectors"
       style="fill:#000000;fill-opacity:0.19499999">
      <path
         d="m 175,63.7 h -0.1 l -5.7,-2 a 183,183 0 0 0 -3.8,-1.3 c -0.3,-0.1 -0.3,-0.2 -0.1,-0.5 0.5,-0.8 1,-1.6 1.3,-2.5 a 26.4,26.4 0 0 0 2.4,-7.2 c 0.3,-1.7 0.6,-3.3 0.7,-5 a 18.2,18.2 0 0 0 0,-3.2 13.8,13.8 0 0 0 -0.5,-3 16.4,16.4 0 0 0 -4.2,-6.2 4.5,4.5 0 0 1 -1.6,-2.3 15.7,15.7 0 0 0 -1.8,-4 l -2,-2.8 a 28.2,28.2 0 0 0 -4.7,-5.7 11.5,11.5 0 0 0 -4.6,-2.4 13.6,13.6 0 0 0 -4.4,-0.4 15.8,15.8 0 0 0 -6.1,1.3 15.1,15.1 0 0 0 -4.3,3 17.6,17.6 0 0 0 -2.6,3.9 26,26 0 0 0 -3.2,8 8,8 0 0 1 -0.8,2.4 27.8,27.8 0 0 1 -2,2.6 14,14 0 0 0 -3.2,9.1 l 0.3,8.3 a 17.1,17.1 0 0 0 1.3,5.6 34.7,34.7 0 0 0 1.8,3.5 c 0.1,0.3 0,0.4 -0.3,0.5 l -2.8,0.7 -4.3,1.5 c -0.6,0.2 -0.6,0.5 -0.3,1 a 27.4,27.4 0 0 0 3,5.2 l 2.1,2.7 c 1.4,1.5 2.7,3 4.2,4.4 a 26,26 0 0 0 7.5,5 c 3.4,1.4 6.8,2.8 10.3,2.5 a 25.3,25.3 0 0 0 3,0 30.7,30.7 0 0 0 8.4,-2 17.8,17.8 0 0 0 5,-2.8 l 3.8,-3.4 a 14.2,14.2 0 0 0 1.3,-1.3 26,26 0 0 0 3.4,-4.9 l 2.6,-4.6 1.4,-2.9 c 0.3,-0.6 0.3,-0.6 -0.4,-0.8 z M 133.5,35.9 a 2.4,2.4 0 0 1 1.6,-2.2 20.7,20.7 0 0 1 6.2,-2.4 l 5.3,-0.7 c 1,-0.2 2,-0.2 3,-0.2 a 11.5,11.5 0 0 1 3.8,0.5 l 4.2,1.2 a 9,9 0 0 1 1.4,0.6 l 0.2,0.3 0.6,4 -3.8,-0.3 a 31.1,31.1 0 0 0 -3.9,0.2 13.7,13.7 0 0 0 -3,0.6 7.3,7.3 0 0 1 -4,0.4 24,24 0 0 0 -8,0 l -3.7,0.7 -0.2,0.2 0.3,-3 z m 26,3.2 -0.4,3.2 a 1.6,1.6 0 0 1 -1.1,1.2 10.7,10.7 0 0 1 -4.5,0.9 h -1.7 a 2.6,2.6 0 0 1 -2.4,-1.6 7,7 0 0 1 -1,-3.3 c 0,-0.6 0.2,-1 0.7,-1 l 3.6,-0.7 a 18.3,18.3 0 0 1 2.7,0 l 3,0.1 a 1.2,1.2 0 0 1 1,1.2 z m -25.9,10.5 a 16.1,16.1 0 0 1 -1.2,-2.5 24.9,24.9 0 0 1 -0.7,-3.6 4.5,4.5 0 0 1 0.2,-1.8 c 0,-0.2 0.5,-0.3 0.7,-0.5 a 2.5,2.5 0 0 1 0.2,0.6 l 0.3,2.3 0.5,4 c 0,0.6 0.2,1.1 0.4,1.7 a 0.6,0.6 0 0 1 -0.4,-0.2 z m 0.4,-9 c 0,-1 0.4,-1.5 1.5,-1.7 a 30.3,30.3 0 0 1 4.5,-0.6 28.9,28.9 0 0 1 3.8,0.5 c 0.4,0 0.7,0.6 0.8,1.2 0.3,1.6 -0.4,2.7 -1.2,4 a 2.3,2.3 0 0 1 -0.8,0.6 8.7,8.7 0 0 1 -4,0.7 L 136,45 c -1.3,0 -1.7,-0.9 -2,-1.9 a 9.6,9.6 0 0 1 0,-2.6 z m 23.7,27 a 0.7,0.7 0 0 1 -0.3,0.4 40.3,40.3 0 0 0 -6.4,5.1 8,8 0 0 1 -1.5,1 0.9,0.9 0 0 1 -0.7,0 102,102 0 0 1 -4,-2.2 l -5,-3 a 1.3,1.3 0 0 1 -0.5,-0.5 13.8,13.8 0 0 1 -0.5,-4 l -0.4,-4.3 v -0.3 l 1.8,1.5 a 19.1,19.1 0 0 0 3.1,2 12.8,12.8 0 0 0 3.2,0.7 13.8,13.8 0 0 0 6.6,-0.8 5.7,5.7 0 0 0 2.3,-1.5 c 0.9,-0.8 1.6,-1.8 2.4,-2.7 v 4.4 l 0.1,2.2 a 11.8,11.8 0 0 1 -0.2,2 z m 2.7,-25.6 -0.1,5.4 a 52.4,52.4 0 0 1 -0.6,5.3 8,8 0 0 1 -0.8,2.2 29,29 0 0 1 -1.9,3.1 l -2.4,3 a 5,5 0 0 1 -2.6,1.5 13,13 0 0 1 -6.8,0.2 10.2,10.2 0 0 1 -5.4,-3 25.3,25.3 0 0 0 -1.8,-1.7 6,6 0 0 1 -1.7,-3 l -1.4,-4.5 -1,-4.6 a 0.5,0.5 0 0 1 0,-0.2 15.6,15.6 0 0 0 6,0.5 7.2,7.2 0 0 0 3.5,-1.2 1.4,1.4 0 0 0 0.5,-0.4 9.7,9.7 0 0 0 1.6,-3.6 1,1 0 0 1 0.8,-1 1,1 0 0 1 1,0.8 c 0.5,0.8 0.9,1.7 1.2,2.6 a 2.6,2.6 0 0 0 1.8,1.6 13.6,13.6 0 0 0 8.2,-0.7 2.3,2.3 0 0 0 1.4,-2 l 0.5,-2.2 z m 1.3,5.4 -0.4,0.7 v -8.3 a 1.6,1.6 0 0 1 1,1.5 20.5,20.5 0 0 1 -0.6,6.1 z M 0,55.5 9,54.2 23,72.8 22.8,66.9 V 52.3 L 32.2,51 v 35.7 l -9,1.3 -14,-18.5 c 0.2,1.7 0.3,3.9 0.3,5.8 V 90 L 0,91.3 Z M 44.1,57 c -2.6,0.4 -5,-0.7 -5,-4.1 a 5.3,5.3 0 0 1 5,-5.5 c 2.7,-0.3 5,0.8 5,4 a 5.3,5.3 0 0 1 -5,5.6 z m -4.3,4 8.7,-1.1 v 24.5 l -8.7,1.2 z m 28.4,-4.7 a 16.6,16.6 0 0 1 7.5,0.6 v 7.4 A 12.1,12.1 0 0 0 69.5,63.5 C 66.1,64 63,66 63,70.1 c 0,3.9 3,5.2 6.3,4.7 A 15.6,15.6 0 0 0 76,72.3 v 7.4 a 24.4,24.4 0 0 1 -8.4,2.8 C 60.7,83.5 54,80.5 54,71.9 54,62.2 61.2,57.3 68.2,56.3 Z m 26.2,-3.7 c 7.3,-1 13.8,2.4 13.8,11.1 0,8.7 -6.5,14 -13.8,15 -7.3,1 -13.8,-2.4 -13.8,-11 0,-8.6 6.4,-14 13.8,-15 z m 0,7.7 c -3.6,0.5 -4.9,3.3 -4.9,6 0,2.7 1.3,5.2 4.9,4.7 3.6,-0.5 4.8,-3.3 4.8,-6 0,-2.7 -1.2,-5.2 -4.8,-4.7 z M 199.7,26.5 a 23.6,23.6 0 0 1 12,1.2 v 8.7 a 16.9,16.9 0 0 0 -11.3,-1.8 c -3.5,0.5 -4.5,1.6 -4.5,3 0,4.6 18.6,0.5 18.6,13.2 0,8.5 -6.5,11.8 -14.3,13 a 26.7,26.7 0 0 1 -13.8,-1.3 v -9 a 21.1,21.1 0 0 0 13,2.2 c 3.7,-0.6 5.3,-1.4 5.3,-3.2 0,-5.2 -18.6,-0.8 -18.6,-13.6 0,-7.1 6.2,-11.4 13.6,-12.4 z m 31.9,6.7 c 10.5,-1.5 13.7,6.3 12,14 l -16,2.3 c 1,2.6 4.3,3.2 7.8,2.7 a 21.7,21.7 0 0 0 7,-2.2 v 6.4 a 29.5,29.5 0 0 1 -9,2.7 c -8.2,1.1 -14.7,-2.5 -14.7,-11 0,-9.6 7.5,-14.1 12.9,-14.9 z m 0.2,6.3 a 4.9,4.9 0 0 0 -4.4,4.7 l 8.2,-1.1 c 0.3,-1.2 -0.3,-4.1 -3.8,-3.6 z m 17.7,-8 7.7,-1.1 V 33 a 12,12 0 0 1 7.5,-4.4 c 3.7,-0.6 6,0.6 7.3,2.3 a 13.5,13.5 0 0 1 7.8,-4.5 c 7.4,-1 9,4.7 9,8.3 v 15.7 l -8.6,1.3 v -15 a 2.3,2.3 0 0 0 -2.9,-2.6 6.1,6.1 0 0 0 -3.5,2.1 v 16.3 l -8.7,1.3 v -15 a 2.3,2.3 0 0 0 -2.8,-2.6 6.4,6.4 0 0 0 -4.1,2.8 v 15.8 l -8.7,1.2 z m 55.6,-8.7 a 20.1,20.1 0 0 1 9.3,0.8 v 7 a 15.5,15.5 0 0 0 -8.6,-1.5 c -1.1,0.2 -2.4,0.6 -2.4,1.6 0,3.4 12.9,-0.4 12.9,8.7 0,6.1 -5.5,8.7 -11.7,9.6 a 18.8,18.8 0 0 1 -9.9,-0.9 v -6.9 a 16.7,16.7 0 0 0 9.4,1.3 c 2.2,-0.3 3.2,-0.8 3.2,-1.7 0,-3.2 -12.8,0.2 -12.8,-8.6 0,-6 5.2,-8.6 10.6,-9.4 z M 339,18.3 v 8.4 c -3.4,-0.2 -7,1.3 -8.6,4 v 14 l -8.7,1.1 V 21.3 l 7.7,-1.1 v 3.3 a 11.3,11.3 0 0 1 9.6,-5.2 z m 17,-2.7 c 7.4,-1 13.8,2.4 13.8,11.1 0,8.7 -6.4,14 -13.8,15 -7.4,1 -13.8,-2.4 -13.8,-11 0,-8.6 6.5,-14 13.8,-15 z m 0,7.7 c -3.6,0.5 -4.8,3.3 -4.8,6 0,2.7 1.3,5.2 4.8,4.7 3.5,-0.5 4.9,-3.3 4.9,-6 0,-2.7 -1.3,-5.2 -4.9,-4.7 z m 29.7,-11.1 6.6,-1 v 7.2 l -6.6,1 v 8 c 0,1.9 1,2.8 3.2,2.5 a 12.9,12.9 0 0 0 4,-1.1 v 6.7 a 22.1,22.1 0 0 1 -6.7,2 c -4.8,0.7 -9.2,-0.6 -9.2,-7.1 v -9.8 l -3.9,0.5 V 14 L 377,13.4 V 6.5 l 8.7,-3.2 z M 408.8,9 415.4,8 v 7.2 l -6.6,0.9 v 8 c 0,2 1,2.9 3.2,2.6 a 12.3,12.3 0 0 0 4,-1.2 v 6.7 a 22.4,22.4 0 0 1 -6.7,2 c -4.8,0.7 -9.2,-0.7 -9.2,-7.1 v -9.8 l -3.9,0.6 v -7.2 l 3.9,-0.5 v -7 L 408.8,0 Z"
         class="cls-1"
         id="path6"
         style="fill:#000000;fill-opacity:0.19499999"
         inkscape:connector-curvature="0" />
    </g>
  </g>
  <g
     id="g883"
     transform="matrix(0.42668251,0,0,0.42668251,6.046991,35.33621)"
     style="fill:#000000;fill-opacity:1">
    <path
       id="path870"
       d="m 169.641,37.811 c -0.735,-0.074 -1.268,-0.369 -1.597,-0.881 L 156.973,20.019 167.1,8.558 c 0.402,-0.515 0.971,-0.827 1.706,-0.938 l 2.312,-0.387 -0.002,-4.405 -14.424,0.004 0.001,4.406 3.413,0.439 -12.988,14.769 -0.004,-13.773 c 0.001,-0.402 0.045,-0.669 0.137,-0.798 0.09,-0.128 0.338,-0.211 0.743,-0.25 l 3.689,-0.439 -0.002,-4.354 -17.453,0.007 0.002,4.351 3.469,0.386 c 0.365,0.037 0.604,0.129 0.716,0.275 0.11,0.146 0.164,0.421 0.164,0.826 l 0.01,28.205 c 0,0.443 -0.055,0.729 -0.164,0.855 -0.111,0.129 -0.351,0.213 -0.717,0.248 l -3.468,0.389 0.002,4.35 18.002,-0.004 -0.001,-4.354 -4.24,-0.438 c -0.404,-0.037 -0.652,-0.119 -0.742,-0.248 -0.092,-0.131 -0.14,-0.414 -0.138,-0.855 l -0.003,-5.895 3.467,-4.133 10.301,15.918 12.168,-0.004 -0.002,-4.352 z m 42.998,-0.014 c -0.733,-0.184 -1.175,-0.496 -1.321,-0.936 L 199.305,2.818 189.56,2.821 177.514,36.762 c -0.185,0.514 -0.643,0.863 -1.377,1.045 l -2.422,0.607 0.001,4.299 15.361,-0.006 -0.002,-4.299 -4.35,-0.494 1.926,-5.729 13.654,-0.004 1.983,5.727 -4.514,0.498 v 4.297 l 17.397,-0.006 -0.001,-4.295 z m -24.284,-11.563 5.061,-14.987 h 0.33 l 4.905,14.985 z m 53.516,4.446 -0.879,5.51 c -0.074,0.404 -0.367,0.607 -0.882,0.607 l -9.8,0.002 -0.009,-28.153 C 230.3,8.244 230.346,7.98 230.439,7.848 230.531,7.72 230.778,7.636 231.183,7.6 l 4.569,-0.442 -0.002,-4.353 -18.333,0.007 0.001,4.354 3.469,0.383 c 0.367,0.037 0.605,0.119 0.717,0.249 0.108,0.129 0.164,0.413 0.163,0.853 l 0.01,28.206 c 0,0.406 -0.055,0.68 -0.164,0.828 -0.11,0.146 -0.35,0.24 -0.717,0.275 l -3.468,0.387 0.001,4.352 30.502,-0.01 -0.004,-12.008 h -6.056 z m 34.408,0.65 -0.878,4.85 c -0.074,0.402 -0.368,0.605 -0.881,0.607 l -9.855,0.002 -0.002,-11.074 12.883,-0.004 -0.002,-6.116 -12.884,0.004 -0.004,-10.852 8.644,-0.002 c 0.514,-0.002 0.825,0.237 0.938,0.715 l 0.771,4.186 6.055,0.273 -0.003,-11.128 -29.289,0.011 0.002,4.353 3.469,0.384 c 0.365,0.036 0.605,0.119 0.716,0.247 0.109,0.13 0.165,0.413 0.165,0.854 l 0.01,28.263 c -0.002,0.404 -0.056,0.68 -0.165,0.826 -0.11,0.146 -0.351,0.24 -0.717,0.275 l -3.47,0.387 0.002,4.297 30.503,-0.012 -0.005,-11.346 z m 48.224,-23.705 3.688,-0.441 -0.003,-4.407 -15.305,0.006 0.003,4.407 3.467,0.384 c 0.367,0.037 0.605,0.12 0.717,0.247 0.109,0.13 0.165,0.414 0.165,0.855 l 0.007,22.917 -17.296,-28.807 -13.654,0.005 0.001,4.297 3.469,0.385 c 0.367,0.037 0.606,0.119 0.715,0.248 0.111,0.128 0.166,0.413 0.167,0.854 l 0.009,28.316 c 0,0.404 -0.055,0.68 -0.165,0.826 -0.111,0.146 -0.35,0.24 -0.717,0.275 l -3.468,0.387 10e-4,4.295 15.305,-0.002 v -4.297 l -3.688,-0.439 c -0.404,-0.037 -0.652,-0.121 -0.743,-0.246 -0.093,-0.131 -0.14,-0.416 -0.138,-0.857 l -0.007,-22.917 17.571,28.751 h 9.027 l -0.01,-33.994 c 0,-0.402 0.046,-0.668 0.139,-0.798 0.091,-0.128 0.338,-0.211 0.743,-0.25 m 40.079,0.181 C 361.351,4.447 356.376,2.769 349.661,2.77 l -17.839,0.007 v 4.352 l 3.47,0.386 c 0.369,0.035 0.607,0.127 0.717,0.275 0.109,0.146 0.167,0.421 0.167,0.824 l 0.007,28.152 c 0,0.441 -0.055,0.725 -0.164,0.854 -0.109,0.131 -0.35,0.213 -0.714,0.25 l -3.47,0.387 -0.003,4.406 16.905,-0.004 c 6.901,-0.004 12.073,-1.842 15.523,-5.516 3.448,-3.672 5.172,-8.686 5.172,-15.042 -0.001,-6.17 -1.619,-10.935 -4.85,-14.295 m -16.726,28.901 h -3.142 l -0.007,-27.985 3.467,-10e-4 c 4.441,-0.002 7.654,1.062 9.638,3.191 1.983,2.131 2.974,5.692 2.977,10.688 0.002,9.404 -4.31,14.105 -12.933,14.107 m 49.879,-5.414 -0.882,4.848 c -0.073,0.404 -0.366,0.605 -0.881,0.605 l -9.854,0.004 -0.005,-11.074 12.883,-0.004 v -6.115 l -12.883,0.006 -0.005,-10.854 8.645,-0.003 c 0.512,0.002 0.826,0.239 0.936,0.716 l 0.771,4.188 6.056,0.273 -0.002,-11.128 -29.29,0.007 0.002,4.354 3.467,0.383 c 0.367,0.037 0.607,0.12 0.717,0.249 0.109,0.128 0.165,0.412 0.165,0.854 l 0.009,28.261 c 0,0.404 -0.057,0.68 -0.164,0.826 -0.109,0.146 -0.35,0.24 -0.714,0.277 l -3.47,0.385 v 4.299 l 30.502,-0.01 -0.005,-11.35 z m 45.642,6.928 -3.414,-0.551 c -0.771,-0.109 -1.322,-0.457 -1.653,-1.045 l -3.028,-7.877 c -0.884,-2.35 -1.948,-3.82 -3.193,-4.408 4.844,-2.13 7.263,-5.658 7.263,-10.579 -0.002,-3.232 -0.993,-5.876 -2.975,-7.934 -1.983,-2.055 -5.27,-3.082 -9.858,-3.081 l -18.771,0.005 v 4.353 l 3.47,0.385 c 0.366,0.037 0.604,0.13 0.714,0.275 0.109,0.147 0.167,0.423 0.167,0.826 l 0.007,28.154 c 0,0.439 -0.055,0.725 -0.164,0.854 -0.109,0.127 -0.348,0.211 -0.715,0.246 l -3.469,0.389 0.002,4.406 17.562,-0.006 -0.003,-4.406 -3.853,-0.439 c -0.405,-0.037 -0.652,-0.121 -0.743,-0.25 -0.093,-0.125 -0.138,-0.412 -0.138,-0.852 L 420.58,26.329 h 2.588 c 0.917,0 1.605,0.172 2.064,0.521 0.46,0.348 0.855,1.002 1.184,1.955 l 4.961,13.826 12.004,-0.002 z M 428.615,19.273 c -1.321,0.882 -3.157,1.323 -5.505,1.325 h -2.531 L 420.576,8.752 h 2.753 c 2.531,0 4.375,0.402 5.532,1.211 1.157,0.807 1.735,2.239 1.735,4.297 10e-4,2.46 -0.658,4.132 -1.981,5.013 M 37.22,7.806 C 33.989,4.447 29.014,2.769 22.298,2.77 L 4.46,2.777 V 7.129 L 7.93,7.515 C 8.299,7.549 8.537,7.641 8.646,7.79 8.756,7.935 8.812,8.21 8.812,8.614 L 8.82,36.766 c 0,0.441 -0.055,0.725 -0.164,0.854 -0.11,0.131 -0.351,0.213 -0.715,0.25 L 4.471,38.257 4.47,42.662 21.374,42.658 C 28.275,42.654 33.447,40.816 36.898,37.142 40.346,33.47 42.07,28.456 42.07,22.1 42.068,15.931 40.451,11.166 37.22,7.806 M 20.493,36.707 H 17.352 L 17.345,8.722 20.813,8.721 c 4.441,-0.002 7.653,1.062 9.637,3.191 1.984,2.131 2.975,5.692 2.977,10.688 0.002,9.404 -4.311,14.105 -12.934,14.107 m 49.879,-5.414 -0.881,4.848 c -0.074,0.404 -0.367,0.605 -0.881,0.605 L 58.756,36.75 58.751,25.676 71.634,25.672 V 19.557 L 58.751,19.563 58.746,8.708 67.391,8.705 c 0.512,0.002 0.826,0.239 0.936,0.716 l 0.771,4.188 6.056,0.273 -0.003,-11.127 -29.29,0.007 0.002,4.354 3.468,0.384 c 0.366,0.037 0.607,0.12 0.717,0.249 0.109,0.128 0.164,0.412 0.164,0.854 l 0.01,28.261 c 0,0.404 -0.058,0.68 -0.164,0.826 -0.11,0.146 -0.351,0.24 -0.715,0.277 l -3.47,0.385 v 4.299 l 30.502,-0.01 -0.004,-11.35 z m 45.643,6.928 -3.415,-0.551 c -0.771,-0.109 -1.321,-0.457 -1.652,-1.045 l -3.029,-7.877 c -0.883,-2.35 -1.947,-3.82 -3.193,-4.408 4.844,-2.13 7.264,-5.658 7.264,-10.579 -0.003,-3.232 -0.993,-5.876 -2.975,-7.934 -1.983,-2.055 -5.27,-3.082 -9.858,-3.081 L 80.383,2.751 v 4.353 l 3.47,0.385 c 0.367,0.037 0.605,0.13 0.715,0.275 0.109,0.147 0.166,0.423 0.166,0.826 l 0.008,28.154 c 0,0.439 -0.055,0.725 -0.165,0.854 -0.109,0.127 -0.348,0.211 -0.714,0.246 l -3.47,0.389 0.003,4.406 17.562,-0.006 -0.002,-4.406 -3.854,-0.439 C 93.698,37.751 93.45,37.667 93.359,37.538 93.266,37.413 93.221,37.126 93.221,36.686 L 93.216,26.329 h 2.589 c 0.917,0 1.604,0.172 2.064,0.521 0.46,0.348 0.854,1.002 1.184,1.955 l 4.96,13.826 12.004,-0.002 z M 101.253,19.273 c -1.321,0.882 -3.157,1.323 -5.506,1.325 H 93.216 L 93.214,8.752 h 2.753 c 2.531,0 4.374,0.402 5.531,1.211 1.157,0.807 1.736,2.239 1.736,4.297 0,2.46 -0.66,4.132 -1.981,5.013"
       inkscape:connector-curvature="0"
       style="fill:#000000;fill-opacity:1" />
    <path
       id="path872"
       d="m 611.436,23.632 c -1.242,-0.885 -2.358,-1.539 -3.35,-1.963 -0.99,-0.427 -2.328,-0.899 -4.012,-1.419 -1.248,-0.367 -2.082,-0.629 -2.502,-0.776 -0.423,-0.15 -1.093,-0.417 -2.008,-0.806 -0.918,-0.39 -1.548,-0.749 -1.894,-1.08 -0.351,-0.329 -0.688,-0.779 -1.015,-1.351 -0.331,-0.571 -0.494,-1.205 -0.492,-1.903 0.006,-1.431 0.532,-2.567 1.579,-3.407 1.045,-0.844 2.582,-1.26 4.597,-1.255 1.398,0.005 2.736,0.21 4.02,0.619 0.365,0.146 0.584,0.496 0.658,1.048 l 0.645,4.46 6.218,0.572 0.031,-10.737 c -3.481,-1.48 -7.238,-2.225 -11.275,-2.237 -4.403,-0.015 -7.961,1.022 -10.686,3.106 -2.721,2.086 -4.086,5.162 -4.101,9.239 -0.009,4.222 1.577,7.294 4.763,9.208 1.322,0.776 3.772,1.684 7.367,2.723 1.099,0.332 1.987,0.619 2.664,0.863 0.68,0.236 1.375,0.58 2.09,1.023 0.715,0.439 1.236,0.977 1.563,1.6 0.328,0.629 0.491,1.359 0.487,2.207 -0.01,3.414 -2.327,5.111 -6.946,5.1 -1.471,-0.006 -3.009,-0.211 -4.625,-0.621 -0.548,-0.111 -0.858,-0.443 -0.929,-0.992 l -1.087,-5.234 -6.164,-0.018 -0.031,10.734 c 1.172,0.555 2.989,1.078 5.444,1.559 2.455,0.486 4.842,0.732 7.151,0.738 4.55,0.014 8.268,-1.004 11.153,-3.051 2.885,-2.047 4.336,-5.201 4.35,-9.459 0.004,-1.945 -0.292,-3.627 -0.896,-5.041 -0.599,-1.413 -1.523,-2.565 -2.767,-3.449 M 624.248,9.106 c -3.536,3.753 -5.311,8.69 -5.328,14.821 -0.042,13.842 6.377,20.782 19.255,20.819 5.868,0.016 10.457,-0.979 13.768,-2.984 l 0.031,-10.246 -5.889,-0.016 -0.841,5.119 c -0.076,0.402 -0.178,0.676 -0.306,0.824 -0.131,0.145 -0.357,0.258 -0.688,0.326 -1.545,0.475 -3.38,0.707 -5.505,0.701 -3.486,-0.014 -6.199,-1.238 -8.135,-3.686 -1.938,-2.445 -2.899,-6.057 -2.884,-10.827 0.012,-4.592 1.04,-8.085 3.084,-10.485 2.043,-2.396 4.843,-3.594 8.4,-3.583 1.873,0.007 3.503,0.23 4.897,0.678 0.476,0.15 0.766,0.479 0.876,0.995 l 0.865,5.396 6.052,0.515 0.027,-10.795 C 648.746,4.576 644.584,3.518 639.451,3.501 632.85,3.487 627.782,5.353 624.248,9.106 m 55.967,-0.359 3.469,0.396 c 0.364,0.038 0.601,0.121 0.71,0.25 0.11,0.128 0.166,0.414 0.164,0.855 l -0.031,10.407 -15.078,-0.045 0.03,-10.408 c 10e-4,-0.404 0.047,-0.67 0.141,-0.798 0.093,-0.129 0.341,-0.212 0.743,-0.245 l 3.688,-0.432 0.012,-4.404 -17.443,-0.051 -0.016,4.405 3.47,0.396 c 0.364,0.039 0.604,0.119 0.715,0.251 0.107,0.13 0.162,0.413 0.161,0.852 l -0.085,28.196 c 0,0.406 -0.056,0.682 -0.165,0.828 -0.113,0.145 -0.353,0.234 -0.72,0.27 l -3.466,0.377 -0.013,4.291 17.445,0.055 0.012,-4.297 -3.685,-0.451 c -0.405,-0.037 -0.652,-0.119 -0.746,-0.248 -0.089,-0.127 -0.136,-0.414 -0.133,-0.854 l 0.034,-11.566 15.079,0.047 -0.036,11.619 c 10e-4,0.404 -0.056,0.676 -0.167,0.826 -0.11,0.145 -0.35,0.238 -0.718,0.27 l -3.466,0.375 -0.012,4.297 17.39,0.053 0.014,-4.295 -3.685,-0.451 c -0.407,-0.039 -0.655,-0.121 -0.743,-0.25 -0.091,-0.127 -0.139,-0.416 -0.137,-0.857 l 0.083,-28.136 c 10e-4,-0.404 0.049,-0.671 0.141,-0.797 0.092,-0.129 0.341,-0.212 0.745,-0.246 l 3.687,-0.433 0.014,-4.404 -17.391,-0.051 z m 44.928,29.097 c -0.074,0.404 -0.367,0.605 -0.881,0.604 l -9.848,-0.029 0.031,-11.068 12.877,0.041 0.018,-6.117 -12.88,-0.034 0.03,-10.851 8.645,0.025 c 0.513,0.001 0.823,0.244 0.931,0.718 l 0.76,4.187 6.055,0.295 0.03,-11.124 -29.275,-0.087 -0.013,4.354 3.467,0.393 c 0.364,0.038 0.605,0.121 0.716,0.251 0.105,0.13 0.163,0.414 0.161,0.854 l -0.083,28.252 c -10e-4,0.402 -0.059,0.676 -0.171,0.824 -0.108,0.145 -0.348,0.24 -0.714,0.273 l -3.467,0.375 -0.014,4.295 30.484,0.092 0.033,-11.346 L 726.041,33 Z m 10.875,-28.931 4.012,0.396 c 0.368,0.038 0.607,0.123 0.717,0.25 0.11,0.129 0.163,0.412 0.162,0.855 l -0.081,28.196 c -10e-4,0.438 -0.058,0.723 -0.173,0.85 -0.105,0.127 -0.343,0.213 -0.709,0.246 l -4.021,0.375 -0.012,4.295 18.487,0.054 0.014,-4.295 -4.237,-0.455 c -0.402,-0.035 -0.648,-0.121 -0.742,-0.248 -0.091,-0.129 -0.136,-0.414 -0.132,-0.855 l 0.081,-28.139 c 0,-0.404 0.047,-0.669 0.14,-0.799 0.094,-0.125 0.344,-0.208 0.746,-0.244 l 4.236,-0.429 0.016,-4.405 -18.492,-0.053 z m 21.602,7.056 6.054,0.017 0.9,-4.785 c 0.068,-0.404 0.365,-0.608 0.88,-0.604 l 5.666,0.016 -0.082,28.029 c -10e-4,0.439 -0.058,0.727 -0.171,0.854 -0.108,0.129 -0.346,0.215 -0.71,0.248 l -5.673,0.367 -0.011,4.35 22.01,0.064 0.013,-4.352 -6.052,-0.455 c -0.405,-0.039 -0.651,-0.123 -0.742,-0.252 -0.091,-0.127 -0.136,-0.395 -0.136,-0.799 l 0.083,-28.03 5.667,0.018 c 0.517,0.001 0.807,0.205 0.883,0.609 l 0.865,4.79 5.998,0.02 0.032,-11.398 -35.437,-0.106 z m 62.453,22.156 c -0.076,0.404 -0.371,0.607 -0.883,0.602 l -9.852,-0.027 0.031,-11.068 12.878,0.037 0.019,-6.11 -12.875,-0.041 0.03,-10.845 8.641,0.021 c 0.514,0.003 0.823,0.243 0.934,0.72 l 0.76,4.188 6.051,0.293 0.033,-11.125 -29.278,-0.086 -0.012,4.351 3.463,0.396 c 0.37,0.037 0.608,0.12 0.714,0.251 0.112,0.128 0.169,0.412 0.168,0.853 l -0.086,28.249 c -0.002,0.404 -0.054,0.682 -0.164,0.824 -0.112,0.15 -0.352,0.24 -0.718,0.275 l -3.471,0.377 -0.012,4.291 30.487,0.092 0.033,-11.342 -5.998,-0.02 z m 41.438,0.619 -3.003,-7.885 c -0.875,-2.352 -1.938,-3.822 -3.182,-4.416 4.851,-2.113 7.282,-5.631 7.297,-10.55 0.011,-3.229 -0.976,-5.878 -2.947,-7.938 -1.978,-2.062 -5.257,-3.101 -9.841,-3.112 l -18.767,-0.059 -0.014,4.353 3.467,0.397 c 0.364,0.035 0.602,0.129 0.713,0.277 0.109,0.145 0.165,0.42 0.165,0.824 l -0.087,28.139 c -0.002,0.441 -0.056,0.729 -0.164,0.854 -0.11,0.131 -0.35,0.211 -0.718,0.244 l -3.468,0.379 -0.012,4.404 17.556,0.051 0.012,-4.406 -3.852,-0.453 c -0.405,-0.035 -0.651,-0.117 -0.742,-0.25 -0.092,-0.127 -0.137,-0.41 -0.136,-0.85 l 0.033,-10.355 2.581,0.01 c 0.918,0.002 1.606,0.178 2.063,0.527 0.458,0.352 0.851,1.002 1.177,1.959 l 4.914,13.836 11.998,0.037 0.012,-4.406 -3.413,-0.562 c -0.766,-0.113 -1.315,-0.461 -1.642,-1.049 m -9.636,-17.376 c -1.325,0.878 -3.162,1.312 -5.508,1.307 l -2.529,-0.007 0.032,-11.842 2.753,0.009 c 2.532,0.008 4.373,0.419 5.529,1.229 1.155,0.808 1.724,2.245 1.718,4.3 -0.007,2.458 -0.671,4.127 -1.995,5.004 m 43.565,-11.987 3.469,0.397 c 0.365,0.038 0.604,0.12 0.713,0.249 0.108,0.13 0.165,0.414 0.162,0.853 L 899.717,33.791 882.523,4.94 868.874,4.898 l -0.012,4.294 3.463,0.397 c 0.368,0.037 0.607,0.121 0.716,0.25 0.11,0.129 0.164,0.412 0.164,0.854 l -0.086,28.305 c -0.002,0.404 -0.055,0.68 -0.169,0.826 -0.108,0.146 -0.349,0.236 -0.714,0.271 l -3.472,0.377 -0.011,4.297 15.301,0.045 0.012,-4.299 -3.685,-0.447 c -0.404,-0.039 -0.653,-0.125 -0.741,-0.252 -0.095,-0.131 -0.139,-0.416 -0.138,-0.855 l 0.071,-22.909 17.468,28.795 9.023,0.027 0.101,-33.976 c 0.001,-0.402 0.049,-0.668 0.142,-0.798 0.093,-0.125 0.341,-0.209 0.739,-0.246 l 3.692,-0.429 0.012,-4.404 -15.298,-0.045 z m 45.594,18.666 c -0.601,-1.416 -1.525,-2.566 -2.768,-3.448 -1.247,-0.887 -2.365,-1.541 -3.354,-1.968 -0.989,-0.422 -2.325,-0.895 -4.011,-1.416 -1.249,-0.369 -2.083,-0.627 -2.503,-0.779 -0.421,-0.146 -1.09,-0.414 -2.003,-0.804 -0.92,-0.387 -1.553,-0.747 -1.897,-1.08 -0.35,-0.329 -0.687,-0.777 -1.018,-1.348 -0.329,-0.571 -0.489,-1.205 -0.487,-1.903 0.004,-1.433 0.53,-2.568 1.579,-3.409 1.047,-0.842 2.581,-1.259 4.598,-1.256 1.393,0.008 2.733,0.21 4.016,0.62 0.367,0.15 0.587,0.5 0.657,1.047 l 0.65,4.463 6.214,0.569 0.035,-10.737 c -3.485,-1.479 -7.243,-2.227 -11.277,-2.235 -4.405,-0.016 -7.964,1.021 -10.686,3.106 -2.724,2.084 -4.088,5.163 -4.1,9.24 -0.014,4.221 1.574,7.288 4.76,9.207 1.316,0.775 3.773,1.684 7.367,2.723 1.1,0.332 1.987,0.621 2.666,0.861 0.68,0.24 1.372,0.582 2.086,1.025 0.718,0.441 1.238,0.979 1.564,1.6 0.332,0.629 0.491,1.361 0.489,2.207 -0.012,3.414 -2.323,5.113 -6.946,5.1 -1.471,-0.004 -3.009,-0.211 -4.623,-0.619 -0.548,-0.113 -0.862,-0.445 -0.937,-0.992 l -1.08,-5.238 -6.164,-0.016 -0.03,10.736 c 1.172,0.553 2.982,1.074 5.442,1.557 2.456,0.488 4.838,0.73 7.152,0.738 4.546,0.012 8.264,-1 11.15,-3.049 2.886,-2.049 4.336,-5.201 4.35,-9.461 0.009,-1.945 -0.288,-3.625 -0.891,-5.041 m -445.681,9.371 c 3.483,-3.594 5.278,-8.549 5.38,-14.863 0.1,-6.129 -1.434,-10.895 -4.59,-14.279 -3.158,-3.392 -8.076,-5.143 -14.748,-5.247 l -17.729,-0.282 -0.066,4.326 3.44,0.436 c 0.367,0.048 0.603,0.142 0.707,0.288 0.107,0.147 0.16,0.42 0.152,0.82 l -0.441,27.979 c -0.008,0.438 -0.065,0.719 -0.179,0.844 -0.114,0.127 -0.351,0.203 -0.722,0.238 l -3.446,0.324 -0.068,4.379 16.794,0.266 c 6.855,0.111 12.027,-1.633 15.516,-5.229 m -16.299,-0.693 -3.118,-0.051 0.44,-27.813 3.451,0.057 c 4.415,0.069 7.587,1.178 9.522,3.327 1.932,2.147 2.865,5.707 2.781,10.669 -0.145,9.344 -4.502,13.945 -13.076,13.811 m 55.617,-4.485 -5.963,-0.096 -0.951,4.803 c -0.081,0.4 -0.374,0.598 -0.888,0.592 l -9.795,-0.158 0.177,-11.004 12.804,0.203 0.094,-6.076 -12.802,-0.204 0.172,-10.785 8.592,0.136 c 0.508,0.005 0.813,0.25 0.919,0.729 l 0.697,4.168 6.016,0.374 0.176,-11.064 -29.106,-0.46 -0.068,4.324 3.44,0.44 c 0.361,0.041 0.598,0.127 0.707,0.258 0.106,0.127 0.156,0.412 0.151,0.853 l -0.444,28.083 c -0.007,0.404 -0.067,0.674 -0.181,0.818 -0.109,0.145 -0.348,0.234 -0.715,0.262 l -3.453,0.33 -0.068,4.273 30.311,0.48 z m 16.717,12.199 c 4.521,0.072 8.23,-0.889 11.128,-2.887 2.893,-2 4.377,-5.117 4.442,-9.35 0.031,-1.934 -0.244,-3.609 -0.823,-5.023 -0.578,-1.414 -1.483,-2.572 -2.707,-3.464 -1.23,-0.896 -2.329,-1.56 -3.308,-1.998 -0.98,-0.434 -2.301,-0.922 -3.973,-1.459 -1.233,-0.383 -2.059,-0.655 -2.477,-0.807 -0.414,-0.151 -1.081,-0.425 -1.981,-0.823 -0.907,-0.399 -1.531,-0.767 -1.871,-1.1 -0.343,-0.334 -0.676,-0.786 -0.998,-1.357 -0.317,-0.569 -0.471,-1.203 -0.457,-1.896 0.021,-1.426 0.562,-2.548 1.608,-3.371 1.057,-0.822 2.587,-1.218 4.595,-1.187 1.384,0.023 2.71,0.244 3.979,0.669 0.364,0.149 0.578,0.502 0.643,1.048 l 0.586,4.443 6.172,0.647 0.174,-10.677 c -3.443,-1.513 -7.172,-2.303 -11.186,-2.368 -4.373,-0.068 -7.929,0.917 -10.662,2.954 -2.731,2.041 -4.13,5.082 -4.194,9.134 -0.066,4.196 1.472,7.271 4.615,9.218 1.298,0.788 3.729,1.719 7.289,2.797 1.089,0.348 1.968,0.645 2.642,0.895 0.674,0.25 1.354,0.594 2.06,1.039 0.712,0.455 1.218,0.986 1.537,1.617 0.317,0.625 0.47,1.357 0.456,2.195 -0.053,3.398 -2.379,5.057 -6.972,4.984 -1.463,-0.023 -2.99,-0.25 -4.59,-0.678 -0.545,-0.113 -0.846,-0.447 -0.912,-1 l -1.015,-5.215 -6.124,-0.1 -0.172,10.676 c 1.162,0.564 2.956,1.107 5.396,1.617 2.432,0.519 4.797,0.792 7.1,0.827"
       inkscape:connector-curvature="0"
       style="fill:#000000;fill-opacity:1" />
  </g>
</svg>
